<svg xmlns="http://www.w3.org/2000/svg" width="16" height="17" viewBox="0 0 16 17" fill="none">
<path d="M7.82919 2.93604C7.93909 2.88802 8.06403 2.88802 8.17393 2.93604C10.3087 3.86875 12.3319 5.00895 14.2181 6.33108C14.3546 6.42676 14.4236 6.59264 14.3953 6.7569C14.3669 6.92116 14.2463 7.05429 14.0856 7.09864C13.6924 7.20717 13.3026 7.32405 12.9164 7.44862C11.3486 7.95423 9.83947 8.59041 8.40171 9.34436L8.39984 9.34534C8.33465 9.37953 8.26961 9.41396 8.20472 9.44863C8.07794 9.51638 7.92571 9.51638 7.79893 9.44863C7.73342 9.41363 7.66775 9.37887 7.60194 9.34436C6.89101 8.97155 6.16262 8.62754 5.41833 8.31387V8.18546C5.41833 8.11006 5.45703 8.04315 5.51691 8.00688C6.38091 7.48344 7.27213 7.00047 8.18793 6.56058C8.40226 6.45763 8.49256 6.20042 8.38961 5.98609C8.28666 5.77176 8.02945 5.68146 7.81511 5.78441C6.87411 6.2364 5.95842 6.73264 5.07074 7.27042C4.81048 7.4281 4.63552 7.68615 4.57797 7.97526C4.08721 7.78648 3.59 7.61064 3.08674 7.44835C2.7005 7.32379 2.31071 7.20716 1.91756 7.09863C1.75687 7.05428 1.63623 6.92116 1.60786 6.75689C1.57949 6.59263 1.64849 6.42675 1.78499 6.33107C3.6712 5.00895 5.69443 3.86875 7.82919 2.93604Z" fill="white"/>
<path d="M8.6105 10.2081C10.0105 9.46004 11.4814 8.82766 13.0105 8.3236C13.0876 9.13576 13.1368 9.95599 13.1572 10.7833C13.1615 10.9608 13.0565 11.1228 12.8926 11.1912C11.2559 11.8745 9.69918 12.7113 8.24029 13.6835C8.0957 13.7798 7.90737 13.7798 7.76278 13.6835C6.30389 12.7113 4.74712 11.8745 3.11045 11.1912C2.94659 11.1228 2.84154 10.9608 2.84592 10.7833C2.8663 9.95593 2.91551 9.13564 2.99258 8.32341C3.52127 8.49768 4.04301 8.68729 4.55727 8.89172V9.62098C4.29989 9.76987 4.12673 10.0481 4.12673 10.3669C4.12673 10.6512 4.26455 10.9033 4.47703 11.0601C4.42564 11.2786 4.34959 11.4924 4.24887 11.6972C4.50874 11.8198 4.76638 11.9464 5.02172 12.0769C5.16715 11.7811 5.27259 11.4707 5.33805 11.1537C5.63904 11.0195 5.84886 10.7177 5.84886 10.3669C5.84886 10.0481 5.6757 9.76987 5.41833 9.62098V9.25086C6.09076 9.54466 6.74945 9.86415 7.39315 10.2081C7.77349 10.4113 8.23016 10.4113 8.6105 10.2081Z" fill="white"/>
<path d="M3.67452 12.4979C3.91512 12.2573 4.10665 11.9863 4.24887 11.6972C4.50874 11.8198 4.76638 11.9464 5.02172 12.0769C4.83886 12.4488 4.59265 12.7975 4.28338 13.1067C4.11525 13.2749 3.84265 13.2749 3.67452 13.1067C3.50638 12.9386 3.50638 12.666 3.67452 12.4979Z" fill="white"/>
</svg>