<svg xmlns="http://www.w3.org/2000/svg" width="36" height="36" viewBox="0 0 36 36" fill="none">
<path d="M22.2734 7.06337C24.2542 7.57725 26.0374 8.66858 27.3963 10.1986C28.7553 11.7286 29.6285 13.6281 29.905 15.6557C30.1814 17.6833 29.8487 19.7473 28.9491 21.5853C28.0494 23.4233 26.6235 24.9522 24.8527 25.9777V30.7923" stroke="#26262B" stroke-width="1.5" stroke-linecap="round" stroke-linejoin="round"/>
<path d="M19.6952 21.3351C22.0693 21.3351 23.9939 19.4105 23.9939 17.0364C23.9939 14.6623 22.0693 12.7377 19.6952 12.7377C17.3211 12.7377 15.3965 14.6623 15.3965 17.0364C15.3965 19.4105 17.3211 21.3351 19.6952 21.3351Z" stroke="#26262B" stroke-width="1.5" stroke-linecap="round" stroke-linejoin="round"/>
<path d="M17.1152 13.5974V5.85974C17.1152 5.63172 17.2058 5.41305 17.367 5.25181C17.5283 5.09058 17.747 5 17.975 5H21.4139C21.641 5.00297 21.858 5.0945 22.0186 5.2551C22.1792 5.41569 22.2707 5.63265 22.2737 5.85974V13.5974" stroke="#26262B" stroke-width="1.5" stroke-linecap="round" stroke-linejoin="round"/>
<path d="M8.30005 21.9427C8.03266 21.8754 7.78537 21.7449 7.57902 21.562C7.37268 21.3791 7.21333 21.1493 7.11443 20.8919C7.01553 20.6346 6.97997 20.3572 7.01075 20.0832C7.04153 19.8092 7.13775 19.5466 7.29129 19.3176L9.33174 16.1881V15.3284C9.33174 11.2704 12.6102 7.86583 17.0694 6.96024" stroke="#26262B" stroke-width="1.5" stroke-linecap="round" stroke-linejoin="round"/>
<path d="M14.5352 30.7923V29.0843" stroke="#26262B" stroke-width="1.5" stroke-linecap="round" stroke-linejoin="round"/>
<path d="M19.6489 17.0364C19.6489 18.1654 19.4266 19.2834 18.9945 20.3265C18.5624 21.3696 17.9292 22.3174 17.1308 23.1157C16.3325 23.9141 15.3847 24.5473 14.3416 24.9794C13.2985 25.4115 12.1805 25.6338 11.0515 25.6338H9.33203" stroke="#26262B" stroke-width="1.5" stroke-linecap="round" stroke-linejoin="round"/>
</svg>