<svg xmlns="http://www.w3.org/2000/svg" width="24" height="24" viewBox="0 0 24 24" fill="none">
<g clip-path="url(#clip0_8154_119730)">
<path d="M14.6172 2.70459C16.2536 3.12913 17.7268 4.03071 18.8494 5.2947C19.9721 6.5587 20.6935 8.128 20.9219 9.80306C21.1503 11.4781 20.8754 13.1833 20.1322 14.7017C19.389 16.2201 18.211 17.4833 16.748 18.3304V22.3079" stroke="#60616C" stroke-width="1.5" stroke-linecap="round" stroke-linejoin="round"/>
<path d="M12.4869 14.4951C14.4482 14.4951 16.0382 12.9051 16.0382 10.9437C16.0382 8.98238 14.4482 7.3924 12.4869 7.3924C10.5255 7.3924 8.93555 8.98238 8.93555 10.9437C8.93555 12.9051 10.5255 14.4951 12.4869 14.4951Z" stroke="#60616C" stroke-width="1.5" stroke-linecap="round" stroke-linejoin="round"/>
<path d="M10.3574 8.10266V1.71027C10.3574 1.52189 10.4323 1.34123 10.5655 1.20803C10.6987 1.07483 10.8793 1 11.0677 1H13.9087C14.0964 1.00245 14.2756 1.07807 14.4083 1.21074C14.5409 1.34342 14.6166 1.52265 14.619 1.71027V8.10266" stroke="#60616C" stroke-width="1.5" stroke-linecap="round" stroke-linejoin="round"/>
<path d="M3.07402 14.997C2.85312 14.9414 2.64882 14.8335 2.47835 14.6825C2.30788 14.5314 2.17624 14.3415 2.09454 14.1289C2.01283 13.9163 1.98345 13.6871 2.00888 13.4608C2.03431 13.2344 2.1138 13.0175 2.24064 12.8283L3.92634 10.2429V9.53267C3.92634 6.18021 6.63482 3.36756 10.3187 2.61942" stroke="#60616C" stroke-width="1.5" stroke-linecap="round" stroke-linejoin="round"/>
<path d="M8.22461 22.3079V20.8969" stroke="#60616C" stroke-width="1.5" stroke-linecap="round" stroke-linejoin="round"/>
<path d="M12.449 10.9437C12.449 11.8765 12.2653 12.8001 11.9083 13.6618C11.5514 14.5235 11.0282 15.3065 10.3686 15.9661C9.70911 16.6256 8.92612 17.1488 8.06438 17.5057C7.20265 17.8627 6.27905 18.0464 5.34631 18.0464H3.92578" stroke="#60616C" stroke-width="1.5" stroke-linecap="round" stroke-linejoin="round"/>
</g>
<defs>
<clipPath id="clip0_8154_119730">
<rect width="24" height="24" fill="white"/>
</clipPath>
</defs>
</svg>