<svg width="154" height="27" viewBox="0 0 154 27" fill="none" xmlns="http://www.w3.org/2000/svg">
<g clip-path="url(#clip0_6195_25374)">
<mask id="mask0_6195_25374" style="mask-type:luminance" maskUnits="userSpaceOnUse" x="0" y="0" width="154" height="27">
<path d="M153.968 0.44165H0.53125V26.5585H153.968V0.44165Z" fill="white"/>
</mask>
<g mask="url(#mask0_6195_25374)">
<path d="M6.13524 11.2695C5.86322 10.9431 5.42794 10.9975 5.2103 11.3784L0.585435 20.6281C0.422205 21.009 0.694255 21.4442 1.07513 21.4442H7.4955C7.71314 21.4442 7.87637 21.3354 7.98519 21.1178C9.39985 18.234 8.52929 13.8812 6.13524 11.2695Z" fill="url(#paint0_linear_6195_25374)"/>
<path d="M9.50838 2.89039C6.95111 6.97115 7.11434 11.4872 8.80105 14.915C10.4878 18.3429 11.7936 20.9001 11.9024 21.1178C12.0112 21.3354 12.1745 21.4442 12.3921 21.4442H18.8125C19.2478 21.4442 19.4654 21.009 19.3022 20.6281C19.3022 20.6281 10.651 3.32567 10.4334 2.89039C10.2701 2.50952 9.72602 2.50952 9.50838 2.89039Z" fill="#0082FF"/>
<path d="M84.8669 10.2903C84.8669 12.5755 85.9007 14.371 90.0903 15.1872C92.5387 15.7313 93.0828 16.1121 93.0828 16.9283C93.0828 17.7444 92.5387 18.2341 90.7976 18.2341C88.7844 18.2341 86.3904 17.5268 84.8125 16.6018V20.3017C86.0639 20.9002 87.6962 21.6076 90.7976 21.6076C95.1504 21.6076 96.8371 19.6488 96.8371 16.8195M96.8371 16.8739C96.8371 14.1534 95.4225 12.9019 91.3417 12.0314C89.1109 11.5417 88.5668 11.052 88.5668 10.3447C88.5668 9.4741 89.383 9.09323 90.852 9.09323C92.6476 9.09323 94.3887 9.63733 96.0754 10.3991V6.86241C94.8784 6.2639 93.0828 5.82861 90.9608 5.82861C86.9345 5.82861 84.8669 7.56974 84.8669 10.3991" fill="#0050D3"/>
<path d="M140.582 5.93726V21.4441H143.901V9.63715L145.261 12.7385L149.941 21.4441H154.076V5.93726H150.811V15.9487L149.56 13.0106L145.805 5.93726H140.582Z" fill="#0050D3"/>
<path d="M119.579 5.93726H115.988V21.4441H119.579V5.93726Z" fill="#0050D3"/>
<path d="M111.855 16.8194C111.855 14.0989 110.44 12.8475 106.359 11.9769C104.128 11.4872 103.584 10.9975 103.584 10.2902C103.584 9.41965 104.401 9.03878 105.87 9.03878C107.665 9.03878 109.406 9.58289 111.093 10.3446V6.80797C109.896 6.20946 108.1 5.77417 105.978 5.77417C101.952 5.77417 99.8845 7.5153 99.8845 10.3446C99.8845 12.6299 100.918 14.4254 105.108 15.2415C107.556 15.7856 108.1 16.1665 108.1 16.9827C108.1 17.7988 107.556 18.2885 105.815 18.2885C103.802 18.2885 101.408 17.5812 99.8301 16.6562V20.3561C101.082 20.9546 102.714 21.6619 105.815 21.6619C110.114 21.6619 111.855 19.7032 111.855 16.8194Z" fill="#0050D3"/>
<path d="M56.9004 5.93726V21.4441H64.3002L65.4428 18.0707H60.4915V5.93726H56.9004Z" fill="#0050D3"/>
<path d="M42.2637 5.93726V9.25627H46.2356V21.4441H49.8811V9.25627H54.1795V5.93726H42.2637Z" fill="#0050D3"/>
<path d="M36.9855 5.93726H32.2518L26.8652 21.4441H31.0004L31.7621 18.8325C32.6871 19.1045 33.6665 19.2677 34.6459 19.2677C35.6253 19.2677 36.6046 19.1045 37.5296 18.8325L38.2914 21.4441H42.4265C42.3721 21.4441 36.9855 5.93726 36.9855 5.93726ZM34.5915 16.0031C33.8841 16.0031 33.2312 15.8943 32.6327 15.7311L34.5915 8.98422L36.5502 15.7311C35.9517 15.8943 35.2988 16.0031 34.5915 16.0031Z" fill="#0050D3"/>
<path d="M77.0868 5.93726H72.3531L66.9121 21.4441H71.0473L71.809 18.8325C72.734 19.1045 73.7134 19.2677 74.6928 19.2677C75.6721 19.2677 76.6515 19.1045 77.5765 18.8325L78.3382 21.4441H82.4734L77.0868 5.93726ZM74.6928 16.0031C73.9854 16.0031 73.3325 15.8943 72.734 15.7311L74.6928 8.98422L76.6515 15.7311C76.053 15.8943 75.4001 16.0031 74.6928 16.0031Z" fill="#0050D3"/>
<path d="M132.585 5.93726H127.851L122.465 21.4441H126.6L127.362 18.8325C128.287 19.1045 129.266 19.2677 130.245 19.2677C131.225 19.2677 132.204 19.1045 133.129 18.8325L133.891 21.4441H138.026L132.585 5.93726ZM130.245 16.0031C129.538 16.0031 128.885 15.8943 128.287 15.7311L130.245 8.98422L132.204 15.7311C131.606 15.8943 130.898 16.0031 130.245 16.0031Z" fill="#0050D3"/>
</g>
</g>
<defs>
<linearGradient id="paint0_linear_6195_25374" x1="8.64687" y1="12.7143" x2="3.77447" y2="21.1534" gradientUnits="userSpaceOnUse">
<stop stop-color="#0050D3"/>
<stop offset="0.923" stop-color="#0082FF"/>
</linearGradient>
<clipPath id="clip0_6195_25374">
<rect width="153.437" height="26.1169" fill="white" transform="translate(0.53125 0.44165)"/>
</clipPath>
</defs>
</svg>
