<svg xmlns="http://www.w3.org/2000/svg" width="20" height="21" viewBox="0 0 20 21" fill="none">
<path d="M3 11.375C3 10.8918 3.39175 10.5 3.875 10.5H5.625C6.10825 10.5 6.5 10.8918 6.5 11.375V15.75C6.5 16.2332 6.10825 16.625 5.625 16.625H3.875C3.39175 16.625 3 16.2332 3 15.75V11.375Z" fill="#FBBF24"/>
<path d="M8.25 7.875C8.25 7.39175 8.64175 7 9.125 7H10.875C11.3582 7 11.75 7.39175 11.75 7.875V15.75C11.75 16.2332 11.3582 16.625 10.875 16.625H9.125C8.64175 16.625 8.25 16.2332 8.25 15.75V7.875Z" fill="#D1D5DB"/>
<path d="M13.5 5.25C13.5 4.76675 13.8918 4.375 14.375 4.375H16.125C16.6082 4.375 17 4.76675 17 5.25V15.75C17 16.2332 16.6082 16.625 16.125 16.625H14.375C13.8918 16.625 13.5 16.2332 13.5 15.75V5.25Z" fill="#D1D5DB"/>
</svg>