<svg xmlns="http://www.w3.org/2000/svg" width="32" height="32" viewBox="0 0 32 32" fill="none">
<rect width="32" height="32" rx="6" fill="#26262B"/>
<rect width="32" height="32" rx="6" fill="url(#paint0_linear_8508_74037)" fill-opacity="0.15"/>
<rect x="0.32" y="0.32" width="31.36" height="31.36" rx="5.68" stroke="url(#paint1_linear_8508_74037)" stroke-opacity="0.2" stroke-width="0.64"/>
<path d="M21.625 17.25H10.375V24.125C10.375 24.4565 10.5067 24.7745 10.7411 25.0089C10.9755 25.2433 11.2935 25.375 11.625 25.375H20.375C20.7065 25.375 21.0245 25.2433 21.2589 25.0089C21.4933 24.7745 21.625 24.4565 21.625 24.125V17.25Z" fill="url(#paint2_linear_8508_74037)" fill-opacity="0.2" stroke="#DFDFE2" stroke-width="0.53" stroke-linecap="round" stroke-linejoin="round"/>
<path d="M22.25 13.5H9.75C9.40482 13.5 9.125 13.7798 9.125 14.125V16.625C9.125 16.9702 9.40482 17.25 9.75 17.25H22.25C22.5952 17.25 22.875 16.9702 22.875 16.625V14.125C22.875 13.7798 22.5952 13.5 22.25 13.5Z" fill="url(#paint3_linear_8508_74037)" fill-opacity="0.2" stroke="#DFDFE2" stroke-width="0.53" stroke-linecap="round" stroke-linejoin="round"/>
<path d="M16 13.5V25.375" stroke="#DFDFE2" stroke-width="0.53" stroke-linecap="round" stroke-linejoin="round"/>
<path d="M16 7.875V6.625" stroke="#DFDFE2" stroke-width="0.53" stroke-linecap="round" stroke-linejoin="round"/>
<path d="M20.375 8.75917L21.2592 7.875" stroke="#DFDFE2" stroke-width="0.53" stroke-linecap="round" stroke-linejoin="round"/>
<path d="M22.9226 11.2392L24.0776 10.7609" stroke="#DFDFE2" stroke-width="0.53" stroke-linecap="round" stroke-linejoin="round"/>
<path d="M11.6249 8.75917L10.7407 7.875" stroke="#DFDFE2" stroke-width="0.53" stroke-linecap="round" stroke-linejoin="round"/>
<path d="M9.07761 11.2392L7.92261 10.7609" stroke="#DFDFE2" stroke-width="0.53" stroke-linecap="round" stroke-linejoin="round"/>
<defs>
<linearGradient id="paint0_linear_8508_74037" x1="18.5" y1="18" x2="0.555578" y2="-2.90123" gradientUnits="userSpaceOnUse">
<stop stop-color="#26262B"/>
<stop offset="0.5" stop-color="white" stop-opacity="0.84"/>
<stop offset="1" stop-color="white" stop-opacity="0.31"/>
</linearGradient>
<linearGradient id="paint1_linear_8508_74037" x1="16" y1="0" x2="16" y2="32" gradientUnits="userSpaceOnUse">
<stop stop-color="white"/>
<stop offset="1" stop-color="white" stop-opacity="0"/>
</linearGradient>
<linearGradient id="paint2_linear_8508_74037" x1="17.9339" y1="17.2429" x2="12.7938" y2="31.4269" gradientUnits="userSpaceOnUse">
<stop stop-color="white"/>
<stop offset="1" stop-color="white" stop-opacity="0"/>
</linearGradient>
<linearGradient id="paint3_linear_8508_74037" x1="18.3636" y1="13.4967" x2="17.3688" y2="20.7667" gradientUnits="userSpaceOnUse">
<stop stop-color="white"/>
<stop offset="1" stop-color="white" stop-opacity="0"/>
</linearGradient>
</defs>
</svg>