<svg xmlns="http://www.w3.org/2000/svg" width="16" height="16" viewBox="0 0 16 16" fill="none">
<path d="M2.39844 8.69998C2.39844 8.31338 2.71184 7.99998 3.09844 7.99998H4.49844C4.88504 7.99998 5.19844 8.31338 5.19844 8.69998V12.2C5.19844 12.5866 4.88504 12.9 4.49844 12.9H3.09844C2.71184 12.9 2.39844 12.5866 2.39844 12.2V8.69998Z" fill="#60616C"/>
<path d="M6.59844 5.89998C6.59844 5.51338 6.91184 5.19998 7.29844 5.19998H8.69844C9.08504 5.19998 9.39844 5.51338 9.39844 5.89998V12.2C9.39844 12.5866 9.08504 12.9 8.69844 12.9H7.29844C6.91184 12.9 6.59844 12.5866 6.59844 12.2V5.89998Z" fill="#60616C"/>
<path d="M10.7984 3.79998C10.7984 3.41338 11.1118 3.09998 11.4984 3.09998H12.8984C13.285 3.09998 13.5984 3.41338 13.5984 3.79998V12.2C13.5984 12.5866 13.285 12.9 12.8984 12.9H11.4984C11.1118 12.9 10.7984 12.5866 10.7984 12.2V3.79998Z" fill="#60616C"/>
</svg>