<svg xmlns="http://www.w3.org/2000/svg" width="144" height="60" viewBox="0 0 144 60" fill="none">
<g clip-path="url(#clip0_6848_51911)">
<path d="M44.2138 21.6257C44.1984 21.4874 44.0755 21.426 43.9833 21.4106C43.8911 21.3952 42.0474 21.3799 42.0474 21.3799C42.0474 21.3799 40.4956 19.8742 40.342 19.7205C40.1883 19.5669 39.8964 19.613 39.7735 19.6437C39.7735 19.6437 39.4816 19.7359 38.9899 19.8895C38.9131 19.6284 38.7902 19.3057 38.6212 18.9831C38.0681 17.9229 37.2692 17.3698 36.2859 17.3698C36.2244 17.3698 36.1476 17.3698 36.0861 17.3852C36.0554 17.3545 36.0247 17.3237 35.9939 17.2776C35.5637 16.8167 35.026 16.6016 34.3807 16.617C33.1208 16.6477 31.8763 17.5542 30.8469 19.1828C30.1248 20.3197 29.5871 21.7486 29.4334 22.8548C27.9892 23.3004 26.9752 23.6077 26.9598 23.623C26.2377 23.8535 26.207 23.8689 26.1148 24.5602C26.038 25.0673 24.1328 39.8322 24.1328 39.8322L40.1269 42.5978L47.0561 40.877C47.0561 40.877 44.2291 21.7486 44.2138 21.6257ZM38.191 20.1354C37.8223 20.2429 37.4074 20.3812 36.9465 20.5195C36.9312 19.8895 36.8543 18.9984 36.5624 18.2302C37.5304 18.4146 37.9913 19.4901 38.191 20.1354ZM36.1169 20.7807C35.2718 21.0419 34.3653 21.3184 33.4435 21.6103C33.7047 20.627 34.1963 19.6437 34.7955 18.9984C35.026 18.7526 35.3333 18.4914 35.702 18.3378C36.0554 19.0599 36.1169 20.0893 36.1169 20.7807ZM34.3961 17.462C34.688 17.462 34.9338 17.5235 35.1489 17.6617C34.8109 17.8307 34.4729 18.0919 34.1656 18.4299C33.3667 19.2903 32.7521 20.6117 32.5063 21.9022C31.7381 22.1327 31.0006 22.3632 30.3092 22.5783C30.7701 20.5502 32.4602 17.5235 34.3961 17.462Z" fill="#636166"/>
<path d="M43.9853 21.4102C43.8931 21.3948 42.0494 21.3794 42.0494 21.3794C42.0494 21.3794 40.4976 19.8738 40.344 19.7201C40.2825 19.6587 40.2057 19.6279 40.1289 19.6279V42.5973L47.0581 40.8766C47.0581 40.8766 44.2311 21.7635 44.2158 21.6253C44.185 21.487 44.0775 21.4255 43.9853 21.4102Z" fill="#4A484C"/>
<path d="M36.2878 24.9742L35.4889 27.9856C35.4889 27.9856 34.5977 27.5707 33.5223 27.6476C31.9551 27.7397 31.9397 28.7231 31.9551 28.9842C32.0473 30.3363 35.581 30.6282 35.7808 33.7779C35.9344 36.2669 34.4595 37.9569 32.3392 38.0952C29.7888 38.2488 28.3906 36.7585 28.3906 36.7585L28.9284 34.4692C28.9284 34.4692 30.3419 35.5294 31.4635 35.4679C32.2009 35.4218 32.4621 34.8226 32.4314 34.3924C32.3238 32.6409 29.4354 32.7331 29.251 29.86C29.0974 27.4325 30.6952 24.9742 34.2136 24.7437C35.5964 24.6208 36.2878 24.9742 36.2878 24.9742Z" fill="#171618"/>
<path d="M56.4415 31.3965C55.6426 30.9663 55.2277 30.5975 55.2277 30.0905C55.2277 29.4452 55.7962 29.0304 56.7027 29.0304C57.7475 29.0304 58.6693 29.4606 58.6693 29.4606L59.4068 27.2174C59.4068 27.2174 58.7308 26.695 56.7488 26.695C53.9832 26.695 52.0627 28.2775 52.0627 30.5053C52.0627 31.7652 52.9538 32.7332 54.1522 33.4245C55.1202 33.9776 55.4582 34.3618 55.4582 34.9456C55.4582 35.5448 54.9819 36.0211 54.0754 36.0211C52.7387 36.0211 51.4789 35.3297 51.4789 35.3297L50.6953 37.5729C50.6953 37.5729 51.863 38.3564 53.8142 38.3564C56.6566 38.3564 58.7 36.9583 58.7 34.4386C58.7154 33.0712 57.686 32.1032 56.4415 31.3965ZM67.7802 26.6643C66.3821 26.6643 65.2759 27.325 64.4309 28.339L64.3848 28.3236L65.5985 21.9629H62.4335L59.3607 38.1413H62.5257L63.5858 32.6102C64.0007 30.5207 65.0762 29.2301 66.0902 29.2301C66.7969 29.2301 67.0735 29.7064 67.0735 30.3978C67.0735 30.828 67.0274 31.3657 66.9352 31.7959L65.7368 38.126H68.9018L70.1463 31.5808C70.2846 30.8895 70.3768 30.0598 70.3768 29.522C70.3768 27.7552 69.4242 26.6643 67.7802 26.6643ZM77.5365 26.6643C73.7262 26.6643 71.2065 30.1059 71.2065 33.9469C71.2065 36.4052 72.7275 38.3718 75.5699 38.3718C79.3034 38.3718 81.8384 35.0224 81.8384 31.0892C81.8231 28.8307 80.4864 26.6643 77.5365 26.6643ZM75.9693 35.9443C74.8938 35.9443 74.4329 35.0224 74.4329 33.8855C74.4329 32.0725 75.3701 29.1072 77.0909 29.1072C78.2125 29.1072 78.5812 30.0752 78.5812 31.0124C78.5812 32.9636 77.644 35.9443 75.9693 35.9443ZM89.92 26.6643C87.7844 26.6643 86.5706 28.5387 86.5706 28.5387H86.5245L86.7089 26.8333H83.9126C83.7743 27.9856 83.5285 29.7218 83.2673 31.0277L81.0702 42.6123H84.2353L85.111 37.9262H85.1725C85.1725 37.9262 85.8178 38.3411 87.0315 38.3411C90.7497 38.3411 93.1772 34.5308 93.1772 30.6744C93.1926 28.5695 92.24 26.6643 89.92 26.6643ZM86.8933 35.9904C86.0636 35.9904 85.5873 35.5294 85.5873 35.5294L86.1097 32.5641C86.4784 30.5975 87.5078 29.2762 88.614 29.2762C89.582 29.2762 89.8739 30.1673 89.8739 31.0277C89.8739 33.0712 88.6601 35.9904 86.8933 35.9904ZM97.7096 22.1319C96.6956 22.1319 95.8966 22.9308 95.8966 23.9756C95.8966 24.9128 96.4958 25.5581 97.387 25.5581H97.4331C98.4164 25.5581 99.2768 24.8974 99.2921 23.7144C99.2921 22.7925 98.6776 22.1319 97.7096 22.1319ZM93.2847 38.1413H96.4498L98.6007 26.9255H95.405L93.2847 38.1413ZM106.652 26.8948H104.454L104.562 26.3724C104.746 25.2969 105.392 24.329 106.436 24.329C107.005 24.329 107.45 24.4826 107.45 24.4826L108.065 22.009C108.065 22.009 107.512 21.7324 106.344 21.7324C105.223 21.7324 104.101 22.0551 103.241 22.7925C102.165 23.7144 101.658 25.0357 101.397 26.3724L101.305 26.8948H99.8299L99.3689 29.2762H100.844L99.1692 38.1413H102.334L104.009 29.2762H106.191L106.652 26.8948ZM114.272 26.9255C114.272 26.9255 112.29 31.9189 111.399 34.6383H111.353C111.292 33.7625 110.569 26.9255 110.569 26.9255H107.251L109.156 37.2348C109.202 37.4653 109.171 37.6036 109.094 37.7572C108.726 38.464 108.111 39.1554 107.374 39.6624C106.774 40.0926 106.114 40.3691 105.576 40.5535L106.452 43.2422C107.097 43.104 108.418 42.5816 109.555 41.5214C111 40.1694 112.336 38.0799 113.704 35.2375L117.575 26.9255H114.272Z" fill="#636166"/>
</g>
<defs>
<clipPath id="clip0_6848_51911">
<rect width="93.414" height="26.6875" fill="white" transform="translate(24.1328 16.5703)"/>
</clipPath>
</defs>
</svg>