<svg xmlns="http://www.w3.org/2000/svg" width="90" height="38" viewBox="0 0 90 38" fill="none">
<g clip-path="url(#clip0_8882_59541)">
<path d="M3.7131 17.991C3.6807 17.9486 3.63789 17.9152 3.58881 17.8942C3.53973 17.8732 3.48605 17.8652 3.43297 17.871C3.37989 17.8768 3.32921 17.8962 3.28584 17.9273C3.24247 17.9585 3.20788 18.0003 3.18542 18.0488L0.50907 23.4015C0.484624 23.4502 0.473033 23.5043 0.475399 23.5588C0.477765 23.6133 0.494008 23.6662 0.522587 23.7126C0.551166 23.7591 0.591133 23.7974 0.638695 23.824C0.686258 23.8507 0.739837 23.8647 0.79435 23.8648H4.52112C4.58145 23.866 4.64079 23.8494 4.69179 23.8172C4.74279 23.7849 4.78321 23.7384 4.80805 23.6834C5.61112 22.0344 5.12466 19.4999 3.7131 17.991Z" fill="#636166"/>
<path d="M5.67721 13.1298C5.01003 14.1561 4.62121 15.3384 4.54894 16.5604C4.47666 17.7824 4.72341 19.0023 5.26495 20.1001L7.07062 23.6834C7.09695 23.7367 7.13759 23.7815 7.18797 23.813C7.23836 23.8444 7.2965 23.8613 7.3559 23.8615H11.0827C11.1349 23.8572 11.1854 23.8405 11.2299 23.8128C11.2744 23.7851 11.3116 23.7472 11.3385 23.7022C11.3655 23.6573 11.3813 23.6065 11.3847 23.5542C11.3881 23.5019 11.3789 23.4495 11.3581 23.4015L6.22138 13.1298C6.19678 13.0785 6.15818 13.0352 6.11004 13.0049C6.0619 12.9746 6.00618 12.9585 5.94929 12.9585C5.89241 12.9585 5.83669 12.9746 5.78855 13.0049C5.7404 13.0352 5.70181 13.0785 5.67721 13.1298Z" fill="#636166"/>
<path d="M84.4111 18.8352L87.1171 23.8647H89.5214V14.8875H87.6086V20.6804L86.8846 19.0001L84.7112 14.8875H81.6919V23.8647H83.6048V17.018L84.4111 18.8352Z" fill="#636166"/>
<path d="M69.525 14.8875H67.4341V23.8647H69.525V14.8875Z" fill="#636166"/>
<path d="M65.0212 21.2099C65.0212 19.6384 64.1884 18.9013 61.8369 18.395C60.5392 18.1081 60.2258 17.8212 60.2258 17.4056C60.2258 16.8862 60.6892 16.6669 61.545 16.6669C62.5839 16.6669 63.6096 16.9818 64.5792 17.4188V15.3658C63.6481 14.9418 62.6339 14.7317 61.611 14.7507C59.2876 14.7507 58.0854 15.7615 58.0854 17.4155C58.0854 18.7347 58.7005 19.7917 61.1048 20.2568C62.5394 20.5569 62.8412 20.7894 62.8412 21.2676C62.8412 21.7458 62.5394 22.0327 61.522 22.0327C60.3007 22.0104 59.1039 21.687 58.0376 21.0912V23.2497C58.7615 23.6042 59.7179 24 61.5005 24C64.0136 24 65.0113 22.8803 65.0113 21.2132" fill="#636166"/>
<path d="M56.3182 21.2099C56.3182 19.6384 55.4937 18.9013 53.1356 18.395C51.8379 18.1081 51.5229 17.8212 51.5229 17.4056C51.5229 16.8862 51.9879 16.6669 52.8421 16.6669C53.881 16.6669 54.905 16.9818 55.8746 17.4188V15.3658C54.9435 14.9418 53.9293 14.7317 52.9064 14.7507C50.5846 14.7507 49.3808 15.7615 49.3808 17.4155C49.3808 18.7347 49.9959 19.7917 52.4018 20.2568C53.8365 20.5569 54.1366 20.7894 54.1366 21.2676C54.1366 21.7458 53.8365 22.0327 52.8174 22.0327C51.5961 22.0104 50.3993 21.687 49.333 21.0912V23.2497C50.0586 23.6042 51.015 24 52.7959 24C55.3107 24 56.3067 22.8803 56.3067 21.2132" fill="#636166"/>
<path d="M35.2555 21.9238V14.8875H33.1514V23.8647H37.4487L38.1248 21.9238H35.2555Z" fill="#636166"/>
<path d="M29.0878 23.8647V16.8267H31.5745V14.8875H24.6602V16.8267H26.9836V23.8647H29.0878Z" fill="#636166"/>
<path d="M21.6095 14.8875H18.8524L15.7192 23.8647H18.1186L18.5638 22.3525C19.6565 22.6736 20.8186 22.6736 21.9113 22.3525L22.3549 23.8647H24.7459L21.6095 14.8875ZM20.2309 20.7349C19.8403 20.7354 19.4515 20.6799 19.0766 20.5699L20.2309 16.6519L21.3852 20.5699C21.0103 20.6798 20.6216 20.7353 20.2309 20.7349Z" fill="#636166"/>
<path d="M44.8556 14.8875H42.0985L38.9653 23.8647H41.3564L41.8016 22.3525C42.8944 22.6736 44.0564 22.6736 45.1491 22.3525L45.5927 23.8647H47.9838L44.8556 14.8875ZM43.477 20.7349C43.0863 20.7356 42.6976 20.68 42.3227 20.5699L43.477 16.6519L44.6313 20.5699C44.2565 20.68 43.8677 20.7356 43.477 20.7349Z" fill="#636166"/>
<path d="M77.0578 14.8875H74.3006L71.1675 23.8647H73.5585L74.0021 22.3525C75.0949 22.6736 76.2569 22.6736 77.3496 22.3525L77.7932 23.8647H80.1859L77.0578 14.8875ZM75.6792 20.7349C75.2885 20.7353 74.8998 20.6798 74.5249 20.5699L75.6792 16.6519L76.8335 20.5699C76.4586 20.6798 76.0699 20.7353 75.6792 20.7349Z" fill="#636166"/>
</g>
<defs>
<clipPath id="clip0_8882_59541">
<rect width="89.046" height="11.0415" fill="white" transform="translate(0.475098 12.9585)"/>
</clipPath>
</defs>
</svg>