<svg xmlns="http://www.w3.org/2000/svg" width="144" height="60" viewBox="0 0 144 60" fill="none">
<g clip-path="url(#clip0_6848_51940)">
<path d="M40.2314 27.5327L37.1066 27.5327L35.2317 24.1209C33.3581 23.2627 31.4454 22.7021 29.9221 22.7021C28.4729 22.7021 27.2963 23.0947 26.5137 24.0356C25.9623 24.7042 25.6875 25.5297 25.6875 26.5114C25.6875 29.458 28.0009 33.5466 31.9604 36.8817C35.4901 39.8296 39.3731 41.4804 42.1993 41.4804C43.6093 41.4804 44.7467 41.0478 45.4932 40.1845C46.0809 39.5164 46.3151 38.6501 46.3151 37.6683C46.3151 34.8053 43.9851 30.7916 40.2314 27.5327Z" fill="#302F32"/>
<path d="M107.876 30.4907C106.717 30.4907 105.884 29.4548 105.884 28.0401C105.884 26.2464 106.842 24.8063 108.381 24.8063C109.642 24.8063 110.474 25.8422 110.474 27.2569C110.474 29.1517 109.389 30.4907 107.876 30.4907ZM111.684 20.7136L111.407 22.1284C110.701 21.0673 109.44 20.4609 107.776 20.4609C103.791 20.4609 100.941 23.9979 100.941 28.7222C100.941 32.1328 103.136 34.7602 106.212 34.7602C107.649 34.7602 108.91 34.0781 109.768 32.9665L109.515 34.4823H113.752L116.174 20.7136H111.684Z" fill="#636166"/>
<path d="M54.4851 26.1449H50.3747C50.7782 24.907 51.5346 24.3006 52.6443 24.3006C54.2329 24.3006 54.4851 25.4881 54.4851 25.8923V26.1449ZM53.0225 20.3848C47.4745 20.3848 45.1797 24.907 45.1797 28.5449C45.1797 30.7934 46.6424 34.8103 51.9381 34.8103C54.8886 34.8103 56.7045 33.5724 57.688 31.8798L54.1826 29.7576C53.6025 30.5407 52.947 30.8945 52.1147 30.8945C50.9546 30.8945 50.0971 30.3134 50.0467 28.8228H58.9236C59.0498 28.3176 59.1757 27.5596 59.1757 26.3471C59.1757 23.0879 56.881 20.3848 53.0225 20.3848Z" fill="#636166"/>
<path d="M99.9609 20.5117C99.1035 20.5117 97.4643 20.8654 96.6069 22.2802L96.8087 20.7139H92.6476L90.2266 34.4826H95.2449L96.4304 27.6614C96.733 26.2718 97.9686 25.2614 99.3053 25.2614C99.7592 25.2614 99.9862 25.2866 100.213 25.3624L101.146 20.6634C100.869 20.5623 100.339 20.5117 99.9609 20.5117Z" fill="#636166"/>
<path d="M86.5126 24.6799H89.5388L90.245 20.7136H87.1935L87.7484 17.3535H82.8306L80.9898 28.1664C80.2585 32.4107 83.1333 34.5581 86.4117 34.5581C87.1683 34.5581 87.6221 34.4823 87.8491 34.4319L88.5805 30.2633C88.5048 30.2885 88.2526 30.3391 87.9501 30.3391C86.7144 30.3391 85.6805 29.6823 85.9578 28.0653L86.5126 24.6799Z" fill="#636166"/>
<path d="M62.8945 16.5703L59.7422 34.4824H64.7355L67.8876 16.5703H62.8945Z" fill="#636166"/>
<path d="M73.9229 23.947C74.8307 23.947 75.3098 24.4017 75.6378 25.2607L79.9753 24.3512C79.5971 21.9764 77.6047 20.3848 74.3769 20.3848C70.3923 20.3848 68.1984 22.7596 68.1984 25.387C68.1984 27.1807 69.3079 28.3934 71.6531 28.924L73.6706 29.3787C74.5533 29.5808 74.7047 29.9345 74.7047 30.3135C74.7047 30.844 74.2759 31.2482 73.469 31.2482C72.5106 31.2482 71.7541 30.7934 71.5271 29.7576L67.2148 30.6924C67.4922 33.6231 70.4678 34.8104 73.141 34.8104C77.05 34.8104 79.2691 32.8146 79.2691 29.9597C79.2691 28.065 78.1847 26.7513 75.8648 26.246L73.8725 25.8165C72.914 25.6144 72.6368 25.4123 72.6368 24.8818C72.6368 24.4017 73.0402 23.947 73.9229 23.947Z" fill="#636166"/>
<path d="M32.2374 16.5703C31.5306 16.5703 30.9432 17.0455 30.7867 17.7915L30.1602 21.2072H35.7592L33.3557 34.4854H37.8083C38.4025 34.4854 39.0718 34.2098 39.2703 33.1915L41.3065 21.2072H45.3338C46.0434 21.2072 46.6293 20.7353 46.7865 19.9901L47.415 16.5703H32.2374Z" fill="#636166"/>
</g>
<defs>
<clipPath id="clip0_6848_51940">
<rect width="90.4869" height="24.9104" fill="white" transform="translate(25.6875 16.5703)"/>
</clipPath>
</defs>
</svg>