<svg xmlns="http://www.w3.org/2000/svg" width="144" height="60" viewBox="0 0 144 60" fill="none">
<g clip-path="url(#clip0_6848_51917)">
<path d="M43.7343 17.7539H28.2028C26.0497 17.7539 24.3047 19.4989 24.3047 21.652V37.1835C24.3047 39.3366 26.0497 41.0816 28.2028 41.0816H43.7343C45.8874 41.0816 47.6324 39.3366 47.6324 37.1835V21.652C47.6324 19.4989 45.8874 17.7539 43.7343 17.7539ZM43.3918 35.6097C43.3918 36.2899 42.8407 36.8411 42.1605 36.8411H29.7766C29.0964 36.8411 28.5452 36.2899 28.5452 35.6097V23.2258C28.5452 22.5456 29.0964 21.9945 29.7766 21.9945H42.1605C42.8407 21.9945 43.3918 22.5456 43.3918 23.2258V35.6097ZM33.4941 32.5841C33.1024 32.5841 32.7881 32.2675 32.7881 31.8758V26.9316C32.7881 26.5399 33.1024 26.2209 33.4941 26.2209H38.4453C38.8347 26.2209 39.1513 26.5376 39.1513 26.9316V31.8734C39.1513 32.2651 38.8347 32.5818 38.4453 32.5818H33.4941V32.5841ZM53.8173 32.2464H56.3645C56.4911 33.6888 57.4692 34.8146 59.4417 34.8146C61.2031 34.8146 62.2867 33.9445 62.2867 32.6287C62.2867 31.3973 61.4376 30.8461 59.9084 30.4849L57.9336 30.0604C55.7898 29.5937 54.1762 28.2146 54.1762 25.9629C54.1762 23.4791 56.3832 21.781 59.2493 21.781C62.2843 21.781 64.2381 23.3736 64.407 25.7284H61.9443C61.6511 24.626 60.7364 23.9693 59.2517 23.9693C57.6802 23.9693 56.599 24.8184 56.599 25.902C56.599 26.9855 57.5325 27.6423 59.1461 28.0035L61.0999 28.428C63.2436 28.8947 64.7072 30.1894 64.7072 32.4598C64.7072 35.347 62.5423 37.0662 59.444 37.0662C55.961 37.0639 54.0308 35.1758 53.8173 32.2464ZM73.8192 41.0816V36.8575L73.9857 35.0046H73.8192C73.2352 36.3368 72.0085 37.0662 70.3433 37.0662C67.6577 37.0662 65.6594 34.8803 65.6594 31.5287C65.6594 28.177 67.6577 25.9911 70.3433 25.9911C71.9874 25.9911 73.1531 26.7604 73.8192 27.9683H73.9857V26.1975H76.1928V41.0816H73.8192ZM73.9013 31.5263C73.9013 29.3826 72.5902 28.1325 70.9859 28.1325C69.3816 28.1325 68.0705 29.3826 68.0705 31.5263C68.0705 33.67 69.3816 34.9202 70.9859 34.9202C72.5902 34.9202 73.9013 33.6724 73.9013 31.5263ZM77.9542 32.631V26.1975H80.3278V32.4223C80.3278 34.1086 81.1393 34.9202 82.4926 34.9202C84.1579 34.9202 85.2415 33.7334 85.2415 31.8805V26.1975H87.6151V36.8551H85.408V34.6481H85.2415C84.7208 36.0647 83.5762 37.0639 81.8078 37.0639C79.2653 37.0639 77.9542 35.4408 77.9542 32.631ZM89.0598 33.8788C89.0598 31.8805 90.4554 30.7148 92.9322 30.5694L95.8663 30.3817V29.5491C95.8663 28.5499 95.1369 27.9472 93.8469 27.9472C92.6601 27.9472 91.9518 28.5499 91.7641 29.4037H89.3905C89.6415 27.2389 91.4311 25.9887 93.8445 25.9887C96.5723 25.9887 98.2375 27.1544 98.2375 29.4037V36.8551H96.0305V34.8779H95.864C95.3644 36.189 94.323 37.0639 92.3247 37.0639C90.4132 37.0639 89.0598 35.7739 89.0598 33.8788ZM95.8686 32.5677V32.0048L93.474 32.1713C92.184 32.2534 91.5999 32.7342 91.5999 33.6911C91.5999 34.5027 92.2661 35.0867 93.2019 35.0867C94.8906 35.0867 95.8686 34.0054 95.8686 32.5677ZM100.008 36.8575V26.1975H102.215V28.238H102.382C102.694 26.8425 103.756 26.1975 105.337 26.1975H106.421V28.3412H105.067C103.526 28.3412 102.382 29.3404 102.382 31.2355V36.8551H100.008V36.8575ZM117.28 31.9649H109.181C109.306 33.921 110.68 35.0257 112.2 35.0257C113.49 35.0257 114.301 34.505 114.761 33.6302H117.114C116.469 35.795 114.574 37.0639 112.179 37.0639C109.036 37.0639 106.829 34.7114 106.829 31.5263C106.829 28.3412 109.097 25.9887 112.2 25.9887C115.322 25.9887 117.362 28.1325 117.362 30.7969C117.365 31.3199 117.322 31.5896 117.28 31.9649ZM115.012 30.3208C114.93 28.8431 113.701 27.844 112.202 27.844C110.786 27.844 109.601 28.7399 109.308 30.3208H115.012Z" fill="#636166"/>
</g>
<defs>
<clipPath id="clip0_6848_51917">
<rect width="93.414" height="23.3535" fill="white" transform="translate(24.1289 17.7539)"/>
</clipPath>
</defs>
</svg>