<svg xmlns="http://www.w3.org/2000/svg" width="144" height="60" viewBox="0 0 144 60" fill="none">
<path fill-rule="evenodd" clip-rule="evenodd" d="M65.8921 27.4397C65.8921 26.819 65.5894 26.4398 65.2219 26.4398C64.3562 26.4398 63.6613 27.68 62.6284 30.1898L61.3281 29.641C62.7862 25.8567 64.3562 24.0335 66.7259 24.0335C68.9201 24.0335 70.2475 25.653 70.2475 28.4714C70.2475 29.568 70.0202 30.7693 69.6457 32.185L68.8883 35.1365C68.6186 36.0976 68.555 36.789 68.555 37.1623C68.555 37.9196 68.8883 38.3307 69.4207 38.3307C70.3547 38.3307 71.1838 36.9904 72.0813 34.3486L73.3145 34.9646C72.2768 38.8536 70.5149 40.7758 67.9508 40.7758C65.5611 40.7758 64.0889 39.1917 64.0889 36.478C64.0889 35.0023 64.5258 33.3922 64.9887 31.4618L65.5894 29.0226C65.7566 28.3336 65.8921 27.8131 65.8921 27.4397ZM67.336 17.2754C68.8306 17.2754 69.9578 18.4355 69.9578 19.9242C69.9578 21.3859 68.7988 22.5778 67.336 22.5778C65.8791 22.5778 64.686 21.3859 64.686 19.9242C64.686 18.4614 65.8791 17.2754 67.336 17.2754Z" fill="#969499"/>
<path fill-rule="evenodd" clip-rule="evenodd" d="M78.2707 17.2754V24.9711C79.0834 24.1054 80.3059 23.7014 81.6297 23.7014C85.527 23.7014 87.9533 26.8131 87.9533 31.7975C87.9533 35.0376 86.9604 37.5628 84.9947 39.1163C83.9099 39.9867 82.8158 40.3671 81.5049 40.3588C80.002 40.3565 78.8949 39.936 77.9904 38.9337C77.9904 38.9337 77.9221 39.4731 77.7207 40.0467H74.192L74.1894 34.2249V17.2754H78.2707ZM83.0301 29.1793C82.7274 27.8107 81.8476 27.157 80.7582 27.157C79.6734 27.157 78.9197 27.8378 78.3991 28.429V35.7831C78.9503 36.2837 79.611 36.8113 80.7323 36.8113C81.7605 36.8113 82.42 36.4027 82.7581 35.5664C83.1326 34.689 83.2127 33.8469 83.2127 31.887C83.2127 30.4584 83.1891 29.8648 83.0301 29.1793ZM56.875 40.0467C56.6936 39.6934 56.5888 39.0621 56.5888 39.0621C55.6843 39.8017 54.2627 40.4554 53.0496 40.4554C49.0062 40.4554 46.4434 37.3072 46.4434 32.3605C46.4434 27.3749 49.2194 23.944 53.2663 23.944C54.4205 23.944 55.3215 24.2279 56.0941 24.8486V17.2754H60.1222V40.0467H56.875ZM56.0411 28.3089C55.2673 27.6223 54.5159 27.2795 53.7668 27.2795C51.893 27.2795 51.0838 28.8401 51.0838 32.3923C51.0838 35.8149 51.8035 36.9327 53.9824 36.9327C54.7621 36.9327 55.6348 36.4015 56.0411 35.9103V28.3089ZM103.325 24.8874L107.081 23.8592C107.278 24.1478 107.644 25.0441 107.644 25.6942C108.613 25.0099 108.797 24.8827 109.486 24.507C110.319 24.0724 111.411 23.8286 112.355 23.8286C114.127 23.8286 115.685 24.7591 116.187 26.1276C116.402 26.7189 116.491 27.4079 116.491 28.4019V40.0479H112.385V29.6798C112.385 27.8767 112.07 27.3466 110.985 27.3466C110.137 27.3466 109.051 27.9096 108.084 28.7753V40.0479H103.908V28.4985C103.908 26.0193 103.524 25.2443 103.325 24.8874ZM25.3916 40.0467V29.5526C25.3916 27.6564 25.1713 27.2795 24.0795 27.2795C23.3081 27.2795 22.221 27.8107 21.32 28.6175V40.0467H17.372V29.701C17.372 27.7141 17.0953 27.243 15.9434 27.243C15.1625 27.243 14.1096 27.6564 13.2097 28.4597V40.0467H9.1393V28.9579C9.1393 26.6553 8.98029 25.6612 8.54688 24.8874L12.3052 23.8604C12.5831 24.2985 12.7068 24.6695 12.8694 25.4799C13.9553 24.4187 15.2932 23.8604 16.749 23.8604C18.0552 23.8604 19.1434 24.2985 19.9855 25.163C20.1999 25.3774 20.4166 25.6612 20.6003 25.9451C22.0691 24.4575 23.374 23.8604 25.1089 23.8604C26.3515 23.8604 27.5316 24.2385 28.2465 24.8615C29.1428 25.633 29.4267 26.5587 29.4267 28.7388V40.0467H25.3916ZM97.4957 32.8987H97.3179C94.4158 32.8987 93.4147 33.4287 93.4147 35.3226C93.4147 36.5675 94.1956 37.4073 95.2626 37.4073C96.0341 37.4073 96.8173 37.0057 97.4333 36.3167L97.4957 32.8987ZM97.9256 38.8678C97.683 39.2046 97.5134 39.4625 96.6571 39.8866C96.2261 40.1021 95.3239 40.4554 94.298 40.4554C90.7493 40.4554 88.9579 38.7688 88.9579 35.5876C88.9579 31.8529 91.5479 30.0991 96.6301 30.0991C96.9422 30.0991 97.1212 30.0991 97.5652 30.1404V29.489C97.5652 27.7047 97.2189 27.1158 95.6949 27.1158C94.3522 27.1158 92.794 27.7742 91.0815 28.9237L89.3089 25.9298C90.3289 25.2785 90.7694 25.0641 91.8871 24.626C93.4477 23.9711 94.7951 23.6908 96.2496 23.6908C98.9338 23.6908 100.765 24.6848 101.391 26.4633C101.607 27.1158 101.673 27.6164 101.673 29.33L101.574 34.6854C101.574 34.7773 101.579 36.7348 101.579 36.7006C101.579 38.0221 101.641 39.3895 102 40.055H98.3305C98.1043 39.7758 97.9256 38.8678 97.9256 38.8678ZM118.763 40.0479H122.939V17.2766H118.763L118.763 40.0479ZM127.115 24.043H132.126L127.185 30.8859L133.309 40.0467H128.386L123.031 31.019L127.115 24.043ZM43.1609 35.8161L44.785 38.3107C42.9489 39.8017 41.0208 40.5178 38.7795 40.5178C34.1955 40.5178 31.2405 37.2789 31.2405 32.2604C31.2405 29.4007 31.8341 27.4986 33.2321 25.9451C34.5406 24.4776 36.1236 23.7933 38.2483 23.7933C40.0845 23.7933 41.8288 24.4151 42.857 25.4704C44.3151 26.9674 44.9711 29.1192 44.9711 32.4535V33.4217H35.7526V33.5442C35.7526 36.0022 36.961 37.405 39.1175 37.405C40.5544 37.405 41.8889 36.8726 43.1609 35.8161ZM35.8174 30.363H40.6463V30.1745C40.6463 28.992 40.5179 28.369 40.1445 27.7801C39.7406 27.157 39.1493 26.8461 38.306 26.8461C36.7231 26.8461 35.8174 28.0887 35.8174 30.3053V30.363Z" fill="#636166"/>
</svg>