<svg xmlns="http://www.w3.org/2000/svg" width="20" height="21" viewBox="0 0 20 21" fill="none">
<path d="M4.04501 8.61904C3.83542 10.2223 3.7081 11.8514 3.66744 13.5021C5.89533 14.4322 8.01433 15.5712 9.99996 16.8944C11.9856 15.5712 14.1046 14.4322 16.3325 13.5021C16.2918 11.8514 16.1645 10.2223 15.9549 8.61907M4.04501 8.61904C3.37132 8.39259 2.68947 8.18394 2 7.99363C4.4967 6.24359 7.17461 4.73446 10 3.5C12.8254 4.73446 15.5033 6.24359 18 7.99364C17.3105 8.18395 16.6286 8.39262 15.9549 8.61907M4.04501 8.61904C6.11232 9.31391 8.1027 10.1763 10 11.1901C11.8973 10.1763 13.8876 9.31394 15.9549 8.61907M5.9611 12.3528C6.27976 12.3528 6.53808 12.0944 6.53808 11.7758C6.53808 11.4571 6.27976 11.1988 5.9611 11.1988C5.64245 11.1988 5.38412 11.4571 5.38412 11.7758C5.38412 12.0944 5.64245 12.3528 5.9611 12.3528ZM5.9611 12.3528V9.52515C7.26237 8.71662 8.61031 7.97613 9.99996 7.30864M4.60915 16.1936C5.51045 15.2923 5.9611 14.111 5.9611 12.9297V11.7758" stroke="#26262B" stroke-linecap="round" stroke-linejoin="round"/>
</svg>