<svg xmlns="http://www.w3.org/2000/svg" width="32" height="33" viewBox="0 0 32 33" fill="none">
<rect y="0.5" width="32" height="32" rx="6" fill="#26262B"/>
<rect y="0.5" width="32" height="32" rx="6" fill="url(#paint0_linear_8508_73933)" fill-opacity="0.15"/>
<rect x="0.32" y="0.82" width="31.36" height="31.36" rx="5.68" stroke="url(#paint1_linear_8508_73933)" stroke-opacity="0.2" stroke-width="0.64"/>
<path fill-rule="evenodd" clip-rule="evenodd" d="M16 16.5C16 15.0273 17.1939 13.8334 18.6667 13.8334C20.1394 13.8334 21.3333 15.0273 21.3333 16.5C21.3333 17.9728 20.1394 19.1667 18.6667 19.1667C17.1939 19.1667 16 17.9728 16 16.5Z" fill="url(#paint2_linear_8508_73933)" fill-opacity="0.6" stroke="#DFDFE2" stroke-width="0.533333"/>
<path fill-rule="evenodd" clip-rule="evenodd" d="M10.6667 21.8333C10.6667 20.3605 11.8607 19.1666 13.3334 19.1666H16.0001V21.8333C16.0001 23.3061 14.8062 24.5 13.3334 24.5C11.8607 24.5 10.6667 23.3061 10.6667 21.8333Z" fill="url(#paint3_linear_8508_73933)" fill-opacity="0.6" stroke="#DFDFE2" stroke-width="0.533333"/>
<path fill-rule="evenodd" clip-rule="evenodd" d="M16 8.5V13.8333H18.6667C20.1394 13.8333 21.3333 12.6394 21.3333 11.1667C21.3333 9.69391 20.1394 8.5 18.6667 8.5H16Z" fill="url(#paint4_linear_8508_73933)" fill-opacity="0.6" stroke="#DFDFE2" stroke-width="0.533333"/>
<path fill-rule="evenodd" clip-rule="evenodd" d="M10.6667 11.1667C10.6667 12.6394 11.8607 13.8333 13.3334 13.8333H16.0001V8.5H13.3334C11.8607 8.5 10.6667 9.69391 10.6667 11.1667Z" fill="url(#paint5_linear_8508_73933)" fill-opacity="0.6" stroke="#DFDFE2" stroke-width="0.533333"/>
<path fill-rule="evenodd" clip-rule="evenodd" d="M10.6667 16.5C10.6667 17.9728 11.8607 19.1667 13.3334 19.1667H16.0001V13.8334H13.3334C11.8607 13.8334 10.6667 15.0273 10.6667 16.5Z" fill="url(#paint6_linear_8508_73933)" fill-opacity="0.6" stroke="#DFDFE2" stroke-width="0.533333"/>
<defs>
<linearGradient id="paint0_linear_8508_73933" x1="18.5" y1="18.5" x2="0.555578" y2="-2.40123" gradientUnits="userSpaceOnUse">
<stop stop-color="#26262B"/>
<stop offset="0.5" stop-color="white" stop-opacity="0.84"/>
<stop offset="1" stop-color="white" stop-opacity="0.31"/>
</linearGradient>
<linearGradient id="paint1_linear_8508_73933" x1="16" y1="0.5" x2="16" y2="32.5" gradientUnits="userSpaceOnUse">
<stop stop-color="white"/>
<stop offset="1" stop-color="white" stop-opacity="0"/>
</linearGradient>
<linearGradient id="paint2_linear_8508_73933" x1="19.5835" y1="13.8287" x2="15.3613" y2="22.2434" gradientUnits="userSpaceOnUse">
<stop stop-color="white"/>
<stop offset="1" stop-color="white" stop-opacity="0"/>
</linearGradient>
<linearGradient id="paint3_linear_8508_73933" x1="14.2502" y1="19.1619" x2="10.028" y2="27.5766" gradientUnits="userSpaceOnUse">
<stop stop-color="white"/>
<stop offset="1" stop-color="white" stop-opacity="0"/>
</linearGradient>
<linearGradient id="paint4_linear_8508_73933" x1="19.5835" y1="8.49531" x2="15.3613" y2="16.91" gradientUnits="userSpaceOnUse">
<stop stop-color="white"/>
<stop offset="1" stop-color="white" stop-opacity="0"/>
</linearGradient>
<linearGradient id="paint5_linear_8508_73933" x1="14.2502" y1="8.49531" x2="10.028" y2="16.91" gradientUnits="userSpaceOnUse">
<stop stop-color="white"/>
<stop offset="1" stop-color="white" stop-opacity="0"/>
</linearGradient>
<linearGradient id="paint6_linear_8508_73933" x1="14.2502" y1="13.8287" x2="10.028" y2="22.2434" gradientUnits="userSpaceOnUse">
<stop stop-color="white"/>
<stop offset="1" stop-color="white" stop-opacity="0"/>
</linearGradient>
</defs>
</svg>