<svg xmlns="http://www.w3.org/2000/svg" width="32" height="33" viewBox="0 0 32 33" fill="none">
<rect y="0.5" width="32" height="32" rx="6" fill="#7C47FF"/>
<rect y="0.5" width="32" height="32" rx="6" fill="url(#paint0_linear_8508_73906)" fill-opacity="0.25"/>
<rect x="0.32" y="0.82" width="31.36" height="31.36" rx="5.68" stroke="url(#paint1_linear_8508_73906)" stroke-opacity="0.5" stroke-width="0.64"/>
<g clip-path="url(#clip0_8508_73906)">
<path d="M8.66667 7.75H23.3333C24.6935 7.75 25.75 8.73671 25.75 9.9V23.1C25.75 24.2633 24.6935 25.25 23.3333 25.25H8.66667C7.30655 25.25 6.25 24.2633 6.25 23.1V9.9C6.25 8.73672 7.30655 7.75 8.66667 7.75Z" fill="url(#paint2_linear_8508_73906)" fill-opacity="0.5" stroke="#FCFCFD" stroke-width="0.5" stroke-linecap="round" stroke-linejoin="round"/>
<path d="M6 12.5L26 12.5" stroke="#FCFCFD" stroke-width="0.5" stroke-linecap="round" stroke-linejoin="round"/>
<path d="M9.5 10.5C9.22385 10.5 9 10.2761 9 10C9 9.72385 9.22385 9.5 9.5 9.5" fill="#FCFCFD"/>
<path d="M9.5 10.5C9.22385 10.5 9 10.2761 9 10C9 9.72385 9.22385 9.5 9.5 9.5" stroke="#FCFCFD" stroke-width="0.5"/>
<path d="M9.5 10.5C9.77615 10.5 10 10.2761 10 10C10 9.72385 9.77615 9.5 9.5 9.5" fill="#FCFCFD"/>
<path d="M9.5 10.5C9.77615 10.5 10 10.2761 10 10C10 9.72385 9.77615 9.5 9.5 9.5" stroke="#FCFCFD" stroke-width="0.5"/>
<path d="M12.0337 10.5C11.7575 10.5 11.5337 10.2761 11.5337 10C11.5337 9.72385 11.7575 9.5 12.0337 9.5" fill="#FCFCFD"/>
<path d="M12.0337 10.5C11.7575 10.5 11.5337 10.2761 11.5337 10C11.5337 9.72385 11.7575 9.5 12.0337 9.5" stroke="#FCFCFD" stroke-width="0.5"/>
<path d="M12.0339 10.5C12.3101 10.5 12.5339 10.2761 12.5339 10C12.5339 9.72385 12.3101 9.5 12.0339 9.5" fill="#FCFCFD"/>
<path d="M12.0339 10.5C12.3101 10.5 12.5339 10.2761 12.5339 10C12.5339 9.72385 12.3101 9.5 12.0339 9.5" stroke="#FCFCFD" stroke-width="0.5"/>
<path d="M18 19.5H21" stroke="#FCFCFD" stroke-width="0.5" stroke-linecap="round" stroke-linejoin="round"/>
<path d="M18 17.5H23" stroke="#FCFCFD" stroke-width="0.5" stroke-linecap="round" stroke-linejoin="round"/>
<path d="M14.7061 15.4166H9.79378C9.40137 15.4166 9.08325 15.7347 9.08325 16.1272V21.0394C9.08325 21.4318 9.40137 21.75 9.79378 21.75H14.7061C15.0985 21.75 15.4166 21.4318 15.4166 21.0394V16.1272C15.4166 15.7347 15.0985 15.4166 14.7061 15.4166Z" stroke="#FCFCFD" stroke-width="0.5" stroke-linecap="round" stroke-linejoin="round"/>
<path d="M11.1561 17.8122C11.0699 17.8122 11 17.7423 11 17.6561C11 17.5699 11.0699 17.5 11.1561 17.5" stroke="#FCFCFD" stroke-width="0.5"/>
<path d="M11.156 17.8122C11.2422 17.8122 11.3121 17.7423 11.3121 17.6561C11.3121 17.5699 11.2422 17.5 11.156 17.5" stroke="#FCFCFD" stroke-width="0.5"/>
<path d="M13.7382 18.6616L13.5434 18.8183C13.5479 18.824 13.5527 18.8294 13.5577 18.8346L13.7382 18.6616ZM13.5821 18.5436L13.6845 18.3156L13.6845 18.3155L13.5821 18.5436ZM13.3779 18.5L13.3796 18.25L13.3796 18.25L13.3779 18.5ZM13.1729 18.5409L13.0739 18.3113L13.0738 18.3114L13.1729 18.5409ZM13.0147 18.6568L13.206 18.8177L13.2068 18.8167L13.0147 18.6568ZM11.8488 20.0429L11.7103 20.251C11.8162 20.3215 11.9582 20.3012 12.0401 20.2038L11.8488 20.0429ZM11.1259 19.5619L11.2644 19.3537L11.2643 19.3537L11.1259 19.5619ZM10.9649 19.4944L11.019 19.2503L11.0189 19.2503L10.9649 19.4944ZM10.6164 19.5395L10.499 19.3188L10.499 19.3188L10.6164 19.5395ZM10.4877 19.6446L10.6645 19.8213C10.671 19.8148 10.6772 19.808 10.6829 19.8008L10.4877 19.6446ZM8.95554 20.8232C8.85791 20.9209 8.85792 21.0792 8.95555 21.1768C9.05318 21.2744 9.21148 21.2744 9.3091 21.1768L8.95554 20.8232ZM15.6805 20.327L13.9186 18.4887L13.5577 18.8346L15.3195 20.673L15.6805 20.327ZM13.9329 18.5049C13.8664 18.4222 13.78 18.3584 13.6845 18.3156L13.4798 18.7717C13.5098 18.7852 13.5306 18.8024 13.5434 18.8183L13.9329 18.5049ZM13.6845 18.3155C13.5889 18.2726 13.4844 18.2507 13.3796 18.25L13.3762 18.75C13.4142 18.7503 13.4498 18.7583 13.4798 18.7717L13.6845 18.3155ZM13.3796 18.25C13.2749 18.2493 13.1701 18.2698 13.0739 18.3113L13.2719 18.7704C13.3024 18.7573 13.3384 18.7498 13.3763 18.75L13.3796 18.25ZM13.0738 18.3114C12.9777 18.3528 12.8904 18.4153 12.8225 18.4968L13.2068 18.8167C13.2201 18.8007 13.2416 18.7836 13.272 18.7704L13.0738 18.3114ZM12.8233 18.4958L11.6575 19.882L12.0401 20.2038L13.206 18.8177L12.8233 18.4958ZM11.9873 19.8348L11.2644 19.3537L10.9874 19.77L11.7103 20.251L11.9873 19.8348ZM11.2643 19.3537C11.1897 19.3041 11.1059 19.2695 11.019 19.2503L10.9109 19.7385C10.9413 19.7452 10.9671 19.7566 10.9874 19.77L11.2643 19.3537ZM11.0189 19.2503C10.9317 19.231 10.8413 19.2271 10.7528 19.2386L10.8171 19.7344C10.8486 19.7303 10.8807 19.7318 10.911 19.7385L11.0189 19.2503ZM10.7528 19.2386C10.6644 19.25 10.5779 19.2768 10.499 19.3188L10.7338 19.7603C10.7571 19.7478 10.7855 19.7385 10.8171 19.7344L10.7528 19.2386ZM10.499 19.3188C10.4202 19.3607 10.3491 19.4177 10.2925 19.4884L10.6829 19.8008C10.6937 19.7873 10.7102 19.7728 10.7338 19.7602L10.499 19.3188ZM10.3109 19.4678L8.95554 20.8232L9.3091 21.1768L10.6645 19.8213L10.3109 19.4678Z" fill="#FCFCFD"/>
</g>
<defs>
<linearGradient id="paint0_linear_8508_73906" x1="18.5" y1="18.5" x2="0.555578" y2="-2.40123" gradientUnits="userSpaceOnUse">
<stop stop-color="#6C3AE6"/>
<stop offset="0.5" stop-color="white" stop-opacity="0.84"/>
<stop offset="1" stop-color="white" stop-opacity="0.31"/>
</linearGradient>
<linearGradient id="paint1_linear_8508_73906" x1="16" y1="0.5" x2="16" y2="32.5" gradientUnits="userSpaceOnUse">
<stop stop-color="white"/>
<stop offset="1" stop-color="white" stop-opacity="0"/>
</linearGradient>
<linearGradient id="paint2_linear_8508_73906" x1="19.438" y1="7.48418" x2="6.10352" y2="37.0121" gradientUnits="userSpaceOnUse">
<stop stop-color="white"/>
<stop offset="1" stop-color="white" stop-opacity="0"/>
</linearGradient>
<clipPath id="clip0_8508_73906">
<rect width="20" height="20" fill="white" transform="translate(6 6.5)"/>
</clipPath>
</defs>
</svg>