<svg xmlns="http://www.w3.org/2000/svg" width="50" height="50" viewBox="0 0 50 50" fill="none">
<rect x="1" y="1" width="48" height="48" rx="8" fill="#7C47FF"/>
<rect x="1.5" y="1.5" width="47" height="47" rx="7.5" stroke="url(#paint0_linear_8749_118390)" stroke-opacity="0.5"/>
<path d="M22.1433 16H17.4471C16.0956 16 15 17.0956 15 18.4471V23.1433C15 23.7923 15.2578 24.4148 15.7167 24.8737L26.1371 35.294C26.897 36.0539 28.0727 36.242 28.9718 35.6534C31.2346 34.1719 33.1719 32.2346 34.6534 29.9718C35.242 29.0727 35.0539 27.8969 34.294 27.1371L23.8737 16.7167C23.4148 16.2578 22.7923 16 22.1433 16Z" fill="url(#paint1_linear_8749_118390)" fill-opacity="0.8"/>
<path d="M18.2628 19.2628H18.2709V19.2709H18.2628V19.2628Z" fill="url(#paint2_linear_8749_118390)" fill-opacity="0.8"/>
<path d="M22.1433 16H17.4471C16.0956 16 15 17.0956 15 18.4471V23.1433C15 23.7923 15.2578 24.4148 15.7167 24.8737L26.1371 35.294C26.897 36.0539 28.0727 36.242 28.9718 35.6534C31.2346 34.1719 33.1719 32.2346 34.6534 29.9718C35.242 29.0727 35.0539 27.8969 34.294 27.1371L23.8737 16.7167C23.4148 16.2578 22.7923 16 22.1433 16Z" stroke="#F3F4F6" stroke-width="1.5" stroke-linecap="round" stroke-linejoin="round"/>
<path d="M18.2628 19.2628H18.2709V19.2709H18.2628V19.2628Z" stroke="#F3F4F6" stroke-width="1.5" stroke-linecap="round" stroke-linejoin="round"/>
<mask id="mask0_8749_118390" style="mask-type:alpha" maskUnits="userSpaceOnUse" x="0" y="0" width="50" height="50">
<rect width="50" height="49.9999" rx="8" fill="#7C47FF"/>
</mask>
<g mask="url(#mask0_8749_118390)">
<g filter="url(#filter0_f_8749_118390)">
<path d="M-3 -6V56L25 25L53 -6H-3Z" fill="url(#paint3_linear_8749_118390)" fill-opacity="0.25"/>
</g>
</g>
<defs>
<filter id="filter0_f_8749_118390" x="-13" y="-16" width="76" height="82" filterUnits="userSpaceOnUse" color-interpolation-filters="sRGB">
<feFlood flood-opacity="0" result="BackgroundImageFix"/>
<feBlend mode="normal" in="SourceGraphic" in2="BackgroundImageFix" result="shape"/>
<feGaussianBlur stdDeviation="5" result="effect1_foregroundBlur_8749_118390"/>
</filter>
<linearGradient id="paint0_linear_8749_118390" x1="25" y1="1" x2="25" y2="49" gradientUnits="userSpaceOnUse">
<stop stop-color="white"/>
<stop offset="1" stop-color="white" stop-opacity="0"/>
</linearGradient>
<linearGradient id="paint1_linear_8749_118390" x1="28.438" y1="15.9824" x2="12.6048" y2="47.5375" gradientUnits="userSpaceOnUse">
<stop stop-color="white"/>
<stop offset="1" stop-color="white" stop-opacity="0"/>
</linearGradient>
<linearGradient id="paint2_linear_8749_118390" x1="28.438" y1="15.9824" x2="12.6048" y2="47.5375" gradientUnits="userSpaceOnUse">
<stop stop-color="white"/>
<stop offset="1" stop-color="white" stop-opacity="0"/>
</linearGradient>
<linearGradient id="paint3_linear_8749_118390" x1="30.1144" y1="19.3905" x2="-4.96795" y2="-7.4254" gradientUnits="userSpaceOnUse">
<stop stop-color="white"/>
<stop offset="1" stop-color="white" stop-opacity="0"/>
</linearGradient>
</defs>
</svg>