<svg xmlns="http://www.w3.org/2000/svg" width="36" height="36" viewBox="0 0 36 36" fill="none">
<path d="M20.6213 23.7962L18.1684 21.3433C18.0372 21.2159 17.933 21.0635 17.8618 20.895C17.7906 20.7266 17.7539 20.5456 17.7539 20.3627C17.7539 20.1799 17.7906 19.9989 17.8618 19.8304C17.933 19.662 18.0372 19.5095 18.1684 19.3821L21.7944 16.5133C22.0626 16.2694 22.412 16.1343 22.7745 16.1343C23.137 16.1343 23.4864 16.2694 23.7546 16.5133L25.8875 18.6462C26.4973 19.2556 26.9567 19.9986 27.2291 20.8165L27.7933 22.5133L29.9998 24.7187" stroke="#26262B" stroke-width="1.5" stroke-linecap="round" stroke-linejoin="round"/>
<path d="M18.9571 22.1207L18.4942 22.5825C18.2948 22.7818 18.1369 23.0187 18.0296 23.2795C17.9223 23.5402 17.8678 23.8197 17.8692 24.1016C17.8706 24.3836 17.9278 24.6625 18.0377 24.9221C18.1475 25.1818 18.3078 25.4171 18.5092 25.6145L19.4434 26.5295L22.5884 27.7133L24.7939 29.9188" stroke="#26262B" stroke-width="1.5" stroke-linecap="round" stroke-linejoin="round"/>
<path d="M15.3732 12.127L17.8261 14.5798C17.9572 14.7073 18.0615 14.8597 18.1327 15.0281C18.2039 15.1966 18.2406 15.3776 18.2406 15.5605C18.2406 15.7433 18.2039 15.9243 18.1327 16.0928C18.0615 16.2612 17.9572 16.4136 17.8261 16.5411L14.2001 19.4099C13.9319 19.6537 13.5825 19.7889 13.22 19.7889C12.8575 19.7889 12.5081 19.6537 12.2399 19.4099L10.107 17.2769C9.49938 16.6677 9.04189 15.9254 8.77069 15.1088L8.20653 13.412L6 11.2066" stroke="#26262B" stroke-width="1.5" stroke-linecap="round" stroke-linejoin="round"/>
<path d="M17.0438 13.8023L17.5067 13.3405C17.7061 13.1412 17.864 12.9043 17.9713 12.6436C18.0786 12.3828 18.1331 12.1034 18.1317 11.8214C18.1304 11.5395 18.0731 11.2606 17.9632 11.0009C17.8534 10.7412 17.6931 10.5059 17.4917 10.3085L16.5575 9.39351L13.4125 8.20546L11.207 6" stroke="#26262B" stroke-width="1.5" stroke-linecap="round" stroke-linejoin="round"/>
<path d="M24.9297 9.99926L26.5294 8.39955" stroke="#26262B" stroke-width="1.5" stroke-linecap="round" stroke-linejoin="round"/>
<path d="M21.7305 8.39956V6.26662" stroke="#26262B" stroke-width="1.5" stroke-linecap="round" stroke-linejoin="round"/>
<path d="M26.5293 13.1987H28.6622" stroke="#26262B" stroke-width="1.5" stroke-linecap="round" stroke-linejoin="round"/>
<path d="M10.5333 24.3966L8.93359 25.9963" stroke="#26262B" stroke-width="1.5" stroke-linecap="round" stroke-linejoin="round"/>
<path d="M13.7324 25.9963V28.1292" stroke="#26262B" stroke-width="1.5" stroke-linecap="round" stroke-linejoin="round"/>
<path d="M8.93372 21.1972H6.80078" stroke="#26262B" stroke-width="1.5" stroke-linecap="round" stroke-linejoin="round"/>
</svg>