<svg xmlns="http://www.w3.org/2000/svg" width="20" height="21" viewBox="0 0 20 21" fill="none">
<path fill-rule="evenodd" clip-rule="evenodd" d="M3.875 16.625C3.875 16.1418 4.26675 15.75 4.75 15.75H15.25C15.7333 15.75 16.125 16.1418 16.125 16.625C16.125 17.1082 15.7333 17.5 15.25 17.5H4.75C4.26675 17.5 3.875 17.1082 3.875 16.625ZM6.75628 9.88128C7.09799 9.53957 7.65201 9.53957 7.99372 9.88128L9.125 11.0126L9.125 4.375C9.125 3.89175 9.51675 3.5 10 3.5C10.4832 3.5 10.875 3.89175 10.875 4.375L10.875 11.0126L12.0063 9.88128C12.348 9.53957 12.902 9.53957 13.2437 9.88128C13.5854 10.223 13.5854 10.777 13.2437 11.1187L10.6187 13.7437C10.4546 13.9078 10.2321 14 10 14C9.76794 14 9.54538 13.9078 9.38128 13.7437L6.75628 11.1187C6.41457 10.777 6.41457 10.223 6.75628 9.88128Z" fill="#6B7280"/>
</svg>