<svg xmlns="http://www.w3.org/2000/svg" width="24" height="25" viewBox="0 0 24 25" fill="none">
<path d="M17.4979 15.9328C18.9335 15.9328 20.0973 14.769 20.0973 13.3333C20.0973 11.8977 18.9335 10.7339 17.4979 10.7339C16.0623 10.7339 14.8984 11.8977 14.8984 13.3333C14.8984 14.769 16.0623 15.9328 17.4979 15.9328Z" stroke="#60616C" stroke-width="1.5" stroke-linecap="round" stroke-linejoin="round"/>
<path d="M22.0009 21.1318C21.9013 20.4396 21.6434 19.7796 21.2473 19.2032C20.8512 18.6268 20.3275 18.1495 19.7169 17.8084C19.1064 17.4673 18.4254 17.2715 17.7269 17.2363C17.0284 17.2011 16.3312 17.3275 15.6895 17.6055" stroke="#60616C" stroke-width="1.5" stroke-linecap="round" stroke-linejoin="round"/>
<path d="M20.8334 23.2365H12.4909C12.0744 23.2366 11.6699 23.0975 11.3416 22.8413C11.0133 22.5851 10.7802 22.2264 10.6792 21.8224L9.77754 18.2159C9.76039 18.1471 9.75913 18.0753 9.77386 18.0059C9.78859 17.9366 9.81892 17.8715 9.86255 17.8157C9.90619 17.7598 9.96197 17.7146 10.0257 17.6835C10.0894 17.6524 10.1593 17.6363 10.2302 17.6362H14.9708C15.1789 17.6362 15.381 17.7058 15.5451 17.8338C15.7091 17.9618 15.8256 18.141 15.8762 18.3428L17.0999 23.2365" stroke="#60616C" stroke-width="1.5" stroke-linecap="round" stroke-linejoin="round"/>
<path d="M19.9996 6.30039C19.3669 5.82072 18.5946 5.5611 17.8006 5.5611C17.0066 5.5611 16.2343 5.82072 15.6016 6.30039" stroke="#60616C" stroke-width="1.5" stroke-linecap="round" stroke-linejoin="round"/>
<path d="M21.7677 3.84561C20.6231 2.98769 19.2312 2.52396 17.8008 2.52396C16.3704 2.52396 14.9786 2.98769 13.834 3.84561" stroke="#60616C" stroke-width="1.5" stroke-linecap="round" stroke-linejoin="round"/>
<path d="M5.50179 7.53239C6.93743 7.53239 8.10124 6.36858 8.10124 4.93294C8.10124 3.49731 6.93743 2.3335 5.50179 2.3335C4.06616 2.3335 2.90234 3.49731 2.90234 4.93294C2.90234 6.36858 4.06616 7.53239 5.50179 7.53239Z" stroke="#60616C" stroke-width="1.5" stroke-linecap="round" stroke-linejoin="round"/>
<path d="M1 12.7315C1.09962 12.0392 1.35751 11.3793 1.75363 10.8029C2.14975 10.2265 2.67344 9.74918 3.28399 9.40805C3.89454 9.06693 4.57553 8.87117 5.27403 8.83599C5.97253 8.80081 6.66974 8.92715 7.31148 9.2052" stroke="#60616C" stroke-width="1.5" stroke-linecap="round" stroke-linejoin="round"/>
<path d="M2.16406 14.8361H10.5066C10.923 14.8362 11.3275 14.6971 11.6558 14.4409C11.9841 14.1847 12.2173 13.826 12.3182 13.422L13.2199 9.81547C13.237 9.74668 13.2383 9.6749 13.2236 9.60556C13.2088 9.53622 13.1785 9.47114 13.1349 9.41527C13.0912 9.3594 13.0354 9.31421 12.9717 9.28312C12.908 9.25203 12.8381 9.23586 12.7672 9.23584H8.02659C7.81851 9.23585 7.6164 9.30538 7.45237 9.43339C7.28833 9.56141 7.17178 9.74057 7.12121 9.9424L5.89756 14.8361" stroke="#60616C" stroke-width="1.5" stroke-linecap="round" stroke-linejoin="round"/>
</svg>