<svg width="35" height="26" viewBox="0 0 35 26" fill="none" xmlns="http://www.w3.org/2000/svg">
<g filter="url(#filter0_i_58_1139)">
<path d="M0.565826 7.51593L14.5599 14.513L28.5542 7.51583C28.4486 5.67773 26.9246 4.21973 25.06 4.21973H4.06C2.19541 4.21973 0.671356 5.67783 0.565826 7.51593Z" fill="white"/>
<path d="M28.56 10.4258L14.5599 17.4259L0.559998 10.4259V21.7195C0.559998 23.6525 2.127 25.2195 4.06 25.2195H25.06C26.993 25.2195 28.56 23.6525 28.56 21.7195V10.4258Z" fill="white"/>
</g>
<path d="M14.3115 17.9231L14.5599 18.0473L14.8084 17.9231L28.0044 11.325V21.7198C28.0044 23.346 26.6862 24.6642 25.06 24.6642H4.05999C2.43382 24.6642 1.11555 23.346 1.11555 21.7198V11.3251L14.3115 17.9231ZM14.5599 13.8919L1.16244 7.19319C1.41052 5.81849 2.61361 4.77539 4.05999 4.77539H25.06C26.5064 4.77539 27.7094 5.81849 27.9575 7.19309L14.5599 13.8919Z" stroke="#DFDFE2" stroke-width="1.11111"/>
<path d="M28.4403 11.2673L28.4365 11.2652L28.4233 11.2581C28.412 11.2519 28.3959 11.2431 28.3753 11.2316C28.3341 11.2086 28.2748 11.175 28.2 11.1309C28.0504 11.0429 27.8384 10.9133 27.5849 10.7448C27.0787 10.4083 26.4023 9.91356 25.7241 9.28136C24.382 8.03026 22.9599 6.17146 22.9599 3.88184C22.9599 2.1738 24.397 0.819336 26.1318 0.819336C27.152 0.819336 28.0654 1.28547 28.6474 2.0161C29.2294 1.28547 30.1428 0.819336 31.163 0.819336C32.8978 0.819336 34.3349 2.1738 34.3349 3.88184C34.3349 6.17146 32.9128 8.03026 31.5707 9.28136C30.8925 9.91356 30.2161 10.4083 29.7099 10.7448C29.4564 10.9133 29.2444 11.0429 29.0948 11.1309C29.02 11.175 28.9607 11.2086 28.9195 11.2316C28.8989 11.2431 28.8828 11.2519 28.8715 11.2581L28.8583 11.2652L28.8545 11.2673L28.8529 11.2681C28.7246 11.3363 28.5702 11.3363 28.4419 11.2681L28.4403 11.2673Z" fill="#38A17E"/>
<defs>
<filter id="filter0_i_58_1139" x="0.559998" y="3.10862" width="28" height="22.1111" filterUnits="userSpaceOnUse" color-interpolation-filters="sRGB">
<feFlood flood-opacity="0" result="BackgroundImageFix"/>
<feBlend mode="normal" in="SourceGraphic" in2="BackgroundImageFix" result="shape"/>
<feColorMatrix in="SourceAlpha" type="matrix" values="0 0 0 0 0 0 0 0 0 0 0 0 0 0 0 0 0 0 127 0" result="hardAlpha"/>
<feOffset dy="-1.11111"/>
<feGaussianBlur stdDeviation="2.22222"/>
<feComposite in2="hardAlpha" operator="arithmetic" k2="-1" k3="1"/>
<feColorMatrix type="matrix" values="0 0 0 0 0.745098 0 0 0 0 0.745098 0 0 0 0 0.776471 0 0 0 1 0"/>
<feBlend mode="normal" in2="shape" result="effect1_innerShadow_58_1139"/>
</filter>
</defs>
</svg>
