<svg xmlns="http://www.w3.org/2000/svg" width="36" height="36" viewBox="0 0 36 36" fill="none">
<path d="M24.8534 21.5411C26.4941 21.5411 27.8241 20.2111 27.8241 18.5705C27.8241 16.9299 26.4941 15.5999 24.8534 15.5999C23.2128 15.5999 21.8828 16.9299 21.8828 18.5705C21.8828 20.2111 23.2128 21.5411 24.8534 21.5411Z" stroke="#26262B" stroke-width="1.5" stroke-linecap="round" stroke-linejoin="round"/>
<path d="M29.9998 27.4826C29.886 26.6915 29.5913 25.9373 29.1386 25.2786C28.6859 24.6199 28.0874 24.0744 27.3897 23.6846C26.692 23.2948 25.9137 23.0711 25.1155 23.0308C24.3172 22.9906 23.5205 23.135 22.7871 23.4528" stroke="#26262B" stroke-width="1.5" stroke-linecap="round" stroke-linejoin="round"/>
<path d="M28.666 29.8877H19.1322C18.6563 29.8879 18.194 29.7289 17.8189 29.4361C17.4437 29.1433 17.1773 28.7334 17.0619 28.2717L16.0315 24.1502C16.0119 24.0716 16.0104 23.9896 16.0273 23.9103C16.0441 23.8311 16.0788 23.7567 16.1286 23.6929C16.1785 23.629 16.2422 23.5774 16.315 23.5418C16.3879 23.5063 16.4678 23.4878 16.5488 23.4878H21.9663C22.2041 23.4878 22.4351 23.5673 22.6226 23.7136C22.81 23.8599 22.9432 24.0646 23.001 24.2953L24.3994 29.8877" stroke="#26262B" stroke-width="1.5" stroke-linecap="round" stroke-linejoin="round"/>
<path d="M27.7136 10.5333C26.9905 9.98519 26.1079 9.68849 25.2005 9.68849C24.2931 9.68849 23.4106 9.98519 22.6875 10.5333" stroke="#26262B" stroke-width="1.5" stroke-linecap="round" stroke-linejoin="round"/>
<path d="M29.7326 7.72809C28.4246 6.74767 26.834 6.21771 25.1993 6.21771C23.5646 6.21771 21.974 6.74767 20.666 7.72809" stroke="#26262B" stroke-width="1.5" stroke-linecap="round" stroke-linejoin="round"/>
<path d="M11.1464 11.9413C12.787 11.9413 14.117 10.6113 14.117 8.97063C14.117 7.33 12.787 6 11.1464 6C9.50578 6 8.17578 7.33 8.17578 8.97063C8.17578 10.6113 9.50578 11.9413 11.1464 11.9413Z" stroke="#26262B" stroke-width="1.5" stroke-linecap="round" stroke-linejoin="round"/>
<path d="M6 17.8827C6.11385 17.0916 6.40856 16.3374 6.86125 15.6787C7.31393 15.02 7.91239 14.4746 8.61013 14.0847C9.30786 13.6949 10.0861 13.4712 10.8843 13.431C11.6826 13.3908 12.4793 13.5352 13.2127 13.8529" stroke="#26262B" stroke-width="1.5" stroke-linecap="round" stroke-linejoin="round"/>
<path d="M7.33398 20.2878H16.8677C17.3436 20.288 17.8059 20.129 18.1811 19.8362C18.5562 19.5434 18.8227 19.1336 18.9381 18.6719L19.9685 14.5503C19.9881 14.4717 19.9895 14.3897 19.9727 14.3104C19.9559 14.2312 19.9212 14.1568 19.8713 14.093C19.8215 14.0291 19.7577 13.9775 19.6849 13.942C19.6121 13.9064 19.5322 13.8879 19.4512 13.8879H14.0336C13.7958 13.8879 13.5649 13.9674 13.3774 14.1137C13.19 14.26 13.0568 14.4647 12.999 14.6954L11.6006 20.2878" stroke="#26262B" stroke-width="1.5" stroke-linecap="round" stroke-linejoin="round"/>
</svg>