<svg xmlns="http://www.w3.org/2000/svg" width="24" height="24" viewBox="0 0 24 24" fill="none">
<path d="M15.002 8.90012V10.4" stroke="#60616C" stroke-width="1.5" stroke-linecap="round" stroke-linejoin="round"/>
<path d="M7.99805 15.9999H9.4979" stroke="#60616C" stroke-width="1.5" stroke-linecap="round" stroke-linejoin="round"/>
<path d="M22.0018 15.9999H20.502" stroke="#60616C" stroke-width="1.5" stroke-linecap="round" stroke-linejoin="round"/>
<path d="M9.22461 11.4267L10.4986 12.6998" stroke="#60616C" stroke-width="1.5" stroke-linecap="round" stroke-linejoin="round"/>
<path d="M20.772 11.4267L19.498 12.6998" stroke="#60616C" stroke-width="1.5" stroke-linecap="round" stroke-linejoin="round"/>
<path d="M18.4999 16C18.5006 15.3688 18.3306 14.7492 18.0079 14.2068C17.6852 13.6643 17.2218 13.2193 16.6668 12.9187C16.1118 12.6181 15.4858 12.4732 14.8552 12.4993C14.2246 12.5254 13.6127 12.7216 13.0845 13.067C12.5562 13.4124 12.1312 13.8943 11.8545 14.4615C11.5777 15.0288 11.4595 15.6603 11.5123 16.2892C11.5651 16.9182 11.787 17.5211 12.1546 18.0343C12.5221 18.5474 13.0215 18.9516 13.6 19.2041V20.8999H16.4V19.2041C17.0238 18.9322 17.5547 18.4843 17.9277 17.9151C18.3007 17.346 18.4996 16.6804 18.4999 16Z" stroke="#60616C" stroke-width="1.5" stroke-linecap="round" stroke-linejoin="round"/>
<path d="M13.5977 22.9999H16.3976" stroke="#60616C" stroke-width="1.5" stroke-linecap="round" stroke-linejoin="round"/>
<path d="M18.4999 7.59996V3.04346C18.4974 2.76538 18.385 2.49957 18.1872 2.30407C17.9895 2.10856 17.7224 1.99925 17.4443 2H2.04999C1.77338 1.99925 1.50771 2.10797 1.31099 2.30242C1.11426 2.49688 1.00246 2.76127 1 3.03786V15.6555C1.00222 15.9337 1.1145 16.1998 1.3123 16.3955C1.51011 16.5912 1.77734 16.7006 2.05559 16.6999H5.19997" stroke="#60616C" stroke-width="1.5" stroke-linecap="round" stroke-linejoin="round"/>
<path d="M1 5.49994H18.4999" stroke="#60616C" stroke-width="1.5" stroke-linecap="round" stroke-linejoin="round"/>
</svg>