<svg xmlns="http://www.w3.org/2000/svg" width="36" height="36" viewBox="0 0 36 36" fill="none">
<path d="M9.18164 14.4268C9.18093 13.4233 9.53585 12.452 10.1834 11.6853C10.831 10.9187 11.7292 10.4063 12.7187 10.2391C13.7083 10.072 14.725 10.2609 15.5884 10.7723C16.4519 11.2838 17.1062 12.0846 17.4351 13.0327" stroke="#26262B" stroke-width="1.5" stroke-linecap="round" stroke-linejoin="round"/>
<path d="M6 14.427H7.06099" stroke="#26262B" stroke-width="1.5" stroke-linecap="round" stroke-linejoin="round"/>
<path d="M6 17.6098H15.2784" stroke="#26262B" stroke-width="1.5" stroke-linecap="round" stroke-linejoin="round"/>
<path d="M18.6798 9.17506L17.9297 9.92519" stroke="#26262B" stroke-width="1.5" stroke-linecap="round" stroke-linejoin="round"/>
<path d="M13.4258 7V8.06099" stroke="#26262B" stroke-width="1.5" stroke-linecap="round" stroke-linejoin="round"/>
<path d="M8.17773 9.17506L8.92785 9.92519" stroke="#26262B" stroke-width="1.5" stroke-linecap="round" stroke-linejoin="round"/>
<path d="M23.6406 20.8821C25.6867 20.8821 27.3455 19.2233 27.3455 17.1771C27.3455 15.1309 25.6867 13.4721 23.6406 13.4721C21.5943 13.4721 19.9355 15.1309 19.9355 17.1771C19.9355 19.2233 21.5943 20.8821 23.6406 20.8821Z" stroke="#26262B" stroke-width="1.5" stroke-linecap="round" stroke-linejoin="round"/>
<path d="M22.704 29.3871H13.2241C13.008 29.3872 12.797 29.3214 12.6193 29.1984C12.4417 29.0752 12.3058 28.9008 12.23 28.6985L9.97536 22.6774C9.94517 22.5972 9.93489 22.5107 9.94541 22.4256C9.95592 22.3405 9.98691 22.2592 10.0357 22.1887C10.0845 22.1181 10.1497 22.0605 10.2257 22.0207C10.3017 21.9809 10.3861 21.9602 10.4719 21.9602H19.1838C19.3996 21.9602 19.6105 22.0262 19.7879 22.1493C19.9654 22.2723 20.101 22.4466 20.1768 22.6487L22.704 29.3871Z" stroke="#26262B" stroke-width="1.5" stroke-linecap="round" stroke-linejoin="round"/>
<path d="M25.5117 29.3821H29.9998" stroke="#26262B" stroke-width="1.5" stroke-linecap="round" stroke-linejoin="round"/>
<path d="M24 23C25.6884 23 27.3075 23.6707 28.5014 24.8646C29.6953 26.0584 30.366 27.6777 30.366 29.366" stroke="#26262B" stroke-width="1.5" stroke-linecap="round" stroke-linejoin="round"/>
</svg>