<svg xmlns="http://www.w3.org/2000/svg" width="24" height="25" viewBox="0 0 24 25" fill="none">
<path d="M4.61133 9.42954C4.61074 8.60583 4.90207 7.80855 5.43359 7.17927C5.96512 6.54998 6.70243 6.1294 7.51464 5.99221C8.32686 5.85501 9.16141 6.01007 9.87013 6.42986C10.5789 6.84964 11.1159 7.507 11.3859 8.28521" stroke="#60616C" stroke-width="1.5" stroke-linecap="round" stroke-linejoin="round"/>
<path d="M2 9.42973H2.87088" stroke="#60616C" stroke-width="1.5" stroke-linecap="round" stroke-linejoin="round"/>
<path d="M2 12.0422H9.61585" stroke="#60616C" stroke-width="1.5" stroke-linecap="round" stroke-linejoin="round"/>
<path d="M12.4087 5.11879L11.793 5.73451" stroke="#60616C" stroke-width="1.5" stroke-linecap="round" stroke-linejoin="round"/>
<path d="M8.0957 3.3335V4.20437" stroke="#60616C" stroke-width="1.5" stroke-linecap="round" stroke-linejoin="round"/>
<path d="M3.78711 5.11879L4.40282 5.73451" stroke="#60616C" stroke-width="1.5" stroke-linecap="round" stroke-linejoin="round"/>
<path d="M16.4806 14.7281C18.1601 14.7281 19.5217 13.3666 19.5217 11.6871C19.5217 10.0075 18.1601 8.64594 16.4806 8.64594C14.801 8.64594 13.4395 10.0075 13.4395 11.6871C13.4395 13.3666 14.801 14.7281 16.4806 14.7281Z" stroke="#60616C" stroke-width="1.5" stroke-linecap="round" stroke-linejoin="round"/>
<path d="M15.7121 21.7092H7.93083C7.75344 21.7093 7.58024 21.6553 7.43441 21.5543C7.28858 21.4532 7.17708 21.3101 7.11482 21.144L5.26419 16.2017C5.23942 16.1359 5.23098 16.0649 5.23961 15.9951C5.24824 15.9252 5.27368 15.8585 5.31375 15.8007C5.35382 15.7427 5.40733 15.6954 5.46968 15.6628C5.53203 15.6301 5.60137 15.6131 5.67177 15.6131H12.8226C12.9998 15.6131 13.1729 15.6673 13.3185 15.7683C13.4642 15.8692 13.5755 16.0123 13.6377 16.1782L15.7121 21.7092Z" stroke="#60616C" stroke-width="1.5" stroke-linecap="round" stroke-linejoin="round"/>
<path d="M18.0156 21.7052H21.6995" stroke="#60616C" stroke-width="1.5" stroke-linecap="round" stroke-linejoin="round"/>
<path d="M16.7754 16.4666C18.1613 16.4666 19.4903 17.0171 20.4703 17.9971C21.4502 18.977 22.0007 20.3061 22.0007 21.6919" stroke="#60616C" stroke-width="1.5" stroke-linecap="round" stroke-linejoin="round"/>
</svg>