<svg xmlns="http://www.w3.org/2000/svg" width="180" height="40" viewBox="0 0 180 40" fill="none">
<path d="M36.278 19.7608C36.278 25.2183 31.8307 29.6417 26.3436 29.6417H19.8691V9.87988H26.3436C31.8307 9.87988 36.278 14.3049 36.278 19.7608Z" fill="url(#paint0_linear_6874_13638)"/>
<path d="M23.7838 26.9754C23.8732 27.8943 24.1629 28.7441 24.6067 29.4901C24.6348 29.5411 24.6663 29.5906 24.6978 29.6416H19.8691V20.3091H29.3024C25.9263 20.6351 23.456 23.6192 23.7838 26.9754Z" fill="#6400E6"/>
<path d="M29.8024 19.763C29.8024 20.0474 29.5849 20.2834 29.3004 20.3118C26.1499 20.6262 23.4336 22.4048 21.8482 24.953C21.0773 26.1938 20.5733 27.6183 20.4202 29.1442C20.3918 29.427 20.1545 29.6431 19.8688 29.6431C19.5829 29.6431 19.3457 29.4268 19.3172 29.1439C18.8482 24.4846 15.1215 20.7781 10.4355 20.3117C10.1511 20.2834 9.93359 20.0475 9.93359 19.7631C9.93359 19.4787 10.1511 19.2427 10.4356 19.2144C15.123 18.7482 18.8485 15.0428 19.3172 10.3806C19.3457 10.0977 19.5829 9.88135 19.8688 9.88135C20.1547 9.88135 20.3919 10.0977 20.4204 10.3806C20.8892 15.0414 24.6145 18.748 29.3004 19.2144C29.5849 19.2427 29.8024 19.4787 29.8024 19.763Z" fill="url(#paint1_linear_6874_13638)"/>
<path d="M62.4593 21.9637C62.5115 23.0038 63.2087 24.5642 65.5967 24.5642C67.1828 24.5642 67.88 24.0093 68.3506 23.2466H70.9652C70.4422 24.2867 69.1873 26.2977 65.6664 26.2977C61.4831 26.2977 59.9492 23.888 59.9492 21.4435C59.9492 18.3751 62.2326 16.416 65.5096 16.416C69.623 16.416 71.1744 18.9298 71.1744 21.6169V21.9637H62.4593ZM68.6643 20.438C68.3855 18.5831 66.7123 18.0457 65.5444 18.0457C64.4114 18.0457 62.8775 18.5657 62.4593 20.438H68.6643Z" fill="white"/>
<path d="M100.348 16.7627H102.753V18.0295C102.753 18.0959 102.807 18.1497 102.874 18.1497H102.897C102.933 18.1497 102.968 18.133 102.99 18.1048C103.771 17.1421 104.8 16.52 106.431 16.52C108.435 16.52 110.353 17.2135 110.353 19.7099V25.951H107.947V20.4727C107.947 19.4846 107.616 18.3577 105.629 18.3577C104.374 18.3577 102.753 19.0511 102.753 21.0101V25.951H100.348V16.7627Z" fill="white"/>
<path d="M114.17 21.9637C114.222 23.0038 114.92 24.5641 117.308 24.5641C118.894 24.5641 119.591 24.0093 120.061 23.2466H122.676C122.153 24.2867 120.898 26.2977 117.377 26.2977C113.194 26.2977 111.66 23.888 111.66 21.4435C111.66 18.3751 113.943 16.416 117.22 16.416C121.334 16.416 122.885 18.9298 122.885 21.6169V21.9636L114.17 21.9637ZM120.375 20.438C120.096 18.5831 118.423 18.0457 117.255 18.0457C116.122 18.0457 114.588 18.5657 114.17 20.438H120.375Z" fill="white"/>
<path d="M143.084 13.5728H145.489V18.0293C145.489 18.0957 145.543 18.1495 145.61 18.1495H145.633C145.67 18.1495 145.704 18.1328 145.727 18.1047C146.507 17.1419 147.536 16.5198 149.167 16.5198C151.172 16.5198 153.089 17.2133 153.089 19.7097V25.9508H150.684V20.4726C150.684 19.4844 150.352 18.3575 148.365 18.3575C147.11 18.3575 145.489 19.051 145.489 21.0099V25.9508H143.084V13.5728Z" fill="white"/>
<path d="M159.031 16.7627H161.437V17.9601C161.437 18.0265 161.491 18.0803 161.557 18.0803H161.574C161.614 18.0803 161.651 18.0597 161.674 18.0264C162.392 16.9561 163.57 16.52 165.01 16.52C168.531 16.52 170.065 19.0685 170.065 21.3915C170.065 23.7493 168.531 26.2977 165.01 26.2977C163.168 26.2977 161.93 25.3216 161.666 24.753C161.646 24.7112 161.604 24.6855 161.557 24.6855C161.491 24.6855 161.437 24.7393 161.437 24.8056V29.453H159.031V16.7627ZM161.332 21.3915C161.332 22.9691 162.186 24.4601 164.435 24.4601C166.718 24.4601 167.555 22.9691 167.555 21.3915C167.555 19.8659 166.718 18.3577 164.435 18.3577C162.186 18.3577 161.332 19.8659 161.332 21.3915Z" fill="white"/>
<path d="M52.7776 13.5728H46.207V25.9507H52.7776C56.2136 25.9507 59 23.1793 59 19.7617C59 16.3442 56.2136 13.5728 52.7776 13.5728ZM52.1159 24.0088H48.8211V15.5146H52.1159C54.4732 15.5146 56.3859 17.4154 56.3859 19.7617C56.3859 22.1081 54.4732 24.0088 52.1159 24.0088Z" fill="white"/>
<path d="M77.1853 20.2994C74.8671 19.97 74.6404 19.8486 74.6404 19.1031C74.6404 18.6177 75.3551 18.0457 76.7321 18.0457C77.5513 18.0457 79.1548 18.1843 79.3465 19.5712H81.8566C81.7171 16.6067 78.2833 16.416 76.8541 16.416C75.3027 16.416 72.235 16.7627 72.235 19.3806C72.235 21.4609 73.734 21.825 76.5926 22.189C79.1897 22.5531 79.5905 22.7611 79.5905 23.4893C79.5905 24.3734 78.2658 24.6681 77.0806 24.6681C76.2475 24.6681 74.7328 24.4752 74.5553 23.2466H71.9316C72.125 25.9141 75.1869 26.2977 77.0981 26.2977C79.9567 26.2977 82.2051 25.5003 82.2051 23.1599C82.2051 21.0448 80.2181 20.7154 77.1853 20.2994Z" fill="white"/>
<path d="M136.797 20.2994C134.478 19.97 134.252 19.8486 134.252 19.1031C134.252 18.6177 134.966 18.0457 136.343 18.0457C137.163 18.0457 138.766 18.1843 138.958 19.5712H141.468C141.328 16.6067 137.895 16.416 136.465 16.416C134.914 16.416 131.846 16.7627 131.846 19.3806C131.846 21.4609 133.345 21.825 136.204 22.189C138.801 22.5531 139.202 22.7611 139.202 23.4893C139.202 24.3734 137.877 24.6681 136.692 24.6681C135.859 24.6681 134.344 24.4752 134.167 23.2466H131.543C131.736 25.9141 134.798 26.2977 136.709 26.2977C139.568 26.2977 141.816 25.5003 141.816 23.1599C141.816 21.0448 139.829 20.7154 136.797 20.2994Z" fill="white"/>
<path d="M83.5293 13.5728H85.9347V15.5144H85.1953C84.2752 15.5144 83.5293 14.7725 83.5293 13.8573V13.5728Z" fill="white"/>
<path d="M85.1953 16.7627H85.9347V25.951H83.5293V18.4198C83.5293 17.5046 84.2752 16.7627 85.1953 16.7627Z" fill="white"/>
<path d="M154.857 13.5728H157.263V15.5144H156.523C155.603 15.5144 154.857 14.7725 154.857 13.8573V13.5728Z" fill="white"/>
<path d="M156.523 16.7627H157.263V25.951H154.857V18.4198C154.857 17.5046 155.603 16.7627 156.523 16.7627Z" fill="white"/>
<path d="M124.191 16.7627H126.597V18.6709C126.597 18.7372 126.651 18.791 126.718 18.791H126.732C126.773 18.791 126.812 18.7701 126.834 18.7357C127.489 17.7161 128.286 16.7627 130.118 16.7627H131.076V18.6004H129.543C128.322 18.6004 126.597 19.3632 126.597 21.5129V25.951H124.191V16.7627Z" fill="white"/>
<path d="M96.1661 16.728V17.9601C96.1661 18.0265 96.1121 18.0803 96.0453 18.0803H96.0329C95.9906 18.0803 95.952 18.0579 95.9301 18.0218C95.3585 17.0858 94.176 16.52 92.3315 16.52C88.7582 16.52 87.207 18.8431 87.207 21.2009C87.207 24.6162 89.9088 25.847 92.349 25.847C93.7468 25.847 94.7591 25.4902 95.9124 24.4065C95.9347 24.3855 95.9644 24.3734 95.995 24.3734H96.0453C96.1121 24.3734 96.1661 24.4272 96.1661 24.4936V25.1503C96.1661 26.3465 95.7653 27.8029 93.0114 27.8029H91.383C90.4629 27.8029 89.7169 28.5448 89.7169 29.4598V29.6405H93.081C97.1597 29.6405 98.5715 27.6815 98.5715 25.5145V16.728H96.1661ZM93.0637 24.0093C90.5361 24.0093 89.7169 22.5184 89.7169 21.1661C89.7169 19.5193 91.0417 18.3577 92.8545 18.3577C94.1094 18.3577 96.1661 18.9124 96.1661 21.1315C96.1661 22.8477 94.8938 24.0093 93.0637 24.0093Z" fill="white"/>
<defs>
<linearGradient id="paint0_linear_6874_13638" x1="28.0736" y1="29.6417" x2="28.0736" y2="9.87988" gradientUnits="userSpaceOnUse">
<stop stop-color="#6400E6"/>
<stop offset="0.00798" stop-color="#6501E6"/>
<stop offset="0.21029" stop-color="#8A25EF"/>
<stop offset="0.41265" stop-color="#A741F6"/>
<stop offset="0.61287" stop-color="#BC55FB"/>
<stop offset="0.80988" stop-color="#C861FE"/>
<stop offset="1" stop-color="#CD66FF"/>
</linearGradient>
<linearGradient id="paint1_linear_6874_13638" x1="14.7864" y1="24.8174" x2="24.8956" y2="14.6534" gradientUnits="userSpaceOnUse">
<stop stop-color="#CD66FF"/>
<stop offset="1" stop-color="#FFB3FF"/>
</linearGradient>
</defs>
</svg>