<svg xmlns="http://www.w3.org/2000/svg" width="24" height="24" viewBox="0 0 24 24" fill="none">
<path d="M21.904 22.0123L21.9907 21.0387C22.048 20.4085 21.8737 19.779 21.5005 19.2679C21.1272 18.7569 20.5806 18.3993 19.9629 18.262L16.7948 17.5583V12.5758C16.7947 12.3568 16.7505 12.14 16.6647 11.9385C16.5789 11.737 16.4534 11.5548 16.2956 11.4029C16.1378 11.251 15.951 11.1325 15.7463 11.0545C15.5416 10.9765 15.3234 10.9405 15.1045 10.9488C14.8935 10.9478 14.6844 10.9897 14.4901 11.072C14.2958 11.1542 14.1202 11.2752 13.9741 11.4275C13.828 11.5797 13.7144 11.7602 13.6402 11.9577C13.566 12.1553 13.5328 12.3659 13.5426 12.5767V20.5597L12.261 19.5983C12.0048 19.407 11.6884 19.3144 11.3695 19.3373C11.0506 19.3603 10.7507 19.4973 10.5246 19.7233C10.2985 19.9493 10.1613 20.2491 10.1382 20.568C10.1151 20.8868 10.2076 21.2033 10.3988 21.4596L10.811 22.0088" stroke="#60616C" stroke-width="1.5" stroke-linecap="round" stroke-linejoin="round"/>
<path d="M7.20634 18.1138H3.30159C2.95638 18.1138 2.62532 17.9767 2.38123 17.7326C2.13713 17.4885 2 17.1574 2 16.8122V3.30175C2 2.95655 2.13713 2.62549 2.38123 2.38139C2.62532 2.1373 2.95638 2.00017 3.30159 2.00017H15.0159C15.3611 2.00017 15.6921 2.1373 15.9362 2.38139C16.1803 2.62549 16.3174 2.95655 16.3174 3.30175V7.8573" stroke="#60616C" stroke-width="1.5" stroke-linecap="round" stroke-linejoin="round"/>
<path d="M5.25391 14.2014H10.9478" stroke="#60616C" stroke-width="1.5" stroke-linecap="round" stroke-linejoin="round"/>
<path d="M12.7459 4.44038H5.89608C5.54142 4.44038 5.25391 4.69914 5.25391 5.01834V11.1832C5.25391 11.5024 5.54142 11.7611 5.89608 11.7611H12.7459C13.1005 11.7611 13.388 11.5024 13.388 11.1832V5.01834C13.388 4.69914 13.1005 4.44038 12.7459 4.44038Z" stroke="#60616C" stroke-width="1.5" stroke-linecap="round" stroke-linejoin="round"/>
<path d="M6.06641 5.25388L13.3871 11.7612" stroke="#60616C" stroke-width="1.5" stroke-linecap="round" stroke-linejoin="round"/>
<path d="M12.5737 5.25388L6.06641 10.9478" stroke="#60616C" stroke-width="1.5" stroke-linecap="round" stroke-linejoin="round"/>
</svg>