<svg xmlns="http://www.w3.org/2000/svg" width="40" height="40" viewBox="0 0 40 40" fill="none">
<g clip-path="url(#clip0_6585_55879)">
<g filter="url(#filter0_i_6585_55879)">
<path d="M6.00583 12.7962L19.9999 19.7933L33.9942 12.7961C33.8886 10.958 32.3646 9.5 30.5 9.5H9.5C7.63541 9.5 6.11136 10.9581 6.00583 12.7962Z" fill="white"/>
<path d="M34 15.7063L19.9999 22.7064L6 15.7064V27C6 28.933 7.567 30.5 9.5 30.5H30.5C32.433 30.5 34 28.933 34 27V15.7063Z" fill="white"/>
</g>
<path d="M19.7515 23.2033L19.9999 23.3275L20.2484 23.2033L33.4444 16.6052V27C33.4444 28.6262 32.1262 29.9444 30.5 29.9444H9.5C7.87383 29.9444 6.55556 28.6262 6.55556 27V16.6053L19.7515 23.2033ZM19.9999 19.1721L6.60245 12.4734C6.85053 11.0987 8.05362 10.0556 9.5 10.0556H30.5C31.9464 10.0556 33.1494 11.0987 33.3975 12.4733L19.9999 19.1721Z" stroke="#DFDFE2" stroke-width="1.11111"/>
<path d="M33.8803 16.5479L33.8765 16.5458L33.8633 16.5387C33.852 16.5325 33.8359 16.5237 33.8153 16.5122C33.7741 16.4892 33.7148 16.4556 33.64 16.4115C33.4904 16.3235 33.2784 16.1939 33.0249 16.0254C32.5187 15.6889 31.8423 15.1942 31.1641 14.562C29.822 13.3109 28.3999 11.4521 28.3999 9.16248C28.3999 7.45444 29.837 6.09998 31.5718 6.09998C32.592 6.09998 33.5054 6.56611 34.0874 7.29674C34.6694 6.56611 35.5828 6.09998 36.603 6.09998C38.3378 6.09998 39.7749 7.45444 39.7749 9.16248C39.7749 11.4521 38.3528 13.3109 37.0107 14.562C36.3325 15.1942 35.6561 15.6889 35.1499 16.0254C34.8964 16.1939 34.6844 16.3235 34.5348 16.4115C34.46 16.4556 34.4007 16.4892 34.3595 16.5122C34.3389 16.5237 34.3228 16.5325 34.3115 16.5387L34.2983 16.5458L34.2945 16.5479L34.2929 16.5487C34.1646 16.6169 34.0102 16.6169 33.8819 16.5487L33.8803 16.5479Z" fill="#7C47FF"/>
</g>
<defs>
<filter id="filter0_i_6585_55879" x="6" y="8.38889" width="28" height="22.1111" filterUnits="userSpaceOnUse" color-interpolation-filters="sRGB">
<feFlood flood-opacity="0" result="BackgroundImageFix"/>
<feBlend mode="normal" in="SourceGraphic" in2="BackgroundImageFix" result="shape"/>
<feColorMatrix in="SourceAlpha" type="matrix" values="0 0 0 0 0 0 0 0 0 0 0 0 0 0 0 0 0 0 127 0" result="hardAlpha"/>
<feOffset dy="-1.11111"/>
<feGaussianBlur stdDeviation="2.22222"/>
<feComposite in2="hardAlpha" operator="arithmetic" k2="-1" k3="1"/>
<feColorMatrix type="matrix" values="0 0 0 0 0.745098 0 0 0 0 0.745098 0 0 0 0 0.776471 0 0 0 1 0"/>
<feBlend mode="normal" in2="shape" result="effect1_innerShadow_6585_55879"/>
</filter>
<clipPath id="clip0_6585_55879">
<rect width="40" height="40" fill="white"/>
</clipPath>
</defs>
</svg>