<svg xmlns="http://www.w3.org/2000/svg" width="24" height="25" viewBox="0 0 24 25" fill="none">
<path d="M11.6146 2.5711C11.6506 2.49966 11.7058 2.43962 11.7739 2.39767C11.842 2.35572 11.9204 2.33351 12.0004 2.33351C12.0804 2.33351 12.1589 2.35572 12.227 2.39767C12.2951 2.43962 12.3502 2.49966 12.3862 2.5711L13.2831 4.37914C13.3141 4.44112 13.3597 4.49467 13.4158 4.53523C13.472 4.57578 13.5372 4.60213 13.6058 4.61203L15.6183 4.9027C15.6969 4.91375 15.7709 4.94645 15.8319 4.99716C15.893 5.04787 15.9388 5.11458 15.9641 5.18982C15.9889 5.26477 15.9919 5.34521 15.9729 5.42183C15.9539 5.49844 15.9135 5.5681 15.8565 5.62272L14.4005 7.03964C14.3513 7.08709 14.3144 7.1458 14.2931 7.21069C14.2717 7.27559 14.2665 7.34472 14.2778 7.4121L14.6227 9.40948C14.6357 9.48762 14.6265 9.56785 14.596 9.64096C14.5655 9.71407 14.515 9.7771 14.4503 9.82282C14.3851 9.86934 14.3083 9.89687 14.2284 9.90237C14.1486 9.90786 14.0687 9.89109 13.9978 9.85393L12.2013 8.91702C12.1395 8.88418 12.0705 8.867 12.0004 8.867C11.9304 8.867 11.8614 8.88418 11.7995 8.91702L10.0075 9.85393C9.93658 9.89109 9.85674 9.90786 9.77687 9.90237C9.69699 9.89687 9.6202 9.86934 9.55504 9.82282C9.49034 9.7771 9.43985 9.71407 9.40935 9.64096C9.37884 9.56785 9.36957 9.48762 9.38259 9.40948L9.72749 7.4121C9.73884 7.34472 9.73361 7.27559 9.71223 7.21069C9.69086 7.1458 9.65399 7.08709 9.60482 7.03964L8.14434 5.62272C8.08734 5.5681 8.04699 5.49844 8.02795 5.42183C8.00892 5.34521 8.01198 5.26477 8.03678 5.18982C8.06208 5.11458 8.10783 5.04787 8.16891 4.99716C8.22998 4.94645 8.30396 4.91375 8.38257 4.9027L10.3951 4.61203C10.4636 4.60213 10.5288 4.57578 10.585 4.53523C10.6412 4.49467 10.6867 4.44112 10.7177 4.37914L11.6146 2.5711Z" stroke="#60616C" stroke-width="1.5" stroke-linecap="round" stroke-linejoin="round"/>
<path d="M6.95278 10.6449L6.18565 10.2449C6.12348 10.2125 6.05442 10.1956 5.98431 10.1956C5.91421 10.1956 5.84514 10.2125 5.78297 10.2449L3.99182 11.1783C3.92077 11.2153 3.84087 11.2321 3.76091 11.2268C3.68094 11.2215 3.60398 11.1942 3.53848 11.148C3.47379 11.1021 3.42338 11.0389 3.39303 10.9656C3.36268 10.8924 3.35363 10.812 3.36692 10.7338L3.71093 8.73731C3.72255 8.67 3.71753 8.60088 3.6963 8.53596C3.67507 8.47104 3.63829 8.4123 3.58915 8.36486L2.12778 6.9506C2.07111 6.89576 2.03105 6.82606 2.01219 6.74949C1.99332 6.67293 1.99641 6.59259 2.02111 6.5177C2.04641 6.44246 2.09216 6.37575 2.15323 6.32504C2.21431 6.27434 2.28829 6.24163 2.3669 6.23059L4.3785 5.93991C4.44724 5.93015 4.51259 5.90386 4.56895 5.8633C4.6253 5.82273 4.67098 5.76911 4.70206 5.70702L5.59986 3.89898C5.63573 3.82746 5.69084 3.76736 5.75899 3.72543C5.82714 3.6835 5.90563 3.66141 5.98565 3.66164" stroke="#60616C" stroke-width="1.5" stroke-linecap="round" stroke-linejoin="round"/>
<path d="M17.0469 10.6449L17.814 10.244C17.8762 10.2116 17.9452 10.1947 18.0153 10.1947C18.0854 10.1947 18.1545 10.2116 18.2167 10.244L20.0078 11.1783C20.0789 11.2153 20.1588 11.2321 20.2387 11.2268C20.3187 11.2215 20.3957 11.1942 20.4612 11.148C20.5259 11.1021 20.5763 11.0389 20.6066 10.9656C20.637 10.8924 20.646 10.812 20.6327 10.7338L20.2887 8.73731C20.2771 8.67 20.2821 8.60088 20.3034 8.53596C20.3246 8.47104 20.3614 8.4123 20.4105 8.36486L21.8719 6.94705C21.9285 6.89221 21.9686 6.82251 21.9875 6.74594C22.0063 6.66937 22.0032 6.58904 21.9785 6.51415C21.9532 6.43891 21.9075 6.3722 21.8464 6.32149C21.7853 6.27078 21.7114 6.23807 21.6328 6.22703L19.6212 5.93636C19.5524 5.92659 19.4871 5.9003 19.4307 5.85974C19.3744 5.81918 19.3287 5.76555 19.2976 5.70346L18.3998 3.89898C18.3639 3.82746 18.3088 3.76736 18.2407 3.72543C18.1725 3.6835 18.094 3.66141 18.014 3.66164" stroke="#60616C" stroke-width="1.5" stroke-linecap="round" stroke-linejoin="round"/>
<path d="M16.4666 22.328C15.9094 21.6911 15.2225 21.1808 14.452 20.8311C13.6815 20.4814 12.8451 20.3005 11.9989 20.3005C11.1527 20.3005 10.3164 20.4814 9.54582 20.8311C8.77528 21.1808 8.08841 21.6911 7.53125 22.328" stroke="#60616C" stroke-width="1.5" stroke-linecap="round" stroke-linejoin="round"/>
<path d="M8.33203 15.2993C8.33203 16.2718 8.71835 17.2044 9.406 17.8921C10.0936 18.5797 11.0263 18.966 11.9988 18.966C12.9713 18.966 13.9039 18.5797 14.5916 17.8921C15.2792 17.2044 15.6655 16.2718 15.6655 15.2993C15.6655 14.3268 15.2792 13.3941 14.5916 12.7065C13.9039 12.0188 12.9713 11.6325 11.9988 11.6325C11.0263 11.6325 10.0936 12.0188 9.406 12.7065C8.71835 13.3941 8.33203 14.3268 8.33203 15.2993Z" stroke="#60616C" stroke-width="1.5" stroke-linecap="round" stroke-linejoin="round"/>
</svg>