<svg xmlns="http://www.w3.org/2000/svg" width="36" height="36" viewBox="0 0 36 36" fill="none">
<path d="M17.5376 6.2851C17.5808 6.19938 17.6469 6.12733 17.7287 6.07699C17.8104 6.02665 17.9045 6 18.0005 6C18.0965 6 18.1906 6.02665 18.2724 6.07699C18.3541 6.12733 18.4203 6.19938 18.4635 6.2851L19.5397 8.45475C19.5769 8.52913 19.6316 8.59339 19.699 8.64206C19.7664 8.69072 19.8447 8.72235 19.927 8.73422L22.3419 9.08303C22.4363 9.09628 22.5251 9.13553 22.5983 9.19638C22.6716 9.25723 22.7265 9.33729 22.7569 9.42757C22.7867 9.51751 22.7903 9.61404 22.7675 9.70598C22.7446 9.79792 22.6962 9.8815 22.6278 9.94705L20.8806 11.6474C20.8216 11.7043 20.7773 11.7747 20.7517 11.8526C20.726 11.9305 20.7198 12.0134 20.7334 12.0943L21.1473 14.4912C21.1629 14.5849 21.1517 14.6812 21.1151 14.7689C21.0785 14.8567 21.0179 14.9323 20.9403 14.9872C20.8621 15.043 20.77 15.076 20.6741 15.0826C20.5783 15.0892 20.4825 15.0691 20.3974 15.0245L18.2416 13.9002C18.1673 13.8608 18.0846 13.8402 18.0005 13.8402C17.9165 13.8402 17.8337 13.8608 17.7594 13.9002L15.609 15.0245C15.5239 15.0691 15.4281 15.0892 15.3322 15.0826C15.2364 15.076 15.1442 15.043 15.066 14.9872C14.9884 14.9323 14.9278 14.8567 14.8912 14.7689C14.8546 14.6812 14.8435 14.5849 14.8591 14.4912L15.273 12.0943C15.2866 12.0134 15.2803 11.9305 15.2547 11.8526C15.229 11.7747 15.1848 11.7043 15.1258 11.6474L13.3732 9.94705C13.3048 9.8815 13.2564 9.79792 13.2335 9.70598C13.2107 9.61404 13.2144 9.51751 13.2441 9.42757C13.2745 9.33729 13.3294 9.25723 13.4027 9.19638C13.476 9.13553 13.5648 9.09628 13.6591 9.08303L16.0741 8.73422C16.1564 8.72235 16.2346 8.69072 16.302 8.64206C16.3694 8.59339 16.4241 8.52913 16.4613 8.45475L17.5376 6.2851Z" stroke="#26262B" stroke-width="1.5" stroke-linecap="round" stroke-linejoin="round"/>
<path d="M11.9433 15.9737L11.0228 15.4937C10.9482 15.4548 10.8653 15.4345 10.7812 15.4345C10.697 15.4345 10.6142 15.4548 10.5396 15.4937L8.39019 16.6137C8.30492 16.6582 8.20905 16.6784 8.11309 16.672C8.01713 16.6656 7.92478 16.6329 7.84617 16.5775C7.76855 16.5224 7.70805 16.4465 7.67163 16.3586C7.63521 16.2706 7.62435 16.1742 7.6403 16.0804L8.05311 13.6846C8.06706 13.6038 8.06103 13.5209 8.03556 13.443C8.01009 13.3651 7.96594 13.2946 7.90698 13.2377L6.15334 11.5405C6.08534 11.4747 6.03726 11.3911 6.01462 11.2992C5.99198 11.2073 5.99569 11.1109 6.02533 11.0211C6.0557 10.9308 6.11059 10.8507 6.18388 10.7899C6.25717 10.729 6.34594 10.6898 6.44027 10.6765L8.8542 10.3277C8.93669 10.316 9.01511 10.2845 9.08274 10.2358C9.15036 10.1871 9.20518 10.1228 9.24247 10.0482L10.3198 7.8786C10.3629 7.79277 10.429 7.72065 10.5108 7.67034C10.5926 7.62003 10.6868 7.59352 10.7828 7.59379" stroke="#26262B" stroke-width="1.5" stroke-linecap="round" stroke-linejoin="round"/>
<path d="M24.0566 15.9737L24.9772 15.4926C25.0518 15.4538 25.1347 15.4334 25.2188 15.4334C25.3029 15.4334 25.3858 15.4538 25.4604 15.4926L27.6098 16.6137C27.6951 16.6582 27.7909 16.6784 27.8869 16.672C27.9828 16.6656 28.0752 16.6329 28.1538 16.5775C28.2314 16.5224 28.2919 16.4465 28.3283 16.3586C28.3648 16.2706 28.3756 16.1742 28.3597 16.0804L27.9469 13.6846C27.9329 13.6038 27.9389 13.5209 27.9644 13.443C27.9899 13.3651 28.034 13.2946 28.093 13.2377L29.8466 11.5363C29.9146 11.4705 29.9627 11.3868 29.9854 11.295C30.008 11.2031 30.0043 11.1067 29.9746 11.0168C29.9443 10.9265 29.8894 10.8465 29.8161 10.7856C29.7428 10.7248 29.654 10.6855 29.5597 10.6723L27.1458 10.3235C27.0633 10.3117 26.9849 10.2802 26.9172 10.2315C26.8496 10.1828 26.7948 10.1185 26.7575 10.044L25.6801 7.8786C25.6371 7.79277 25.571 7.72065 25.4892 7.67034C25.4074 7.62003 25.3132 7.59352 25.2172 7.59379" stroke="#26262B" stroke-width="1.5" stroke-linecap="round" stroke-linejoin="round"/>
<path d="M23.363 29.9933C22.6944 29.2291 21.8702 28.6167 20.9455 28.1971C20.0209 27.7775 19.0172 27.5604 18.0018 27.5604C16.9864 27.5604 15.9828 27.7775 15.0581 28.1971C14.1335 28.6167 13.3092 29.2291 12.6406 29.9933" stroke="#26262B" stroke-width="1.5" stroke-linecap="round" stroke-linejoin="round"/>
<path d="M13.5996 21.559C13.5996 22.7259 14.0632 23.8451 14.8884 24.6703C15.7135 25.4955 16.8327 25.9591 17.9997 25.9591C19.1667 25.9591 20.2859 25.4955 21.1111 24.6703C21.9362 23.8451 22.3998 22.7259 22.3998 21.559C22.3998 20.392 21.9362 19.2728 21.1111 18.4476C20.2859 17.6224 19.1667 17.1589 17.9997 17.1589C16.8327 17.1589 15.7135 17.6224 14.8884 18.4476C14.0632 19.2728 13.5996 20.392 13.5996 21.559Z" stroke="#26262B" stroke-width="1.5" stroke-linecap="round" stroke-linejoin="round"/>
</svg>