<svg width="21" height="21" viewBox="0 0 21 21" fill="none" xmlns="http://www.w3.org/2000/svg">
<g clip-path="url(#clip0_56_1975)">
<g clip-path="url(#clip1_56_1975)">
<g clip-path="url(#clip2_56_1975)">
<mask id="mask0_56_1975" style="mask-type:luminance" maskUnits="userSpaceOnUse" x="0" y="1" width="20" height="20">
<path d="M19.8865 1.36914H0.66803V20.5876H19.8865V1.36914Z" fill="white"/>
</mask>
<g mask="url(#mask0_56_1975)">
<path d="M10.2773 3.09956C12.8448 3.09956 13.1488 3.11082 14.1585 3.15586C15.0969 3.19715 15.6037 3.35481 15.9415 3.48618C16.3882 3.65885 16.711 3.86905 17.0451 4.20312C17.3829 4.54095 17.5893 4.86001 17.762 5.30669C17.8934 5.64451 18.051 6.155 18.0923 7.08965C18.1374 8.10313 18.1486 8.40717 18.1486 10.9709C18.1486 13.5384 18.1374 13.8424 18.0923 14.8521C18.051 15.7905 17.8934 16.2973 17.762 16.6351C17.5893 17.0818 17.3791 17.4046 17.0451 17.7387C16.7072 18.0765 16.3882 18.2829 15.9415 18.4556C15.6037 18.587 15.0932 18.7446 14.1585 18.7859C13.1451 18.831 12.841 18.8422 10.2773 18.8422C7.70981 18.8422 7.40577 18.831 6.39605 18.7859C5.45764 18.7446 4.9509 18.587 4.61308 18.4556C4.1664 18.2829 3.84359 18.0727 3.50951 17.7387C3.17169 17.4008 2.96524 17.0818 2.79257 16.6351C2.6612 16.2973 2.50355 15.7868 2.46226 14.8521C2.41721 13.8387 2.40595 13.5346 2.40595 10.9709C2.40595 8.40342 2.41721 8.09938 2.46226 7.08965C2.50355 6.15125 2.6612 5.64451 2.79257 5.30669C2.96524 4.86001 3.17544 4.5372 3.50951 4.20312C3.84734 3.8653 4.1664 3.65885 4.61308 3.48618C4.9509 3.35481 5.4614 3.19715 6.39605 3.15586C7.40577 3.11082 7.70981 3.09956 10.2773 3.09956ZM10.2773 1.36914C7.66852 1.36914 7.34196 1.3804 6.31722 1.42544C5.29624 1.47049 4.59431 1.63565 3.98622 1.87213C3.35186 2.11987 2.8151 2.44643 2.28208 2.9832C1.74531 3.51621 1.41875 4.05298 1.17101 4.68359C0.934537 5.29543 0.769378 5.9936 0.724334 7.01458C0.679291 8.04307 0.66803 8.36964 0.66803 10.9784C0.66803 13.5872 0.679291 13.9137 0.724334 14.9385C0.769378 15.9594 0.934537 16.6614 1.17101 17.2695C1.41875 17.9038 1.74531 18.4406 2.28208 18.9736C2.8151 19.5066 3.35186 19.8369 3.98247 20.0809C4.59431 20.3174 5.29248 20.4826 6.31347 20.5276C7.3382 20.5726 7.66477 20.5839 10.2735 20.5839C12.8823 20.5839 13.2089 20.5726 14.2336 20.5276C15.2546 20.4826 15.9565 20.3174 16.5646 20.0809C17.1952 19.8369 17.732 19.5066 18.265 18.9736C18.798 18.4406 19.1283 17.9038 19.3723 17.2732C19.6088 16.6614 19.774 15.9632 19.819 14.9422C19.864 13.9175 19.8753 13.5909 19.8753 10.9822C19.8753 8.37339 19.864 8.04683 19.819 7.02209C19.774 6.00111 19.6088 5.29918 19.3723 4.69109C19.1358 4.05298 18.8093 3.51621 18.2725 2.9832C17.7395 2.45018 17.2027 2.11987 16.5721 1.87588C15.9603 1.6394 15.2621 1.47424 14.2411 1.4292C13.2126 1.3804 12.8861 1.36914 10.2773 1.36914Z" fill="#38A17E"/>
<path d="M10.2779 6.04248C7.55274 6.04248 5.34186 8.25336 5.34186 10.9785C5.34186 13.7037 7.55274 15.9145 10.2779 15.9145C13.003 15.9145 15.2139 13.7037 15.2139 10.9785C15.2139 8.25336 13.003 6.04248 10.2779 6.04248ZM10.2779 14.1804C8.50991 14.1804 7.07603 12.7465 7.07603 10.9785C7.07603 9.21053 8.50991 7.77665 10.2779 7.77665C12.0458 7.77665 13.4797 9.21053 13.4797 10.9785C13.4797 12.7465 12.0458 14.1804 10.2779 14.1804Z" fill="#38A17E"/>
<path d="M16.5607 5.84718C16.5607 6.48529 16.0427 6.99954 15.4083 6.99954C14.7702 6.99954 14.2559 6.48154 14.2559 5.84718C14.2559 5.20906 14.7739 4.69482 15.4083 4.69482C16.0427 4.69482 16.5607 5.21282 16.5607 5.84718Z" fill="#38A17E"/>
</g>
</g>
</g>
</g>
<defs>
<clipPath id="clip0_56_1975">
<rect width="20" height="20" fill="white" transform="translate(0.419983 0.64502)"/>
</clipPath>
<clipPath id="clip1_56_1975">
<rect width="20" height="20" fill="white" transform="translate(0.419983 0.64502)"/>
</clipPath>
<clipPath id="clip2_56_1975">
<rect width="20" height="20" fill="white" transform="translate(0.419983 0.64502)"/>
</clipPath>
</defs>
</svg>
