<svg xmlns="http://www.w3.org/2000/svg" width="20" height="20" viewBox="0 0 20 20" fill="none">
<g clip-path="url(#clip0_6195_10071)">
<path d="M9.8573 2.45466C12.4248 2.45466 12.7288 2.46592 13.7385 2.51096C14.6769 2.55225 15.1837 2.70991 15.5215 2.84128C15.9682 3.01395 16.291 3.22415 16.6251 3.55822C16.9629 3.89605 17.1693 4.21511 17.342 4.66179C17.4734 4.99961 17.631 5.5101 17.6723 6.44475C17.7174 7.45823 17.7286 7.76227 17.7286 10.326C17.7286 12.8935 17.7174 13.1975 17.6723 14.2072C17.631 15.1456 17.4734 15.6524 17.342 15.9902C17.1693 16.4369 16.9591 16.7597 16.6251 17.0938C16.2872 17.4316 15.9682 17.638 15.5215 17.8107C15.1837 17.9421 14.6732 18.0997 13.7385 18.141C12.7251 18.1861 12.421 18.1973 9.8573 18.1973C7.28983 18.1973 6.98579 18.1861 5.97607 18.141C5.03766 18.0997 4.53092 17.9421 4.1931 17.8107C3.74642 17.638 3.42361 17.4278 3.08953 17.0938C2.75171 16.7559 2.54526 16.4369 2.37259 15.9902C2.24122 15.6524 2.08357 15.1419 2.04228 14.2072C1.99723 13.1938 1.98597 12.8897 1.98597 10.326C1.98597 7.75852 1.99723 7.45448 2.04228 6.44475C2.08357 5.50635 2.24122 4.99961 2.37259 4.66179C2.54526 4.21511 2.75546 3.8923 3.08953 3.55822C3.42736 3.2204 3.74642 3.01395 4.1931 2.84128C4.53092 2.70991 5.04142 2.55225 5.97607 2.51096C6.98579 2.46592 7.28983 2.45466 9.8573 2.45466ZM9.8573 0.724243C7.24854 0.724243 6.92198 0.735504 5.89724 0.780547C4.87626 0.825591 4.17433 0.99075 3.56624 1.22723C2.93188 1.47497 2.39512 1.80153 1.8621 2.3383C1.32533 2.87131 0.99877 3.40808 0.751031 4.03869C0.514554 4.65053 0.349395 5.3487 0.304351 6.36968C0.259308 7.39817 0.248047 7.72474 0.248047 10.3335C0.248047 12.9423 0.259308 13.2688 0.304351 14.2936C0.349395 15.3145 0.514554 16.0165 0.751031 16.6246C0.99877 17.2589 1.32533 17.7957 1.8621 18.3287C2.39512 18.8617 2.93188 19.192 3.56249 19.436C4.17433 19.6725 4.8725 19.8377 5.89349 19.8827C6.91822 19.9277 7.24479 19.939 9.85355 19.939C12.4623 19.939 12.7889 19.9277 13.8136 19.8827C14.8346 19.8377 15.5365 19.6725 16.1446 19.436C16.7752 19.192 17.312 18.8617 17.845 18.3287C18.378 17.7957 18.7083 17.2589 18.9523 16.6283C19.1888 16.0165 19.354 15.3183 19.399 14.2973C19.444 13.2726 19.4553 12.946 19.4553 10.3373C19.4553 7.72849 19.444 7.40193 19.399 6.37719C19.354 5.35621 19.1888 4.65428 18.9523 4.04619C18.7158 3.40808 18.3893 2.87131 17.8525 2.3383C17.3195 1.80528 16.7827 1.47497 16.1521 1.23098C15.5403 0.994503 14.8421 0.829344 13.8211 0.784301C12.7926 0.735504 12.4661 0.724243 9.8573 0.724243Z" fill="#7F8090"/>
<path d="M9.85788 5.39752C7.13276 5.39752 4.92188 7.6084 4.92188 10.3335C4.92188 13.0587 7.13276 15.2695 9.85788 15.2695C12.583 15.2695 14.7939 13.0587 14.7939 10.3335C14.7939 7.6084 12.583 5.39752 9.85788 5.39752ZM9.85788 13.5354C8.08993 13.5354 6.65605 12.1015 6.65605 10.3335C6.65605 8.56557 8.08993 7.13169 9.85788 7.13169C11.6258 7.13169 13.0597 8.56557 13.0597 10.3335C13.0597 12.1015 11.6258 13.5354 9.85788 13.5354Z" fill="#7F8090"/>
<path d="M16.1407 5.20229C16.1407 5.8404 15.6227 6.35465 14.9883 6.35465C14.3502 6.35465 13.8359 5.83665 13.8359 5.20229C13.8359 4.56417 14.3539 4.04993 14.9883 4.04993C15.6227 4.04993 16.1407 4.56793 16.1407 5.20229Z" fill="#7F8090"/>
</g>
<defs>
<clipPath id="clip0_6195_10071">
<rect width="19.2185" height="19.2185" fill="white" transform="translate(0.248047 0.724243)"/>
</clipPath>
</defs>
</svg>