<svg width="25" height="25" viewBox="0 0 25 25" fill="none" xmlns="http://www.w3.org/2000/svg">
<path fill-rule="evenodd" clip-rule="evenodd" d="M16.6 4.18359H8.59998C5.83856 4.18359 3.59998 6.42217 3.59998 9.18359V17.1836C3.59998 19.945 5.83856 22.1836 8.59998 22.1836H16.6C19.3614 22.1836 21.6 19.945 21.6 17.1836V9.18359C21.6 6.42217 19.3614 4.18359 16.6 4.18359ZM19.85 17.1836C19.8445 18.9762 18.3926 20.4281 16.6 20.4336H8.59998C6.80733 20.4281 5.35547 18.9762 5.34998 17.1836V9.18359C5.35547 7.39094 6.80733 5.93908 8.59998 5.93359H16.6C18.3926 5.93908 19.8445 7.39094 19.85 9.18359V17.1836ZM17.35 9.43359C17.9023 9.43359 18.35 8.98587 18.35 8.43359C18.35 7.88131 17.9023 7.43359 17.35 7.43359C16.7977 7.43359 16.35 7.88131 16.35 8.43359C16.35 8.98587 16.7977 9.43359 17.35 9.43359ZM12.6 8.68359C10.1147 8.68359 8.09998 10.6983 8.09998 13.1836C8.09998 15.6689 10.1147 17.6836 12.6 17.6836C15.0853 17.6836 17.1 15.6689 17.1 13.1836C17.1027 11.9893 16.6294 10.8432 15.7849 9.99867C14.9404 9.15418 13.7943 8.68093 12.6 8.68359ZM9.84998 13.1836C9.84998 14.7024 11.0812 15.9336 12.6 15.9336C14.1188 15.9336 15.35 14.7024 15.35 13.1836C15.35 11.6648 14.1188 10.4336 12.6 10.4336C11.0812 10.4336 9.84998 11.6648 9.84998 13.1836Z" fill="#bdfe00"/>
</svg>
