<?xml version="1.0" encoding="UTF-8"?>
<svg id="Layer_2" data-name="Layer 2" xmlns="http://www.w3.org/2000/svg" viewBox="0 0 2129.38 633.56">
  <defs>
    <style>
      .cls-1 {
        fill: #bdfe00;
      }

      .cls-2 {
        isolation: isolate;
      }
    </style>
  </defs>
  <g id="Layer_1-2" data-name="Layer 1">
    <g>
      <path class="cls-1" d="M0,542.72l234.35-86.31V106.02L0,192.33v350.4Z"/>
      <path class="cls-1" d="M234.35,633.56l234.35-86.31v-177.46l-234.35,86.31v177.46Z"/>
      <polygon class="cls-1" points="0 542.72 234.35 456.42 234.35 633.56 0 542.72"/>
      <path class="cls-1" d="M759.3,90.83l-234.35,86.31v350.4l234.35-86.31V90.83Z"/>
      <path class="cls-1" d="M524.95,0l-234.35,86.31v177.46l234.35-86.31V0Z"/>
      <polygon class="cls-1" points="759.3 90.83 524.95 177.14 524.95 0 759.3 90.83"/>
      <g>
        <g class="cls-2">
          <g class="cls-2">
            <path class="cls-1" d="M954.53,223.68h-111.56V93.76h36.46v97.16h75.1v32.77Z"/>
            <path class="cls-1" d="M997.43,223.68h-40.91l55.97-129.93h52.18l56.25,129.93h-41.86l-9.94-24.05h-61.65l-10.04,24.05ZM1028.78,148.59l-7.48,18.28h34.47l-7.58-18.28-8.52-21.88h-2.56l-8.33,21.88Z"/>
            <path class="cls-1" d="M1161.17,223.68h-36.46V93.76h38.83l36.08,48.68,19.03,29.83h2.46l-1.7-28.32v-50.19h36.46v129.93h-38.83l-38.35-50-16.48-25.66h-2.56l1.52,24.81v50.85Z"/>
            <path class="cls-1" d="M1330.3,225.58c-20.27,0-36.13-6.03-47.59-18.09s-17.19-28.32-17.19-48.77,6.68-36.73,20.03-48.82c13.35-12.09,31.77-18.14,55.26-18.14,21.97,0,39.16,4.58,51.56,13.73s18.61,21.78,18.61,37.88v1.33h-40.72v-1.33c0-6.12-2.23-10.43-6.68-12.93s-12.39-3.74-23.82-3.74c-5.81,0-10.64.3-14.49.9s-7.2,1.58-10.04,2.94-5.02,3.3-6.53,5.82-2.62,5.56-3.31,9.09-1.04,7.95-1.04,13.26c0,6.63.49,11.93,1.47,15.91s2.79,7.21,5.45,9.71,6.05,4.18,10.18,5.07,9.61,1.33,16.43,1.33c13.95,0,23.31-.68,28.08-2.04s7.56-4.44,8.38-9.23h-39.96v-26.8h76.8v71.02h-33.9v-27.75h-1.99c-4.55,19.76-19.54,29.64-44.98,29.64Z"/>
            <path class="cls-1" d="M1537.31,210.76c-11.05,9.88-27.62,14.82-49.72,14.82s-38.68-4.94-49.76-14.82c-11.08-9.88-16.62-23.72-16.62-41.53v-75.48h36.46v72.54c0,6.44.79,11.3,2.37,14.58s4.5,5.68,8.76,7.2,10.53,2.27,18.8,2.27c6.25,0,11.27-.36,15.06-1.09s6.8-2.08,9.04-4.07,3.76-4.42,4.55-7.29,1.18-6.74,1.18-11.6v-72.54h36.46v75.48c0,17.8-5.52,31.65-16.57,41.53Z"/>
            <path class="cls-1" d="M1597.92,223.68h-40.91l55.97-129.93h52.18l56.25,129.93h-41.86l-9.94-24.05h-61.65l-10.04,24.05ZM1629.27,148.59l-7.48,18.28h34.47l-7.58-18.28-8.52-21.88h-2.56l-8.33,21.88Z"/>
            <path class="cls-1" d="M1788.08,225.58c-20.27,0-36.13-6.03-47.59-18.09-11.46-12.06-17.19-28.32-17.19-48.77s6.68-36.73,20.03-48.82,31.77-18.14,55.26-18.14c21.97,0,39.16,4.58,51.56,13.73s18.61,21.78,18.61,37.88v1.33h-40.72v-1.33c0-6.12-2.23-10.43-6.68-12.93s-12.39-3.74-23.82-3.74c-5.81,0-10.64.3-14.49.9s-7.2,1.58-10.04,2.94-5.02,3.3-6.53,5.82-2.62,5.56-3.31,9.09-1.04,7.95-1.04,13.26c0,6.63.49,11.93,1.47,15.91s2.79,7.21,5.45,9.71,6.05,4.18,10.18,5.07,9.61,1.33,16.43,1.33c13.95,0,23.31-.68,28.08-2.04s7.56-4.44,8.38-9.23h-39.96v-26.8h76.8v71.02h-33.9v-27.75h-1.99c-4.55,19.76-19.54,29.64-44.98,29.64Z"/>
            <path class="cls-1" d="M1995.19,223.68h-115.44V93.76h115.44v32.77h-78.98v15.53h76.04v32.58h-76.04v16.29h78.98v32.77Z"/>
            <path class="cls-1" d="M2068.49,225.58c-20.52,0-36.32-3.84-47.4-11.51s-16.62-19.52-16.62-35.56v-1.14h36.46v4.07c0,3.09.62,5.37,1.85,6.82s3.77,2.51,7.62,3.17,9.88.99,18.09.99c7.32,0,12.72-.25,16.19-.76s5.71-1.25,6.72-2.23,1.52-2.51,1.52-4.59c0-2.4-.88-4.17-2.65-5.3s-5.27-2.02-10.51-2.65l-40.72-5.4c-12.06-1.64-21.15-5.62-27.27-11.93s-9.19-14.74-9.19-25.28c0-4.29.66-8.43,1.99-12.41s3.57-7.81,6.72-11.51,7.09-6.9,11.79-9.61,10.69-4.89,17.95-6.53,15.44-2.46,24.53-2.46c20.2,0,35.43,4.14,45.69,12.41s15.39,19.86,15.39,34.75v1.14h-36.46v-2.84c0-3.28-.68-5.76-2.04-7.43s-4.07-2.92-8.14-3.74-10.18-1.23-18.32-1.23c-8.9,0-14.9.62-17.99,1.85s-4.64,3.33-4.64,6.3c0,2.08.68,3.65,2.04,4.69s3.77,1.78,7.24,2.23l40.72,6.06c26.89,3.91,40.34,16.45,40.34,37.6,0,4.61-.69,8.93-2.08,12.97s-3.65,7.86-6.77,11.46-7.01,6.69-11.65,9.28-10.4,4.62-17.28,6.11-14.58,2.23-23.11,2.23Z"/>
          </g>
        </g>
        <g class="cls-2">
          <g class="cls-2">
            <path class="cls-1" d="M928.02,412.46h-36.46v-97.16h-45.93v-32.77h128.13v32.77h-45.74v97.16Z"/>
            <path class="cls-1" d="M1097.81,399.53c-11.05,9.88-27.62,14.82-49.72,14.82s-38.68-4.94-49.76-14.82-16.62-23.72-16.62-41.53v-75.48h36.46v72.54c0,6.44.79,11.3,2.37,14.58,1.58,3.28,4.5,5.68,8.76,7.2s10.53,2.27,18.8,2.27c6.25,0,11.27-.36,15.06-1.09s6.8-2.08,9.04-4.07c2.24-1.99,3.75-4.42,4.55-7.29.79-2.87,1.18-6.74,1.18-11.6v-72.54h36.46v75.48c0,17.8-5.52,31.65-16.57,41.53Z"/>
            <path class="cls-1" d="M1204.73,412.46h-36.46v-97.16h-45.93v-32.77h128.13v32.77h-45.74v97.16Z"/>
            <path class="cls-1" d="M1329.26,414.35c-22.41,0-40.01-6.03-52.8-18.09s-19.18-28.32-19.18-48.77,6.39-36.73,19.18-48.82c12.78-12.09,30.38-18.14,52.8-18.14s40.69,6.03,53.51,18.09c12.82,12.06,19.22,28.35,19.22,48.87s-6.39,36.79-19.18,48.82c-12.78,12.03-30.64,18.04-53.55,18.04ZM1329.26,379.5c6.88,0,12.39-.44,16.53-1.33s7.56-2.57,10.27-5.07,4.58-5.75,5.59-9.75,1.52-9.3,1.52-15.86-.51-11.85-1.52-15.86-2.87-7.26-5.59-9.75-6.14-4.18-10.27-5.07-9.64-1.33-16.53-1.33-12.28.44-16.38,1.33-7.45,2.57-10.04,5.07-4.36,5.73-5.3,9.71-1.42,9.28-1.42,15.91.47,11.93,1.42,15.91,2.71,7.21,5.3,9.71,5.93,4.18,10.04,5.07,9.56,1.33,16.38,1.33Z"/>
            <path class="cls-1" d="M1448.02,412.46h-36.46v-129.93h75.85c17.05,0,30.04,3.44,38.97,10.32s13.4,16.7,13.4,29.45c0,10.48-2.81,18.7-8.43,24.67-5.62,5.97-14.52,9.71-26.71,11.22v1.89c4.29,1.14,7.89,2.7,10.8,4.69s5.13,4.07,6.68,6.25,3.24,5.13,5.07,8.85l16.1,32.58h-42.05l-15.53-31.82c-1.64-3.41-3.28-5.95-4.92-7.62s-3.82-2.89-6.53-3.65-6.47-1.14-11.27-1.14h-14.96v44.22ZM1448.02,315.3v25.76h39.02c5.62,0,9.45-.84,11.51-2.51s3.08-5.16,3.08-10.46-1.06-8.44-3.17-10.18-5.92-2.6-11.41-2.6h-39.02Z"/>
          </g>
        </g>
      </g>
    </g>
  </g>
</svg>