<svg width="25" height="25" viewBox="0 0 25 25" fill="none" xmlns="http://www.w3.org/2000/svg">
<path fill-rule="evenodd" clip-rule="evenodd" d="M5.09998 4.18359C4.27155 4.18359 3.59998 4.85516 3.59998 5.68359V20.6836C3.59998 21.512 4.27155 22.1836 5.09998 22.1836H20.1C20.9284 22.1836 21.6 21.512 21.6 20.6836V5.68359C21.6 4.85516 20.9284 4.18359 20.1 4.18359H5.09998ZM9.12074 8.18631C9.12637 9.14256 8.41059 9.73178 7.56121 9.72756C6.76105 9.72334 6.06355 9.08631 6.06777 8.18772C6.07199 7.34256 6.73996 6.66334 7.60762 6.68303C8.48793 6.70272 9.12637 7.34819 9.12074 8.18631ZM12.8797 10.9453H10.3597H10.3583V19.5052H13.0217V19.3055C13.0217 18.9256 13.0214 18.5456 13.0211 18.1655C13.0203 17.1517 13.0194 16.1368 13.0246 15.1233C13.026 14.8772 13.0372 14.6213 13.1005 14.3864C13.3381 13.5089 14.1271 12.9422 15.0074 13.0815C15.5727 13.17 15.9467 13.4977 16.1042 14.0307C16.2013 14.3639 16.2449 14.7225 16.2491 15.0699C16.2605 16.1175 16.2589 17.1651 16.2573 18.2128C16.2567 18.5826 16.2561 18.9526 16.2561 19.3224V19.5038H18.928V19.2985C18.928 18.8465 18.9278 18.3946 18.9275 17.9427C18.927 16.8132 18.9264 15.6837 18.9294 14.5538C18.9308 14.0433 18.876 13.5399 18.7508 13.0463C18.5638 12.3122 18.1771 11.7047 17.5485 11.266C17.1027 10.9538 16.6133 10.7527 16.0663 10.7302C16.004 10.7276 15.9412 10.7242 15.8781 10.7208C15.5984 10.7057 15.3141 10.6903 15.0467 10.7443C14.2817 10.8975 13.6096 11.2477 13.1019 11.865C13.0429 11.9358 12.9852 12.0077 12.8991 12.115L12.8797 12.1393V10.9453ZM6.28162 19.508H8.9324V10.9509H6.28162V19.508Z" fill="#bdfe00"/>
</svg>
