<svg xmlns="http://www.w3.org/2000/svg" width="20" height="20" viewBox="0 0 20 20" fill="none">
<g clip-path="url(#clip0_6195_10070)">
<path d="M18.2959 0.724243H1.91887C1.13436 0.724243 0.5 1.34359 0.5 2.10933V18.5539C0.5 19.3197 1.13436 19.9428 1.91887 19.9428H18.2959C19.0804 19.9428 19.7185 19.3197 19.7185 18.5577V2.10933C19.7185 1.34359 19.0804 0.724243 18.2959 0.724243ZM6.20174 17.1013H3.34899V7.92743H6.20174V17.1013ZM4.77537 6.67748C3.85949 6.67748 3.12002 5.93802 3.12002 5.02589C3.12002 4.11376 3.85949 3.3743 4.77537 3.3743C5.6875 3.3743 6.42696 4.11376 6.42696 5.02589C6.42696 5.93426 5.6875 6.67748 4.77537 6.67748ZM16.877 17.1013H14.028V12.642C14.028 11.5797 14.0093 10.2096 12.5454 10.2096C11.0627 10.2096 10.8375 11.3695 10.8375 12.5669V17.1013H7.99222V7.92743H10.7248V9.18114H10.7624C11.1415 8.46045 12.0724 7.69846 13.4575 7.69846C16.344 7.69846 16.877 9.59779 16.877 12.0677V17.1013Z" fill="#7F8090"/>
</g>
<defs>
<clipPath id="clip0_6195_10070">
<rect width="19.2185" height="19.2185" fill="white" transform="translate(0.5 0.724243)"/>
</clipPath>
</defs>
</svg>