<svg width="21" height="21" viewBox="0 0 21 21" fill="none" xmlns="http://www.w3.org/2000/svg">
<g clip-path="url(#clip0_56_1965)">
<g clip-path="url(#clip1_56_1965)">
<g clip-path="url(#clip2_56_1965)">
<mask id="mask0_56_1965" style="mask-type:luminance" maskUnits="userSpaceOnUse" x="0" y="1" width="21" height="20">
<path d="M20.1385 1.36914H0.919983V20.5876H20.1385V1.36914Z" fill="white"/>
</mask>
<g mask="url(#mask0_56_1965)">
<path d="M18.7159 1.36914H2.33885C1.55434 1.36914 0.919983 1.98849 0.919983 2.75423V19.1988C0.919983 19.9646 1.55434 20.5877 2.33885 20.5877H18.7159C19.5004 20.5877 20.1385 19.9646 20.1385 19.2026V2.75423C20.1385 1.98849 19.5004 1.36914 18.7159 1.36914ZM6.62172 17.7462H3.76897V8.57233H6.62172V17.7462ZM5.19535 7.32238C4.27947 7.32238 3.54 6.58292 3.54 5.67079C3.54 4.75866 4.27947 4.0192 5.19535 4.0192C6.10748 4.0192 6.84694 4.75866 6.84694 5.67079C6.84694 6.57916 6.10748 7.32238 5.19535 7.32238ZM17.297 17.7462H14.448V13.2869C14.448 12.2246 14.4293 10.8545 12.9654 10.8545C11.4827 10.8545 11.2575 12.0144 11.2575 13.2118V17.7462H8.4122V8.57233H11.1448V9.82604H11.1824C11.5615 9.10535 12.4924 8.34336 13.8775 8.34336C16.764 8.34336 17.297 10.2427 17.297 12.7126V17.7462Z" fill="#38A17E"/>
</g>
</g>
</g>
</g>
<defs>
<clipPath id="clip0_56_1965">
<rect width="20" height="20" fill="white" transform="translate(0.419983 0.64502)"/>
</clipPath>
<clipPath id="clip1_56_1965">
<rect width="20" height="20" fill="white" transform="translate(0.419983 0.64502)"/>
</clipPath>
<clipPath id="clip2_56_1965">
<rect width="20" height="20" fill="white" transform="translate(0.419983 0.64502)"/>
</clipPath>
</defs>
</svg>
