<svg xmlns="http://www.w3.org/2000/svg" width="22" height="20" viewBox="0 0 22 20" fill="none">
<path d="M18.114 3.63591C21.6287 7.15063 21.6287 12.8491 18.114 16.3638M15.4626 6.28765C17.5129 8.3379 17.5129 11.662 15.4626 13.7123M5.75 6.24993L10.4697 1.53026C10.9421 1.05778 11.75 1.39241 11.75 2.06059V17.9393C11.75 18.6074 10.9421 18.9421 10.4697 18.4696L5.75 13.7499H3.50905C2.62971 13.7499 1.8059 13.2435 1.57237 12.3957C1.36224 11.6329 1.25 10.8295 1.25 9.99993C1.25 9.17034 1.36224 8.36696 1.57237 7.60416C1.8059 6.7564 2.62971 6.24993 3.50905 6.24993H5.75Z" stroke="#6B7280" stroke-width="1.5" stroke-linecap="round" stroke-linejoin="round"/>
</svg>