<svg xmlns="http://www.w3.org/2000/svg" width="24" height="24" viewBox="0 0 24 24" fill="none">
<path d="M4.8544 9.74294C4.60289 11.6669 4.45011 13.6218 4.40131 15.6026C7.07479 16.7188 9.61758 18.0855 12.0003 19.6734C14.3831 18.0855 16.9259 16.7188 19.5994 15.6026C19.5506 13.6218 19.3978 11.6669 19.1463 9.74298M4.8544 9.74294C4.04598 9.47121 3.22775 9.22082 2.40039 8.99245C5.39643 6.8924 8.60993 5.08145 12.0004 3.6001C15.3909 5.08145 18.6044 6.89241 21.6004 8.99247C20.773 9.22084 19.9547 9.47124 19.1463 9.74298M4.8544 9.74294C7.33518 10.5768 9.72363 11.6117 12.0004 12.8282C14.2771 11.6117 16.6656 10.5768 19.1463 9.74298M7.15371 14.2234C7.5361 14.2234 7.84609 13.9134 7.84609 13.531C7.84609 13.1486 7.5361 12.8387 7.15371 12.8387C6.77133 12.8387 6.46134 13.1486 6.46134 13.531C6.46134 13.9134 6.77133 14.2234 7.15371 14.2234ZM7.15371 14.2234V10.8303C8.71523 9.86004 10.3328 8.97145 12.0003 8.17046M5.53138 18.8324C6.61293 17.7509 7.15371 16.3333 7.15371 14.9158V13.531" stroke="#6B7280" stroke-width="1.5" stroke-linecap="round" stroke-linejoin="round"/>
</svg>