<svg width="38" height="28" viewBox="0 0 38 28" fill="none" xmlns="http://www.w3.org/2000/svg">
<path d="M37.0581 14.0105C37.0581 21.5565 30.9421 27.6726 23.396 27.6726H14.4922V0.348389H23.396C30.9421 0.348389 37.0581 6.46671 37.0581 14.0105Z" fill="url(#paint0_linear_6838_4267)"/>
<path d="M19.8757 23.9862C19.9987 25.2568 20.3972 26.4317 21.0074 27.4632C21.0461 27.5338 21.0894 27.6021 21.1327 27.6727H14.4922V14.7688H27.4651C22.8222 15.2196 19.4249 19.3456 19.8757 23.9862Z" fill="#6400E6"/>
<path d="M28.1524 14.014V14.0143C28.1524 14.4075 27.8532 14.7336 27.462 14.7728C23.1293 15.2075 19.3938 17.6667 17.2135 21.1901C16.1534 22.9057 15.4603 24.8753 15.2497 26.9852C15.2106 27.3762 14.8843 27.6751 14.4913 27.6751C14.0981 27.6751 13.7719 27.376 13.7328 26.9848C13.0878 20.5425 7.96273 15.4175 1.51843 14.7727C1.12721 14.7335 0.828125 14.4073 0.828125 14.0141C0.828125 13.621 1.12723 13.2946 1.51846 13.2555C7.96483 12.6109 13.0882 7.48753 13.7328 1.04117C13.772 0.649938 14.0982 0.35083 14.4913 0.35083C14.8845 0.35083 15.2108 0.649926 15.2499 1.04115C15.8947 7.48551 21.0178 12.6106 27.4621 13.2555C27.8533 13.2946 28.1524 13.6208 28.1524 14.014Z" fill="url(#paint1_linear_6838_4267)"/>
<defs>
<linearGradient id="paint0_linear_6838_4267" x1="25.7752" y1="27.6726" x2="25.7752" y2="0.348389" gradientUnits="userSpaceOnUse">
<stop stop-color="#6400E6"/>
<stop offset="0.00798" stop-color="#6501E6"/>
<stop offset="0.21029" stop-color="#8A25EF"/>
<stop offset="0.41265" stop-color="#A741F6"/>
<stop offset="0.61287" stop-color="#BC55FB"/>
<stop offset="0.80988" stop-color="#C861FE"/>
<stop offset="1" stop-color="#CD66FF"/>
</linearGradient>
<linearGradient id="paint1_linear_6838_4267" x1="7.50182" y1="21.0026" x2="21.4798" y2="7.02453" gradientUnits="userSpaceOnUse">
<stop stop-color="#CD66FF"/>
<stop offset="1" stop-color="#FFB3FF"/>
</linearGradient>
</defs>
</svg>
