<svg width="115" height="23" viewBox="0 0 115 23" fill="none" xmlns="http://www.w3.org/2000/svg">
<path d="M13.4866 14.519C13.4866 15.6073 13.7255 16.4428 14.0377 16.9483C14.447 17.6103 15.0575 17.8908 15.68 17.8908C16.4828 17.8908 17.2172 17.6916 18.6325 15.7341C19.7663 14.1652 21.1024 11.9629 22.0013 10.5823L23.5237 8.24327C24.5812 6.61883 25.8052 4.81301 27.2086 3.58898C28.3544 2.58994 29.5903 2.03491 30.8341 2.03491C32.9224 2.03491 34.9116 3.24507 36.434 5.51473C38.1 8.00045 38.9088 11.1314 38.9088 14.3624C38.9088 16.2832 38.5302 17.6946 37.8859 18.8096C37.2635 19.8879 36.0504 20.9653 34.0097 20.9653V17.8908C35.757 17.8908 36.1931 16.2852 36.1931 14.4477C36.1931 11.8291 35.5826 8.92318 34.2376 6.84679C33.2832 5.37399 32.0463 4.47405 30.6855 4.47405C29.2137 4.47405 28.0293 5.5841 26.6982 7.56337C25.9906 8.61494 25.2641 9.89646 24.4484 11.3425L23.5504 12.9332C21.7466 16.1316 21.2897 16.8601 20.3878 18.0623C18.8069 20.1674 17.457 20.9653 15.68 20.9653C13.5719 20.9653 12.2388 20.0524 11.4132 18.6768C10.7392 17.5558 10.4082 16.085 10.4082 14.409L13.4866 14.519Z" fill="#0081FB"/>
<path d="M12.8359 5.73178C14.2473 3.55628 16.284 2.03491 18.6201 2.03491C19.973 2.03491 21.3179 2.43532 22.7223 3.58205C24.2586 4.83581 25.8959 6.90031 27.9386 10.3028L28.671 11.5239C30.4392 14.4695 31.4452 15.9849 32.0339 16.6995C32.7911 17.6173 33.3213 17.8908 34.0102 17.8908C35.7575 17.8908 36.1936 16.2852 36.1936 14.4477L38.9093 14.3624C38.9093 16.2832 38.5307 17.6946 37.8864 18.8096C37.264 19.8879 36.0509 20.9653 34.0102 20.9653C32.7415 20.9653 31.6176 20.6897 30.3748 19.5172C29.4193 18.6173 28.3023 17.0186 27.443 15.5815L24.8869 11.3118C23.6044 9.16898 22.428 7.5713 21.7471 6.84778C21.0146 6.06975 20.0731 5.13017 18.5705 5.13017C17.3544 5.13017 16.3217 5.98352 15.4574 7.28883L12.8359 5.73178Z" fill="url(#paint0_linear_6195_25390)"/>
<path d="M18.5701 5.13017C17.354 5.13017 16.3212 5.98352 15.457 7.28883C14.2349 9.1333 13.4866 11.8807 13.4866 14.519C13.4866 15.6073 13.7255 16.4428 14.0377 16.9483L11.4132 18.6768C10.7392 17.5558 10.4082 16.085 10.4082 14.409C10.4082 11.3613 11.2447 8.1848 12.8354 5.73178C14.2468 3.55628 16.2835 2.03491 18.6196 2.03491L18.5701 5.13017Z" fill="url(#paint1_linear_6195_25390)"/>
<path d="M44.8945 2.63379H48.4556L54.5104 13.5876L60.5661 2.63379H64.0499V20.6325H61.1449V6.83811L55.8345 16.3905H53.1089L47.7995 6.83811V20.6325H44.8945V2.63379ZM73.1523 9.34465C71.069 9.34465 69.8142 10.9126 69.5139 12.8542H76.5845C76.4388 10.8541 75.2852 9.34465 73.1523 9.34465ZM66.6337 13.9603C66.6337 9.87489 69.274 6.90154 73.2028 6.90154C77.0672 6.90154 79.3745 9.83723 79.3745 14.1783V14.9762H69.5139C69.8638 17.0882 71.2652 18.5115 73.5249 18.5115C75.3278 18.5115 76.4547 17.9614 77.5231 16.9554L79.0663 18.8455C77.6123 20.1825 75.7629 20.9536 73.4219 20.9536C69.169 20.9536 66.6337 17.8524 66.6337 13.9603ZM82.897 9.60234H80.2229V7.22365H82.897V3.28991H85.6998V7.22365H89.7624V9.60234H85.6998V15.6313C85.6998 17.6899 86.3579 18.4213 87.9754 18.4213C88.7138 18.4213 89.137 18.3579 89.7624 18.2538V20.6067C88.9834 20.8267 88.2401 20.9278 87.4353 20.9278C84.4094 20.9278 82.897 19.2747 82.897 15.9653V9.60234ZM101.565 11.9156C101.002 10.4943 99.746 9.44772 97.9005 9.44772C95.502 9.44772 93.9667 11.1495 93.9667 13.9216C93.9667 16.6244 95.3801 18.4084 97.7855 18.4084C99.6766 18.4084 101.026 17.3083 101.565 15.9395V11.9156ZM104.368 20.6325H101.616V18.7553C100.847 19.8604 99.4476 20.9536 97.1809 20.9536C93.5356 20.9536 91.0994 17.902 91.0994 13.9216C91.0994 9.90364 93.5941 6.90154 97.3356 6.90154C99.185 6.90154 100.636 7.64091 101.616 8.94622V7.22365H104.368V20.6325Z" fill="#FCFCFD"/>
<defs>
<linearGradient id="paint0_linear_6195_25390" x1="16.4545" y1="13.631" x2="36.0786" y2="14.6221" gradientUnits="userSpaceOnUse">
<stop stop-color="#0064E1"/>
<stop offset="0.4" stop-color="#0064E1"/>
<stop offset="0.83" stop-color="#0073EE"/>
<stop offset="1" stop-color="#0082FB"/>
</linearGradient>
<linearGradient id="paint1_linear_6195_25390" x1="14.8682" y1="15.8114" x2="14.8682" y2="8.57629" gradientUnits="userSpaceOnUse">
<stop stop-color="#0082FB"/>
<stop offset="1" stop-color="#0064E0"/>
</linearGradient>
</defs>
</svg>
