<svg xmlns="http://www.w3.org/2000/svg" width="36" height="36" viewBox="0 0 36 36" fill="none">
<path d="M30.4689 30.6027L30.5756 29.4058C30.646 28.631 30.4317 27.8571 29.9728 27.2288C29.514 26.6005 28.842 26.1609 28.0825 25.9921L24.1878 25.127V19.0016C24.1877 18.7324 24.1333 18.4659 24.0278 18.2181C23.9224 17.9704 23.768 17.7464 23.574 17.5597C23.38 17.373 23.1503 17.2273 22.8987 17.1314C22.6471 17.0354 22.3788 16.9912 22.1097 17.0014C21.8503 17.0001 21.5933 17.0516 21.3544 17.1528C21.1155 17.254 20.8996 17.4027 20.72 17.5899C20.5404 17.7771 20.4007 17.9989 20.3095 18.2417C20.2183 18.4846 20.1775 18.7435 20.1895 19.0027V28.8169L18.6139 27.635C18.299 27.3998 17.91 27.2859 17.518 27.3141C17.126 27.3423 16.7572 27.5108 16.4793 27.7886C16.2013 28.0664 16.0327 28.4351 16.0043 28.8271C15.9759 29.2191 16.0896 29.6082 16.3246 29.9232L16.8313 30.5984" stroke="#26262B" stroke-width="1.5" stroke-linecap="round" stroke-linejoin="round"/>
<path d="M12.4006 25.8099H7.60015C7.17576 25.8099 6.76876 25.6413 6.46867 25.3412C6.16859 25.0411 6 24.6341 6 24.2097V7.60015C6 7.17576 6.16859 6.76876 6.46867 6.46867C6.76876 6.16859 7.17576 6 7.60015 6H22.0015C22.4259 6 22.8329 6.16859 23.133 6.46867C23.4331 6.76876 23.6017 7.17576 23.6017 7.60015V13.2007" stroke="#26262B" stroke-width="1.5" stroke-linecap="round" stroke-linejoin="round"/>
<path d="M10 21H17" stroke="#26262B" stroke-width="1.5" stroke-linecap="round" stroke-linejoin="round"/>
<path d="M19.2105 9H10.7895C10.3535 9 10 9.31811 10 9.71053V17.2895C10 17.6819 10.3535 18 10.7895 18H19.2105C19.6465 18 20 17.6819 20 17.2895V9.71053C20 9.31811 19.6465 9 19.2105 9Z" stroke="#26262B" stroke-width="1.5" stroke-linecap="round" stroke-linejoin="round"/>
<path d="M11 10L20 18" stroke="#26262B" stroke-width="1.5" stroke-linecap="round" stroke-linejoin="round"/>
<path d="M19 10L11 17" stroke="#26262B" stroke-width="1.5" stroke-linecap="round" stroke-linejoin="round"/>
</svg>