<svg xmlns="http://www.w3.org/2000/svg" width="104" height="21" viewBox="0 0 104 21" fill="none">
<path d="M9.53834 3.60996C9.70914 3.19932 10.2909 3.19932 10.4617 3.60996L12.2632 7.9415C12.3353 8.11462 12.4981 8.2329 12.685 8.24789L17.3612 8.62278C17.8045 8.65832 17.9843 9.21158 17.6465 9.50091L14.0837 12.5528C13.9413 12.6748 13.8791 12.8662 13.9226 13.0486L15.0111 17.6118C15.1143 18.0444 14.6437 18.3864 14.2642 18.1545L10.2606 15.7092C10.1006 15.6115 9.89938 15.6115 9.73937 15.7092L5.73584 18.1545C5.35629 18.3864 4.88567 18.0444 4.98886 17.6118L6.07736 13.0486C6.12086 12.8662 6.05868 12.6748 5.91628 12.5528L2.35347 9.50091C2.0157 9.21158 2.19546 8.65832 2.63879 8.62278L7.31505 8.24789C7.50194 8.2329 7.66475 8.11462 7.73675 7.9415L9.53834 3.60996Z" fill="#FBBF24" fill-opacity="0.8" stroke="#FBBF24" stroke-width="1.5"/>
<path d="M30.5383 3.60996C30.7091 3.19932 31.2909 3.19932 31.4617 3.60996L33.2632 7.9415C33.3353 8.11462 33.4981 8.2329 33.685 8.24789L38.3612 8.62278C38.8045 8.65832 38.9843 9.21158 38.6465 9.50091L35.0837 12.5528C34.9413 12.6748 34.8791 12.8662 34.9226 13.0486L36.0111 17.6118C36.1143 18.0444 35.6437 18.3864 35.2642 18.1545L31.2606 15.7092C31.1006 15.6115 30.8994 15.6115 30.7394 15.7092L26.7358 18.1545C26.3563 18.3864 25.8857 18.0444 25.9889 17.6118L27.0774 13.0486C27.1209 12.8662 27.0587 12.6748 26.9163 12.5528L23.3535 9.50091C23.0157 9.21158 23.1955 8.65832 23.6388 8.62278L28.315 8.24789C28.5019 8.2329 28.6647 8.11462 28.7368 7.9415L30.5383 3.60996Z" fill="#FBBF24" fill-opacity="0.8" stroke="#FBBF24" stroke-width="1.5"/>
<path d="M51.5383 3.60996C51.7091 3.19932 52.2909 3.19932 52.4617 3.60996L54.2632 7.9415C54.3353 8.11462 54.4981 8.2329 54.685 8.24789L59.3612 8.62278C59.8045 8.65832 59.9843 9.21158 59.6465 9.50091L56.0837 12.5528C55.9413 12.6748 55.8791 12.8662 55.9226 13.0486L57.0111 17.6118C57.1143 18.0444 56.6437 18.3864 56.2642 18.1545L52.2606 15.7092C52.1006 15.6115 51.8994 15.6115 51.7394 15.7092L47.7358 18.1545C47.3563 18.3864 46.8857 18.0444 46.9889 17.6118L48.0774 13.0486C48.1209 12.8662 48.0587 12.6748 47.9163 12.5528L44.3535 9.50091C44.0157 9.21158 44.1955 8.65832 44.6388 8.62278L49.315 8.24789C49.5019 8.2329 49.6647 8.11462 49.7368 7.9415L51.5383 3.60996Z" fill="#FBBF24" fill-opacity="0.8" stroke="#FBBF24" stroke-width="1.5"/>
<path d="M72.5383 3.60996C72.7091 3.19932 73.2909 3.19932 73.4617 3.60996L75.2632 7.9415C75.3353 8.11462 75.4981 8.2329 75.685 8.24789L80.3612 8.62278C80.8045 8.65832 80.9843 9.21158 80.6465 9.50091L77.0837 12.5528C76.9413 12.6748 76.8791 12.8662 76.9226 13.0486L78.0111 17.6118C78.1143 18.0444 77.6437 18.3864 77.2642 18.1545L73.2606 15.7092C73.1006 15.6115 72.8994 15.6115 72.7394 15.7092L68.7358 18.1545C68.3563 18.3864 67.8857 18.0444 67.9889 17.6118L69.0774 13.0486C69.1209 12.8662 69.0587 12.6748 68.9163 12.5528L65.3535 9.50091C65.0157 9.21158 65.1955 8.65832 65.6388 8.62278L70.315 8.24789C70.5019 8.2329 70.6647 8.11462 70.7368 7.9415L72.5383 3.60996Z" fill="#FBBF24" fill-opacity="0.8" stroke="#FBBF24" stroke-width="1.5"/>
<path d="M93.5383 3.60996C93.7091 3.19932 94.2909 3.19932 94.4617 3.60996L96.2632 7.9415C96.3353 8.11462 96.4981 8.2329 96.685 8.24789L101.361 8.62278C101.805 8.65832 101.984 9.21158 101.647 9.50091L98.0837 12.5528C97.9413 12.6748 97.8791 12.8662 97.9226 13.0486L99.0111 17.6118C99.1143 18.0444 98.6437 18.3864 98.2642 18.1545L94.2606 15.7092C94.1006 15.6115 93.8994 15.6115 93.7394 15.7092L89.7358 18.1545C89.3563 18.3864 88.8857 18.0444 88.9889 17.6118L90.0774 13.0486C90.1209 12.8662 90.0587 12.6748 89.9163 12.5528L86.3535 9.50091C86.0157 9.21158 86.1955 8.65832 86.6388 8.62278L91.315 8.24789C91.5019 8.2329 91.6647 8.11462 91.7368 7.9415L93.5383 3.60996Z" fill="#FBBF24" fill-opacity="0.8" stroke="#FBBF24" stroke-width="1.5"/>
</svg>