<svg xmlns="http://www.w3.org/2000/svg" width="32" height="33" viewBox="0 0 32 33" fill="none">
<rect y="0.5" width="32" height="32" rx="6" fill="#26262B"/>
<rect y="0.5" width="32" height="32" rx="6" fill="url(#paint0_linear_8508_74006)" fill-opacity="0.15"/>
<rect x="0.32" y="0.82" width="31.36" height="31.36" rx="5.68" stroke="url(#paint1_linear_8508_74006)" stroke-opacity="0.2" stroke-width="0.64"/>
<g clip-path="url(#clip0_8508_74006)">
<path d="M16 24.5625H8.31323C8.13969 24.5668 7.96709 24.5358 7.80589 24.4714C7.6447 24.407 7.49828 24.3105 7.37553 24.1877C7.25278 24.065 7.15626 23.9185 7.09183 23.7573C7.0274 23.5961 6.99641 23.4235 7.00073 23.25V10.2186C6.98892 9.85828 7.12043 9.50794 7.36645 9.24437C7.61246 8.9808 7.95292 8.82551 8.31323 8.8125H21.4382C21.7985 8.82551 22.139 8.9808 22.385 9.24437C22.631 9.50794 22.7625 9.85828 22.7507 10.2186V16" fill="url(#paint2_linear_8508_74006)" fill-opacity="0.4"/>
<path d="M16 24.5625H8.31323C8.13969 24.5668 7.96709 24.5358 7.80589 24.4714C7.6447 24.407 7.49828 24.3105 7.37553 24.1877C7.25278 24.065 7.15626 23.9185 7.09183 23.7573C7.0274 23.5961 6.99641 23.4235 7.00073 23.25V10.2186C6.98892 9.85828 7.12043 9.50794 7.36645 9.24437C7.61246 8.9808 7.95292 8.82551 8.31323 8.8125H21.4382C21.7985 8.82551 22.139 8.9808 22.385 9.24437C22.631 9.50794 22.7625 9.85828 22.7507 10.2186V16" stroke="#DFDFE2" stroke-width="0.5" stroke-linecap="round" stroke-linejoin="round"/>
<path d="M11 7.5V10.5" stroke="#DFDFE2" stroke-width="0.5" stroke-linecap="round" stroke-linejoin="round"/>
<path d="M19 7.5V10.5" stroke="#DFDFE2" stroke-width="0.5" stroke-linecap="round" stroke-linejoin="round"/>
<path d="M17 21C17 21.4596 17.0905 21.9148 17.2664 22.3394C17.4423 22.764 17.7001 23.1499 18.0251 23.4749C18.3501 23.7999 18.736 24.0577 19.1606 24.2336C19.5852 24.4095 20.0404 24.5 20.5 24.5C20.9596 24.5 21.4148 24.4095 21.8394 24.2336C22.264 24.0577 22.6499 23.7999 22.9749 23.4749C23.2999 23.1499 23.5577 22.764 23.7336 22.3394C23.9095 21.9148 24 21.4596 24 21C24 20.5404 23.9095 20.0852 23.7336 19.6606C23.5577 19.236 23.2999 18.8501 22.9749 18.5251C22.6499 18.2001 22.264 17.9423 21.8394 17.7664C21.4148 17.5905 20.9596 17.5 20.5 17.5C20.0404 17.5 19.5852 17.5905 19.1606 17.7664C18.736 17.9423 18.3501 18.2001 18.0251 18.5251C17.7001 18.8501 17.4423 19.236 17.2664 19.6606C17.0905 20.0852 17 20.5404 17 21Z" fill="url(#paint3_linear_8508_74006)" fill-opacity="0.3" stroke="#DFDFE2" stroke-width="0.5" stroke-linecap="round" stroke-linejoin="round"/>
<path d="M20.4999 22.1667C21.1443 22.1667 21.6666 21.6444 21.6666 21C21.6666 20.3557 21.1443 19.8334 20.4999 19.8334C19.8556 19.8334 19.3333 20.3557 19.3333 21C19.3333 21.6444 19.8556 22.1667 20.4999 22.1667Z" stroke="#DFDFE2" stroke-width="0.5" stroke-linecap="round" stroke-linejoin="round"/>
<path d="M22.8334 23.2605C22.1641 21.7522 18.8344 21.8294 18.1667 23.3333" stroke="#DFDFE2" stroke-width="0.5" stroke-linecap="round" stroke-linejoin="round"/>
<path d="M25.5 25.9993L23.0945 23.5938" stroke="#DFDFE2" stroke-width="0.5" stroke-linecap="round" stroke-linejoin="round"/>
<path d="M18 13.5L15.1765 17.2647L12.8235 15.8529L10 19.6176" stroke="#DFDFE2" stroke-width="0.5" stroke-linecap="round" stroke-linejoin="round"/>
</g>
<defs>
<linearGradient id="paint0_linear_8508_74006" x1="18.5" y1="18.5" x2="0.555578" y2="-2.40123" gradientUnits="userSpaceOnUse">
<stop stop-color="#26262B"/>
<stop offset="0.5" stop-color="white" stop-opacity="0.84"/>
<stop offset="1" stop-color="white" stop-opacity="0.31"/>
</linearGradient>
<linearGradient id="paint1_linear_8508_74006" x1="16" y1="0.5" x2="16" y2="32.5" gradientUnits="userSpaceOnUse">
<stop stop-color="white"/>
<stop offset="1" stop-color="white" stop-opacity="0"/>
</linearGradient>
<linearGradient id="paint2_linear_8508_74006" x1="8" y1="10" x2="23.9487" y2="28.5441" gradientUnits="userSpaceOnUse">
<stop stop-color="white"/>
<stop offset="0.629038" stop-color="white" stop-opacity="0"/>
</linearGradient>
<linearGradient id="paint3_linear_8508_74006" x1="21.7033" y1="17.4938" x2="16.1617" y2="28.5381" gradientUnits="userSpaceOnUse">
<stop stop-color="white"/>
<stop offset="1" stop-color="white" stop-opacity="0"/>
</linearGradient>
<clipPath id="clip0_8508_74006">
<rect width="20" height="20" fill="white" transform="translate(6 6.5)"/>
</clipPath>
</defs>
</svg>