<svg xmlns="http://www.w3.org/2000/svg" width="94" height="18" viewBox="0 0 94 18" fill="none">
<g clip-path="url(#clip0_6850_3899)">
<g clip-path="url(#clip1_6850_3899)">
<path d="M8.53873 2.90995C8.70953 2.49931 9.29125 2.49931 9.46205 2.90995L11.0256 6.66914C11.0976 6.84226 11.2604 6.96054 11.4473 6.97553L15.5056 7.30088C15.949 7.33642 16.1287 7.88968 15.791 8.17901L12.6989 10.8277C12.5565 10.9497 12.4943 11.141 12.5379 11.3234L13.4825 15.2837C13.5857 15.7163 13.1151 16.0582 12.7355 15.8264L9.26102 13.7042C9.10101 13.6064 8.89977 13.6064 8.73976 13.7042L5.26524 15.8264C4.88569 16.0582 4.41507 15.7163 4.51826 15.2837L5.46293 11.3234C5.50643 11.141 5.44425 10.9497 5.30185 10.8277L2.20981 8.17901C1.87204 7.88968 2.05181 7.33642 2.49513 7.30088L6.55349 6.97553C6.74039 6.96054 6.90319 6.84226 6.9752 6.66914L8.53873 2.90995Z" fill="#FBBF24" fill-opacity="0.6" stroke="#FBBF24"/>
</g>
<g clip-path="url(#clip2_6850_3899)">
<path d="M27.5387 2.90995C27.7095 2.49931 28.2913 2.49931 28.4621 2.90995L30.0256 6.66914C30.0976 6.84226 30.2604 6.96054 30.4473 6.97553L34.5056 7.30088C34.949 7.33642 35.1287 7.88968 34.791 8.17901L31.6989 10.8277C31.5565 10.9497 31.4943 11.141 31.5379 11.3234L32.4825 15.2837C32.5857 15.7163 32.1151 16.0582 31.7355 15.8264L28.261 13.7042C28.101 13.6064 27.8998 13.6064 27.7398 13.7042L24.2652 15.8264C23.8857 16.0582 23.4151 15.7163 23.5183 15.2837L24.4629 11.3234C24.5064 11.141 24.4442 10.9497 24.3019 10.8277L21.2098 8.17901C20.872 7.88968 21.0518 7.33642 21.4951 7.30088L25.5535 6.97553C25.7404 6.96054 25.9032 6.84226 25.9752 6.66914L27.5387 2.90995Z" fill="#FBBF24" fill-opacity="0.6" stroke="#FBBF24"/>
</g>
<g clip-path="url(#clip3_6850_3899)">
<path d="M46.5387 2.90995C46.7095 2.49931 47.2913 2.49931 47.4621 2.90995L49.0256 6.66914C49.0976 6.84226 49.2604 6.96054 49.4473 6.97553L53.5056 7.30088C53.949 7.33642 54.1287 7.88968 53.791 8.17901L50.6989 10.8277C50.5565 10.9497 50.4943 11.141 50.5379 11.3234L51.4825 15.2837C51.5857 15.7163 51.1151 16.0582 50.7355 15.8264L47.261 13.7042C47.101 13.6064 46.8998 13.6064 46.7398 13.7042L43.2652 15.8264C42.8857 16.0582 42.4151 15.7163 42.5183 15.2837L43.4629 11.3234C43.5064 11.141 43.4442 10.9497 43.3019 10.8277L40.2098 8.17901C39.872 7.88968 40.0518 7.33642 40.4951 7.30088L44.5535 6.97553C44.7404 6.96054 44.9032 6.84226 44.9752 6.66914L46.5387 2.90995Z" fill="#FBBF24" fill-opacity="0.6" stroke="#FBBF24"/>
</g>
<g clip-path="url(#clip4_6850_3899)">
<path d="M65.5387 2.90995C65.7095 2.49931 66.2913 2.49931 66.4621 2.90995L68.0256 6.66914C68.0976 6.84226 68.2604 6.96054 68.4473 6.97553L72.5056 7.30088C72.949 7.33642 73.1287 7.88968 72.791 8.17901L69.6989 10.8277C69.5565 10.9497 69.4943 11.141 69.5379 11.3234L70.4825 15.2837C70.5857 15.7163 70.1151 16.0582 69.7355 15.8264L66.261 13.7042C66.101 13.6064 65.8998 13.6064 65.7398 13.7042L62.2652 15.8264C61.8857 16.0582 61.4151 15.7163 61.5183 15.2837L62.4629 11.3234C62.5064 11.141 62.4442 10.9497 62.3019 10.8277L59.2098 8.17901C58.872 7.88968 59.0518 7.33642 59.4951 7.30088L63.5535 6.97553C63.7404 6.96054 63.9032 6.84226 63.9752 6.66914L65.5387 2.90995Z" fill="#FBBF24" fill-opacity="0.6" stroke="#FBBF24"/>
</g>
<g clip-path="url(#clip5_6850_3899)">
<path d="M84.5387 2.90995C84.7095 2.49931 85.2913 2.49931 85.4621 2.90995L87.0256 6.66914C87.0976 6.84226 87.2604 6.96054 87.4473 6.97553L91.5056 7.30088C91.949 7.33642 92.1287 7.88968 91.791 8.17901L88.6989 10.8277C88.5565 10.9497 88.4943 11.141 88.5379 11.3234L89.4825 15.2837C89.5857 15.7163 89.1151 16.0582 88.7355 15.8264L85.261 13.7042C85.101 13.6064 84.8998 13.6064 84.7398 13.7042L81.2652 15.8264C80.8857 16.0582 80.4151 15.7163 80.5183 15.2837L81.4629 11.3234C81.5064 11.141 81.4442 10.9497 81.3019 10.8277L78.2098 8.17901C77.872 7.88968 78.0518 7.33642 78.4951 7.30088L82.5535 6.97553C82.7404 6.96054 82.9032 6.84226 82.9752 6.66914L84.5387 2.90995Z" fill="#FBBF24" fill-opacity="0.6" stroke="#FBBF24"/>
</g>
</g>
<defs>
<clipPath id="clip0_6850_3899">
<rect width="94" height="18" fill="white"/>
</clipPath>
<clipPath id="clip1_6850_3899">
<rect width="18" height="18" fill="white"/>
</clipPath>
<clipPath id="clip2_6850_3899">
<rect width="18" height="18" fill="white" transform="translate(19)"/>
</clipPath>
<clipPath id="clip3_6850_3899">
<rect width="18" height="18" fill="white" transform="translate(38)"/>
</clipPath>
<clipPath id="clip4_6850_3899">
<rect width="18" height="18" fill="white" transform="translate(57)"/>
</clipPath>
<clipPath id="clip5_6850_3899">
<rect width="18" height="18" fill="white" transform="translate(76)"/>
</clipPath>
</defs>
</svg>