<svg xmlns="http://www.w3.org/2000/svg" width="144" height="60" viewBox="0 0 144 60" fill="none">
<path d="M31.5168 32.5228C31.6456 32.8456 31.6047 33.2594 31.5419 33.5102C31.4319 33.9553 31.1302 34.4099 30.2377 34.4099C29.4018 34.4099 28.8927 33.9271 28.8927 33.1999V31.9052H25.3008V32.9334C25.3008 35.9114 27.6483 36.811 30.1655 36.811C32.5852 36.811 34.5776 35.9897 34.895 33.761C35.0584 32.6074 34.939 31.8519 34.8824 31.573C34.3168 28.7768 29.2384 27.943 28.8582 26.3788C28.8054 26.1481 28.8011 25.909 28.8456 25.6766C28.9399 25.2471 29.2321 24.7801 30.068 24.7801C30.8537 24.7801 31.3093 25.2628 31.3093 25.9901V26.8176H34.6499V25.8772C34.6499 22.9682 32.0321 22.5137 30.1403 22.5137C27.7583 22.5137 25.813 23.3005 25.4579 25.4791C25.3636 26.0747 25.3479 26.6076 25.4893 27.2784C26.0707 30.0056 30.8254 30.7955 31.5168 32.5228Z" fill="#636166"/>
<path d="M39.6271 22.9397L37.1445 36.2903H40.7616L42.5937 24.1747H42.6691L44.451 36.2903H48.0492L45.5823 22.9365L39.6271 22.9397ZM59.8495 22.9397L58.1997 33.1462H58.1211L56.4744 22.9397H51.0158L50.7204 36.2903H54.0703L54.152 24.2876H54.2275L56.4618 36.2903H59.8589L62.0964 24.2907H62.1687L62.2536 36.2903H65.6004L65.305 22.9365L59.8495 22.9397Z" fill="#636166"/>
<path d="M75.0285 32.4974C75.1573 32.8203 75.1165 33.234 75.0536 33.4848C74.9436 33.9299 74.6419 34.3845 73.7495 34.3845C72.9135 34.3845 72.4044 33.9017 72.4044 33.1745V31.8798H68.8125V32.908C68.8125 35.886 71.16 36.7856 73.6772 36.7856C76.0969 36.7856 78.0893 35.9644 78.4067 33.7356C78.5701 32.582 78.4507 31.8266 78.3942 31.5476C77.8285 28.7514 72.7501 27.9176 72.3699 26.3534C72.3171 26.1227 72.3128 25.8836 72.3573 25.6512C72.4516 25.2217 72.7438 24.7547 73.5798 24.7547C74.3654 24.7547 74.8211 25.2374 74.8211 25.9647V26.7922H78.1616V25.8518C78.1616 22.9428 75.5439 22.4883 73.652 22.4883C71.27 22.4883 69.3247 23.2751 68.9696 25.4537C68.8754 26.0493 68.8596 26.5822 69.0011 27.253C69.5824 29.9802 74.3371 30.7702 75.0285 32.4974Z" fill="#636166"/>
<path d="M86.2672 34.2905C87.1974 34.2905 87.4833 33.6511 87.5493 33.3251C87.5776 33.1809 87.5808 32.9865 87.5808 32.8141V22.9398H90.9684V32.51C90.9691 32.8029 90.9586 33.0957 90.937 33.3877C90.7013 35.8798 88.7278 36.6886 86.2672 36.6886C83.8034 36.6886 81.8299 35.8798 81.5942 33.3877C81.5848 33.2561 81.5596 32.7545 81.5628 32.51V22.9367H84.9504V32.811C84.9473 32.9865 84.9536 33.1809 84.9819 33.3251C85.0447 33.6511 85.3338 34.2905 86.2672 34.2905ZM102.634 22.9398L102.816 33.4191H102.744L99.6639 22.9398H94.6987V36.1494H97.9889L97.8066 25.3065H97.8789L101.182 36.1494H105.949V22.9398H102.634ZM114.182 34.1526C115.15 34.1526 115.49 33.5413 115.55 33.1809C115.578 33.0335 115.581 32.8454 115.581 32.6793V30.7358H114.208V28.7923H118.95V32.3721C118.95 32.6229 118.943 32.8047 118.903 33.2498C118.683 35.6823 116.568 36.5507 114.195 36.5507C111.822 36.5507 109.711 35.6823 109.488 33.2498C109.45 32.8047 109.44 32.6229 109.44 32.3721V26.7547C109.44 26.5165 109.472 26.0964 109.497 25.877C109.795 23.3787 111.822 22.5762 114.195 22.5762C116.568 22.5762 118.648 23.3724 118.893 25.8739C118.937 26.3002 118.925 26.7516 118.925 26.7516V27.1999H115.55V26.4507C115.55 26.4507 115.55 26.1372 115.509 25.9428C115.446 25.6482 115.194 24.9711 114.17 24.9711C113.196 24.9711 112.91 25.6137 112.837 25.9428C112.797 26.1184 112.781 26.3566 112.781 26.5729V32.6762C112.781 32.8454 112.787 33.0335 112.812 33.184C112.875 33.5413 113.215 34.1526 114.182 34.1526Z" fill="#636166"/>
</svg>