<svg xmlns="http://www.w3.org/2000/svg" width="144" height="60" viewBox="0 0 144 60" fill="none">
<g clip-path="url(#clip0_6848_51926)">
<path d="M40.3246 13.1748C31.3724 13.1748 24.1328 20.4144 24.1328 29.3666C24.1328 38.3187 31.3724 45.5583 40.3246 45.5583C49.2768 45.5583 56.5163 38.3187 56.5163 29.3666C56.5163 20.4144 49.2768 13.1748 40.3246 13.1748Z" fill="#636166"/>
<path d="M61.9688 26.3311L63.4478 24.6185C64.4598 25.4748 65.5496 25.9418 66.7951 25.9418C67.8071 25.9418 68.4299 25.5526 68.4299 24.852C68.4299 24.2293 68.0407 23.9179 66.1724 23.4508C63.9149 22.9059 62.4358 22.2831 62.4358 20.0256C62.4358 18.0017 64.0706 16.6783 66.4059 16.6783C68.0407 16.6783 69.4419 17.2232 70.6096 18.0795L69.2862 19.8699C68.2742 19.1693 67.3401 18.7801 66.3281 18.7801C65.3939 18.7801 64.849 19.2472 64.849 19.7921C64.849 20.4927 65.3161 20.8041 67.2622 21.2711C69.5197 21.8939 70.8431 22.6724 70.8431 24.6185C70.8431 26.876 69.1305 28.1215 66.7173 28.1215C65.0826 28.1215 63.37 27.4987 61.9688 26.3311ZM71.6994 23.6843C71.6994 21.1933 73.412 19.1693 75.9809 19.1693C78.8611 19.1693 80.1845 21.4268 80.1845 23.84V24.4628H74.1904C74.424 25.5526 75.2024 26.1754 76.2922 26.1754C77.1485 26.1754 77.6934 25.9418 78.3941 25.3191L79.7953 26.5646C79.0168 27.5766 77.8491 28.1994 76.2922 28.1994C73.5677 28.1215 71.6994 26.3311 71.6994 23.6843ZM77.7713 22.9837C77.6156 21.8939 76.9928 21.1933 75.9809 21.1933C74.9689 21.1933 74.3461 21.8939 74.1126 22.9837H77.7713ZM81.2743 19.4029H83.6875V21.1155C84.2324 19.9478 85.0109 19.1693 86.4121 19.2472V21.8161H86.2564C84.6217 21.8161 83.6097 22.828 83.6097 24.852V28.0437H81.1965V19.4029H81.2743ZM87.2684 19.4029H89.9151L91.7834 25.1634L93.7295 19.4029H96.2984L92.8732 28.0437H90.6936L87.2684 19.4029ZM97.2326 16.2891H99.8014V18.4687H97.2326V16.2891ZM97.2326 19.4029H99.6457V27.9658H97.2326V19.4029ZM100.58 23.6843C100.58 21.1933 102.448 19.1693 105.095 19.1693C106.73 19.1693 107.742 19.7142 108.52 20.6484L107.041 22.2831C106.496 21.7382 105.951 21.349 105.095 21.349C103.849 21.349 102.993 22.4388 102.993 23.6843C102.993 25.0077 103.849 26.0197 105.173 26.0197C106.029 26.0197 106.574 25.6305 107.119 25.0856L108.52 26.5646C107.664 27.4987 106.73 28.1215 105.017 28.1215C102.526 28.1215 100.58 26.1754 100.58 23.6843ZM109.143 23.6843C109.143 21.1933 110.855 19.1693 113.424 19.1693C116.305 19.1693 117.628 21.4268 117.628 23.84V24.4628H111.634C111.867 25.5526 112.646 26.1754 113.736 26.1754C114.592 26.1754 115.137 25.9418 115.838 25.3191L117.239 26.5646C116.46 27.5766 115.293 28.1994 113.736 28.1994C111.011 28.1215 109.143 26.3311 109.143 23.6843ZM115.137 22.9837C114.981 21.8939 114.358 21.1933 113.346 21.1933C112.334 21.1933 111.712 21.8939 111.478 22.9837H115.137ZM62.358 30.4569H64.6155L69.8311 37.3851V30.4569H72.2443V41.6665H70.1425L64.7712 34.5826V41.6665H62.358V30.4569ZM73.879 40.0318L75.3581 38.3192C76.3701 39.1755 77.3821 39.6426 78.7054 39.6426C79.7174 39.6426 80.3402 39.2533 80.3402 38.5527C80.3402 37.93 79.951 37.6186 78.0827 37.1515C75.8252 36.6066 74.3461 35.9839 74.3461 33.7264C74.3461 31.7024 75.9809 30.379 78.2384 30.379C79.8731 30.379 81.2743 30.9239 82.3642 31.7802L81.1186 33.6485C80.1066 32.9479 79.1725 32.5587 78.2384 32.5587C77.3042 32.5587 76.8372 33.0257 76.8372 33.5707C76.8372 34.2713 77.3042 34.5826 79.2504 35.0497C81.5079 35.6725 82.8312 36.4509 82.8312 38.3971C82.8312 40.6546 81.1186 41.9001 78.7054 41.9001C76.915 41.8222 75.2024 41.1995 73.879 40.0318ZM83.2983 30.4569H85.945L88.2025 38.0857L90.7714 30.4569H92.8732L95.3643 38.0857L97.6996 30.4569H100.269L96.4541 41.7444H94.2744L91.7834 34.427L89.2145 41.7444H87.1127L83.2983 30.4569Z" fill="#636166"/>
<path d="M50.4453 32.9471C50.2896 32.7136 49.9782 32.4801 49.6668 32.4801H48.0321C47.3315 32.4801 46.2417 32.5579 44.8404 32.6358C44.7626 34.2705 44.6848 35.8274 44.4512 37.3065C45.5411 37.6957 46.7087 38.2406 47.8764 38.8634C50.1339 35.9831 50.5231 34.037 50.601 33.5699C50.601 33.3364 50.5231 33.1028 50.4453 32.9471ZM36.511 30.4561C36.4332 30.3004 36.3553 30.0669 36.1996 30.0669C36.1218 30.0669 36.044 30.0669 35.9661 30.1447C35.9661 30.1447 35.8883 30.2226 35.7326 30.3004C35.5769 30.4561 35.3434 30.6118 35.032 30.8453C34.6427 31.2345 33.7865 31.9351 32.8523 33.025C31.6068 34.4262 29.972 36.4502 28.9601 38.8634C30.9062 41.1209 33.4751 42.8335 36.511 43.6119C36.9781 41.8993 37.2116 39.7975 37.2116 37.54C37.2116 34.504 36.7446 31.8573 36.5889 30.8453C36.511 30.6896 36.511 30.4561 36.511 30.4561ZM30.517 26.0189L30.2834 25.5519C30.2834 25.5519 30.2834 25.474 30.2056 25.474L29.972 25.0069C29.4271 23.995 28.9601 23.1387 28.6487 22.6716C28.493 22.4381 28.4151 22.2824 28.4151 22.2824C28.2595 22.0488 28.1038 22.0488 28.1038 22.0488C28.0259 22.0488 27.8702 22.1267 27.7924 22.2824C27.7924 22.2824 27.7145 22.4381 27.5588 22.6716L26.8582 23.8393C26.7804 23.9171 26.7804 23.995 26.7026 24.0728C26.7026 24.0728 26.6247 24.1506 26.6247 24.2285V24.3063C26.469 24.3842 26.3133 24.6956 26.0798 25.0069C25.6906 26.4081 25.457 27.8872 25.457 29.3663C25.457 32.6358 26.469 35.5939 28.2595 38.0849C29.2714 35.9052 30.8283 33.7256 32.8523 31.6238C32.1517 29.522 31.2954 27.5758 30.517 26.0189Z" fill="#171618"/>
<path d="M43.5942 27.9648C43.5942 27.7312 43.5163 27.4977 43.5163 27.342V27.1863V27.1085V27.0306V26.9528V26.875V26.7193V26.6414V26.5636C43.4385 26.1743 43.2828 26.0187 42.9714 26.0187C42.8936 26.0187 42.8157 26.0187 42.66 26.0965C42.66 26.0965 42.5043 26.1743 42.2708 26.2522C42.0373 26.33 41.648 26.4857 41.2588 26.7193L41.1031 26.7971C40.8696 26.9528 40.5582 27.0306 40.3247 27.1863C39.2348 27.7312 38.2229 28.2762 37.2109 28.8989C37.0552 28.9768 36.8995 29.0546 36.8216 29.1325C37.2109 29.2882 37.5222 29.7552 37.6001 30.2223V30.3001C37.7558 31.1564 38.3785 34.1924 38.3785 37.7733C38.3785 40.1086 38.145 42.2104 37.6001 44.0787C38.5342 44.2344 39.4684 44.3122 40.4025 44.3122H41.0253C41.1031 44.2344 41.1031 44.1566 41.181 44.0787C43.3606 40.2643 43.8277 35.2822 43.8277 31.7792C43.8277 30.378 43.7499 29.1325 43.5942 27.9648ZM44.2169 38.396C43.7499 40.5757 43.1271 42.5218 42.2708 44.1566C45.0732 43.7673 47.5643 42.6775 49.6661 41.0428C49.0433 40.6535 48.2649 40.2643 47.4086 39.7972C46.3187 39.2523 45.2289 38.7852 44.2169 38.396ZM31.9174 26.4079C32.4623 27.6534 33.0072 28.8989 33.4743 30.1444C34.642 29.2103 35.8875 28.4319 37.2887 27.5756C37.2887 27.4977 37.2887 27.4199 37.2109 27.342C37.2109 27.2642 37.133 27.1085 37.133 27.0306C37.133 26.9528 37.0552 26.7971 37.0552 26.7193C36.7438 25.3959 36.4324 24.3839 36.2767 23.7612V23.6833V23.6055V23.5276C36.1989 23.2162 35.9653 23.0605 35.7318 23.0605H35.654C35.5761 23.0605 35.4983 23.1384 35.4204 23.1384C35.4204 23.1384 34.8755 23.5276 33.9414 24.1504C33.4743 24.5396 32.6959 25.0845 31.7617 25.863C31.7617 26.0187 31.8396 26.1743 31.9174 26.4079Z" fill="#171618"/>
</g>
<defs>
<clipPath id="clip0_6848_51926">
<rect width="93.414" height="32.6949" fill="white" transform="translate(24.1328 13.0195)"/>
</clipPath>
</defs>
</svg>