<svg width="92" height="27" viewBox="0 0 92 27" fill="none" xmlns="http://www.w3.org/2000/svg">
<mask id="mask0_56_1231" style="mask-type:luminance" maskUnits="userSpaceOnUse" x="0" y="0" width="92" height="27">
<path d="M91.3426 0.279297H0.357361V26.2729H91.3426V0.279297Z" fill="white"/>
</mask>
<g mask="url(#mask0_56_1231)">
<path d="M19.9163 5.2032C19.9013 5.06849 19.7815 5.00869 19.6917 4.99369C19.6019 4.97869 17.8062 4.96379 17.8062 4.96379C17.8062 4.96379 16.2947 3.49724 16.1451 3.34754C15.9954 3.19793 15.7111 3.24283 15.5914 3.27273C15.5914 3.27273 15.3071 3.36253 14.8282 3.51214C14.7534 3.25783 14.6337 2.94352 14.4691 2.62931C13.9303 1.59667 13.1522 1.05795 12.1945 1.05795C12.1346 1.05795 12.0598 1.05795 11.9999 1.07295C11.97 1.04305 11.9401 1.01305 11.9101 0.968149C11.4911 0.519232 10.9673 0.309726 10.3388 0.324726C9.11167 0.354627 7.89953 1.23756 6.8969 2.82381C6.19357 3.93116 5.66985 5.3229 5.52014 6.40034C4.11349 6.83436 3.12586 7.13367 3.11086 7.14857C2.40753 7.37308 2.37763 7.38808 2.28783 8.0614C2.21303 8.55532 0.357361 22.9363 0.357361 22.9363L15.9356 25.63L22.6847 23.954C22.6847 23.954 19.9312 5.3229 19.9163 5.2032ZM14.05 3.75165C13.6909 3.85635 13.2868 3.99106 12.8379 4.12576C12.823 3.51214 12.7481 2.64421 12.4638 1.89598C13.4066 2.07559 13.8555 3.12313 14.05 3.75165ZM12.0299 4.38017C11.2067 4.63458 10.3238 4.90389 9.42598 5.1882C9.68039 4.23047 10.1592 3.27273 10.7428 2.64421C10.9673 2.4048 11.2666 2.15039 11.6258 2.00078C11.97 2.70411 12.0299 3.70675 12.0299 4.38017ZM10.3538 1.14776C10.6381 1.14776 10.8775 1.20766 11.087 1.34226C10.7578 1.50687 10.4286 1.76128 10.1293 2.09049C9.35118 2.92852 8.75256 4.21556 8.51315 5.47251C7.76493 5.69702 7.0466 5.92152 6.37318 6.13103C6.82209 4.15566 8.46825 1.20766 10.3538 1.14776Z" fill="#636166"/>
<path d="M19.6937 4.99329C19.6039 4.97829 17.8081 4.96329 17.8081 4.96329C17.8081 4.96329 16.2967 3.49683 16.1471 3.34713C16.0872 3.28732 16.0124 3.25732 15.9376 3.25732V25.6295L22.6866 23.9536C22.6866 23.9536 19.9331 5.3374 19.9182 5.20279C19.8882 5.06809 19.7835 5.00819 19.6937 4.99329Z" fill="#4A484C"/>
<path d="M12.1963 8.46463L11.4182 11.3977C11.4182 11.3977 10.5502 10.9936 9.50273 11.0685C7.97628 11.1582 7.96128 12.1161 7.97628 12.3704C8.06608 13.6873 11.5079 13.9716 11.7025 17.0394C11.8521 19.4637 10.4156 21.1098 8.35039 21.2445C5.8663 21.3941 4.50446 19.9425 4.50446 19.9425L5.02827 17.7128C5.02827 17.7128 6.40502 18.7454 7.49746 18.6855C8.21569 18.6406 8.4701 18.057 8.4402 17.638C8.33539 15.932 5.52209 16.0218 5.34248 13.2234C5.19288 10.859 6.74914 8.46463 10.1761 8.24013C11.5229 8.12042 12.1963 8.46463 12.1963 8.46463Z" fill="#171618"/>
<path d="M31.826 14.72C31.0479 14.3009 30.6438 13.9417 30.6438 13.4479C30.6438 12.8194 31.1975 12.4154 32.0805 12.4154C33.0981 12.4154 33.9959 12.8344 33.9959 12.8344L34.7142 10.6495C34.7142 10.6495 34.0558 10.1407 32.1254 10.1407C29.4317 10.1407 27.5611 11.6821 27.5611 13.8519C27.5611 15.0791 28.429 16.0219 29.5963 16.6952C30.5391 17.234 30.8683 17.6082 30.8683 18.1768C30.8683 18.7604 30.4044 19.2243 29.5215 19.2243C28.2195 19.2243 26.9925 18.5509 26.9925 18.5509L26.2292 20.7358C26.2292 20.7358 27.3666 21.4989 29.2671 21.4989C32.0356 21.4989 34.0258 20.1372 34.0258 17.683C34.0408 16.3511 33.0382 15.4083 31.826 14.72ZM42.8699 10.1108C41.5082 10.1108 40.4308 10.7543 39.6077 11.742L39.5628 11.727L40.745 5.53164H37.6623L34.6693 21.2894H37.7521L38.7846 15.9021C39.1887 13.8669 40.2362 12.6099 41.2239 12.6099C41.9122 12.6099 42.1816 13.0738 42.1816 13.7472C42.1816 14.1662 42.1367 14.69 42.0469 15.109L40.8797 21.2745H43.9624L45.1745 14.8995C45.3092 14.2261 45.399 13.418 45.399 12.8942C45.399 11.1733 44.4712 10.1108 42.8699 10.1108ZM52.3726 10.1108C48.6613 10.1108 46.2072 13.4629 46.2072 17.2041C46.2072 19.5984 47.6886 21.5139 50.4571 21.5139C54.0935 21.5139 56.5626 18.2516 56.5626 14.4207C56.5477 12.2209 55.2458 10.1108 52.3726 10.1108ZM50.8461 19.1495C49.7986 19.1495 49.3497 18.2516 49.3497 17.1442C49.3497 15.3784 50.2625 12.4902 51.9386 12.4902C53.031 12.4902 53.3901 13.433 53.3901 14.3458C53.3901 16.2463 52.4773 19.1495 50.8461 19.1495ZM64.4341 10.1108C62.354 10.1108 61.1718 11.9365 61.1718 11.9365H61.1269L61.3065 10.2754H58.5829C58.4482 11.3977 58.2088 13.0888 57.9544 14.3608L55.8144 25.6442H58.8972L59.7501 21.0799H59.81C59.81 21.0799 60.4386 21.484 61.6207 21.484C65.2422 21.484 67.6066 17.7728 67.6066 14.0166C67.6216 11.9665 66.6938 10.1108 64.4341 10.1108ZM61.4861 19.1944C60.678 19.1944 60.2141 18.7454 60.2141 18.7454L60.7229 15.8572C61.082 13.9417 62.0846 12.6548 63.1621 12.6548C64.1049 12.6548 64.3892 13.5227 64.3892 14.3608C64.3892 16.3511 63.207 19.1944 61.4861 19.1944ZM72.0212 5.69624C71.0335 5.69624 70.2553 6.47437 70.2553 7.492C70.2553 8.40484 70.8389 9.03336 71.707 9.03336H71.7519C72.7096 9.03336 73.5476 8.38984 73.5625 7.2376C73.5625 6.33966 72.964 5.69624 72.0212 5.69624ZM67.7113 21.2894H70.7941L72.8891 10.3652H69.7765L67.7113 21.2894ZM80.7311 10.3353H78.5902L78.6954 9.82649C78.8746 8.77895 79.5038 7.83622 80.5207 7.83622C81.0749 7.83622 81.5083 7.98582 81.5083 7.98582L82.1073 5.57654C82.1073 5.57654 81.5687 5.30713 80.4311 5.30713C79.3392 5.30713 78.2464 5.62144 77.4088 6.33966C76.3607 7.2376 75.8669 8.52454 75.6127 9.82649L75.5231 10.3353H74.0864L73.6373 12.6548H75.0741L73.4428 21.2894H76.5253L78.1568 12.6548H80.2821L80.7311 10.3353ZM88.153 10.3652C88.153 10.3652 86.2225 15.2288 85.3547 17.8775H85.3098C85.2504 17.0244 84.5462 10.3652 84.5462 10.3652H81.3145L83.17 20.4065C83.2148 20.631 83.1846 20.7657 83.1096 20.9153C82.7512 21.6037 82.1521 22.2771 81.4343 22.7709C80.8499 23.19 80.2071 23.4593 79.683 23.6389L80.5363 26.2577C81.1645 26.1231 82.4512 25.6142 83.5586 24.5816C84.966 23.2648 86.2673 21.2296 87.5997 18.4611L91.3701 10.3652H88.153Z" fill="#636166"/>
</g>
</svg>
