<svg xmlns="http://www.w3.org/2000/svg" width="20" height="20" viewBox="0 0 20 20" fill="none">
<path fill-rule="evenodd" clip-rule="evenodd" d="M9.6073 0.724243C4.30241 0.724243 -0.00195312 5.02861 -0.00195312 10.3335C-0.00195312 15.6384 4.30241 19.9428 9.6073 19.9428C14.9018 19.9428 19.2166 15.6384 19.2166 10.3335C19.2166 5.02861 14.9018 0.724243 9.6073 0.724243ZM15.9544 5.15367C17.1008 6.55025 17.7887 8.33243 17.8096 10.2605C17.5386 10.2085 14.8288 9.65605 12.0982 10C12.0357 9.86451 11.9836 9.71857 11.921 9.57269C11.7543 9.17667 11.5667 8.77019 11.3791 8.38456C14.4015 7.15476 15.7772 5.38296 15.9544 5.15367ZM9.6073 2.14166C11.6917 2.14166 13.599 2.92333 15.0477 4.20526C14.9018 4.4137 13.6615 6.07083 10.7433 7.16515C9.39884 4.69509 7.90851 2.67319 7.67921 2.36053C8.29408 2.21461 8.9403 2.14166 9.6073 2.14166ZM6.1159 2.9129C6.33475 3.20472 7.79386 5.23705 9.15915 7.65498C5.32379 8.67638 1.93658 8.65554 1.5718 8.65554C2.10333 6.11251 3.82299 3.99681 6.1159 2.9129ZM1.39462 10.344C1.39462 10.2605 1.39462 10.1772 1.39462 10.0938C1.74897 10.1042 5.73025 10.1563 9.82615 8.92652C10.0659 9.38507 10.2848 9.85406 10.4932 10.323C10.389 10.3543 10.2743 10.3856 10.1701 10.4169C5.93869 11.7822 3.6875 15.5133 3.4999 15.826C2.19713 14.3773 1.39462 12.4492 1.39462 10.344ZM9.6073 18.5462C7.71044 18.5462 5.95954 17.9 4.57339 16.8161C4.7193 16.5139 6.38682 13.3038 11.0143 11.6884C11.0351 11.678 11.0456 11.678 11.0664 11.6676C12.2232 14.6587 12.6923 17.1704 12.8173 17.8896C11.8272 18.3169 10.7433 18.5462 9.6073 18.5462ZM14.1826 17.1392C14.0993 16.6389 13.6615 14.2418 12.588 11.2923C15.1624 10.8859 17.4135 11.5529 17.6949 11.6467C17.3406 13.9292 16.0274 15.8989 14.1826 17.1392Z" fill="#7F8090"/>
</svg>