<svg width="21" height="21" viewBox="0 0 21 21" fill="none" xmlns="http://www.w3.org/2000/svg">
<g clip-path="url(#clip0_56_1987)">
<g clip-path="url(#clip1_56_1987)">
<g clip-path="url(#clip2_56_1987)">
<path fill-rule="evenodd" clip-rule="evenodd" d="M10.0273 1.36914C4.72239 1.36914 0.41803 5.67351 0.41803 10.9784C0.41803 16.2833 4.72239 20.5877 10.0273 20.5877C15.3218 20.5877 19.6366 16.2833 19.6366 10.9784C19.6366 5.67351 15.3218 1.36914 10.0273 1.36914ZM16.3744 5.79857C17.5208 7.19515 18.2087 8.97733 18.2296 10.9054C17.9586 10.8534 15.2488 10.3009 12.5182 10.6449C12.4557 10.5094 12.4036 10.3635 12.341 10.2176C12.1743 9.82157 11.9867 9.41509 11.7991 9.02946C14.8215 7.79966 16.1972 6.02786 16.3744 5.79857ZM10.0273 2.78656C12.1117 2.78656 14.019 3.56823 15.4677 4.85016C15.3218 5.0586 14.0815 6.71573 11.1633 7.81005C9.81882 5.33999 8.32849 3.31809 8.09919 3.00543C8.71406 2.85951 9.36028 2.78656 10.0273 2.78656ZM6.53588 3.5578C6.75473 3.84962 8.21384 5.88195 9.57913 8.29988C5.74377 9.32128 2.35656 9.30044 1.99178 9.30044C2.52331 6.75741 4.24297 4.64171 6.53588 3.5578ZM1.8146 10.9889C1.8146 10.9054 1.8146 10.8221 1.8146 10.7387C2.16895 10.7491 6.15023 10.8012 10.2461 9.57142C10.4859 10.03 10.7048 10.499 10.9132 10.9679C10.809 10.9992 10.6943 11.0305 10.5901 11.0618C6.35867 12.4271 4.10748 16.1582 3.91988 16.4709C2.61711 15.0222 1.8146 13.0941 1.8146 10.9889ZM10.0273 19.1911C8.13042 19.1911 6.37952 18.5449 4.99337 17.461C5.13928 17.1588 6.8068 13.9487 11.4343 12.3333C11.4551 12.3229 11.4656 12.3229 11.4864 12.3125C12.6432 15.3036 13.1123 17.8153 13.2373 18.5345C12.2472 18.9618 11.1633 19.1911 10.0273 19.1911ZM14.6026 17.7841C14.5193 17.2838 14.0815 14.8867 13.008 11.9372C15.5824 11.5308 17.8335 12.1978 18.1149 12.2916C17.7606 14.5741 16.4474 16.5438 14.6026 17.7841Z" fill="#38A17E"/>
</g>
</g>
</g>
<defs>
<clipPath id="clip0_56_1987">
<rect width="20" height="20" fill="white" transform="translate(0.419983 0.64502)"/>
</clipPath>
<clipPath id="clip1_56_1987">
<rect width="20" height="20" fill="white" transform="translate(0.419983 0.64502)"/>
</clipPath>
<clipPath id="clip2_56_1987">
<rect width="20" height="20" fill="white" transform="translate(0.419983 0.64502)"/>
</clipPath>
</defs>
</svg>
