<svg width="91" height="24" viewBox="0 0 91 24" fill="none" xmlns="http://www.w3.org/2000/svg">
<path d="M19.1692 0.432129H4.0415C1.94438 0.432129 0.244751 2.13176 0.244751 4.22888V19.3566C0.244751 21.4537 1.94438 23.1533 4.0415 23.1533H19.1692C21.2663 23.1533 22.9659 21.4537 22.9659 19.3566V4.22888C22.9659 2.13176 21.2663 0.432129 19.1692 0.432129ZM18.8356 17.8237C18.8356 18.4862 18.2988 19.0231 17.6363 19.0231H5.57438C4.91187 19.0231 4.375 18.4862 4.375 17.8237V5.76176C4.375 5.09924 4.91187 4.56247 5.57438 4.56247H17.6363C18.2988 4.56247 18.8356 5.09924 18.8356 5.76176V17.8237ZM9.19522 14.8767C8.81371 14.8767 8.50758 14.5684 8.50758 14.1869V9.37121C8.50758 8.98969 8.81371 8.67899 9.19522 8.67899H14.0177C14.397 8.67899 14.7053 8.98745 14.7053 9.37121V14.1845C14.7053 14.566 14.397 14.8745 14.0177 14.8745H9.19522V14.8767ZM28.99 14.5478H31.471C31.5943 15.9527 32.547 17.0493 34.4682 17.0493C36.1838 17.0493 37.2392 16.2018 37.2392 14.9202C37.2392 13.7208 36.4122 13.1839 34.9228 12.8321L32.9993 12.4187C30.9112 11.9641 29.3396 10.6209 29.3396 8.42769C29.3396 6.00847 31.4892 4.35452 34.2808 4.35452C37.2369 4.35452 39.1399 5.90572 39.3044 8.19929H36.9057C36.6201 7.12555 35.7292 6.48593 34.2831 6.48593C32.7525 6.48593 31.6994 7.31295 31.6994 8.36838C31.6994 9.42371 32.6086 10.0634 34.1803 10.4152L36.0833 10.8287C38.1712 11.2833 39.5968 12.5443 39.5968 14.7557C39.5968 17.5678 37.4882 19.2423 34.4704 19.2423C31.078 19.2401 29.198 17.4011 28.99 14.5478ZM48.4719 23.1533V19.039L48.634 17.2343H48.4719C47.9031 18.5319 46.7082 19.2423 45.0863 19.2423C42.4706 19.2423 40.5242 17.1132 40.5242 13.8488C40.5242 10.5842 42.4706 8.45516 45.0863 8.45516C46.6877 8.45516 47.8231 9.20446 48.4719 10.381H48.634V8.6562H50.7838V23.1533H48.4719ZM48.5518 13.8464C48.5518 11.7585 47.2748 10.5409 45.7122 10.5409C44.1497 10.5409 42.8726 11.7585 42.8726 13.8464C42.8726 15.9344 44.1497 17.1521 45.7122 17.1521C47.2748 17.1521 48.5518 15.9367 48.5518 13.8464ZM52.4994 14.9224V8.6562H54.8112V14.7191C54.8112 16.3616 55.6016 17.1521 56.9198 17.1521C58.5418 17.1521 59.5972 15.9962 59.5972 14.1914V8.6562H61.9091V19.0367H59.7594V16.8871H59.5972C59.09 18.2668 57.9752 19.2401 56.2528 19.2401C53.7764 19.2401 52.4994 17.6592 52.4994 14.9224ZM63.3162 16.1378C63.3162 14.1914 64.6755 13.056 67.0879 12.9144L69.9457 12.7316V11.9207C69.9457 10.9474 69.2353 10.3604 67.9789 10.3604C66.8229 10.3604 66.133 10.9474 65.9502 11.779H63.6383C63.8828 9.67052 65.6259 8.45282 67.9765 8.45282C70.6334 8.45282 72.2553 9.58822 72.2553 11.779V19.0367H70.1057V17.1109H69.9435C69.4569 18.3879 68.4426 19.2401 66.4962 19.2401C64.6344 19.2401 63.3162 17.9836 63.3162 16.1378ZM69.948 14.8608V14.3125L67.6156 14.4747C66.3592 14.5546 65.7903 15.0229 65.7903 15.955C65.7903 16.7455 66.4391 17.3143 67.3506 17.3143C68.9954 17.3143 69.948 16.2611 69.948 14.8608ZM73.9798 19.039V8.6562H76.1294V10.6436H76.292C76.5959 9.28443 77.6303 8.6562 79.1702 8.6562H80.226V10.7442H78.9072C77.4063 10.7442 76.292 11.7174 76.292 13.5632V19.0367H73.9798V19.039ZM90.8027 14.2736H82.9143C83.036 16.1789 84.3743 17.2549 85.8548 17.2549C87.1112 17.2549 87.9011 16.7477 88.3492 15.8956H90.641C90.0128 18.0042 88.167 19.2401 85.8343 19.2401C82.773 19.2401 80.6234 16.9487 80.6234 13.8464C80.6234 10.7442 82.8324 8.45282 85.8548 8.45282C88.8956 8.45282 90.8826 10.5409 90.8826 13.136C90.8855 13.6454 90.8436 13.9081 90.8027 14.2736ZM88.5937 12.6723C88.5138 11.233 87.3167 10.2599 85.8567 10.2599C84.4775 10.2599 83.3233 11.1325 83.038 12.6723H88.5937Z" fill="#636166"/>
</svg>
