<svg xmlns="http://www.w3.org/2000/svg" width="20" height="21" viewBox="0 0 20 21" fill="none">
<path d="M9.10456 4.44672C9.38641 3.57928 10.6136 3.57929 10.8954 4.44672L11.9025 7.546C12.0285 7.93393 12.39 8.19658 12.7979 8.19658H16.0567C16.9687 8.19658 17.348 9.3637 16.6101 9.8998L13.9737 11.8153C13.6437 12.055 13.5056 12.48 13.6317 12.8679L14.6387 15.9672C14.9205 16.8346 13.9277 17.556 13.1898 17.0198L10.5534 15.1044C10.2234 14.8646 9.77658 14.8646 9.44659 15.1044L6.81018 17.0198C6.0723 17.556 5.07949 16.8346 5.36133 15.9672L6.36835 12.8679C6.4944 12.48 6.35631 12.055 6.02632 11.8153L3.38991 9.8998C2.65203 9.3637 3.03125 8.19658 3.94332 8.19658H7.20211C7.61 8.19658 7.9715 7.93393 8.09754 7.546L9.10456 4.44672Z" fill="#D1D5DB"/>
<g clip-path="url(#clip0_6850_6455)">
<path d="M9.10456 4.44647C9.38641 3.57904 10.6136 3.57904 10.8954 4.44647L11.9025 7.54576C12.0285 7.93369 12.39 8.19633 12.7979 8.19633H16.0567C16.9687 8.19633 17.348 9.36345 16.6101 9.89955L13.9737 11.815C13.6437 12.0548 13.5056 12.4797 13.6317 12.8677L14.6387 15.967C14.9205 16.8344 13.9277 17.5557 13.1898 17.0196L10.5534 15.1041C10.2234 14.8644 9.77658 14.8644 9.44659 15.1041L6.81018 17.0196C6.0723 17.5557 5.07949 16.8344 5.36133 15.967L6.36835 12.8677C6.4944 12.4797 6.35631 12.0548 6.02632 11.815L3.38991 9.89955C2.65203 9.36345 3.03125 8.19633 3.94332 8.19633H7.20211C7.61 8.19633 7.9715 7.93369 8.09754 7.54576L9.10456 4.44647Z" fill="#FBBF24"/>
</g>
<defs>
<clipPath id="clip0_6850_6455">
<rect width="12" height="15" fill="white" transform="translate(3 3)"/>
</clipPath>
</defs>
</svg>