<svg xmlns="http://www.w3.org/2000/svg" width="16" height="16" viewBox="0 0 16 16" fill="none">
<path d="M7.28209 3.15742C7.50756 2.46348 8.48931 2.46348 8.71479 3.15742L9.5204 5.63685C9.62124 5.94719 9.91044 6.15731 10.2368 6.15731H12.8438C13.5734 6.15731 13.8768 7.09101 13.2865 7.51989L11.1774 9.05226C10.9134 9.24406 10.8029 9.58404 10.9038 9.89438L11.7094 12.3738C11.9349 13.0678 11.1406 13.6448 10.5503 13.2159L8.44117 11.6836C8.17717 11.4918 7.8197 11.4918 7.55571 11.6836L5.44658 13.2159C4.85627 13.6448 4.06203 13.0678 4.2875 12.3738L5.09312 9.89438C5.19395 9.58404 5.08349 9.24406 4.8195 9.05226L2.71037 7.51989C2.12006 7.09101 2.42344 6.15731 3.1531 6.15731H5.76012C6.08644 6.15731 6.37564 5.94719 6.47647 5.63685L7.28209 3.15742Z" fill="#60616C"/>
<g clip-path="url(#clip0_7447_2359)">
<path d="M7.08714 3.02212C7.32201 2.29927 8.34466 2.29927 8.57953 3.02213L9.41871 5.60486C9.52375 5.92814 9.825 6.14701 10.1649 6.14701H12.8806C13.6406 6.14701 13.9566 7.11961 13.3417 7.56636L11.1447 9.16258C10.8697 9.36238 10.7547 9.71652 10.8597 10.0398L11.6989 12.6225C11.9338 13.3454 11.1064 13.9465 10.4915 13.4997L8.29451 11.9035C8.01952 11.7037 7.64715 11.7037 7.37216 11.9035L5.17515 13.4997C4.56025 13.9465 3.7329 13.3454 3.96778 12.6225L4.80696 10.0398C4.912 9.71652 4.79693 9.36238 4.52194 9.16258L2.32493 7.56636C1.71003 7.11961 2.02604 6.14701 2.7861 6.14701H5.50176C5.84166 6.14701 6.14291 5.92814 6.24795 5.60486L7.08714 3.02212Z" fill="#60616C"/>
</g>
<defs>
<clipPath id="clip0_7447_2359">
<rect width="10" height="12" fill="white" transform="translate(2 2)"/>
</clipPath>
</defs>
</svg>