<svg xmlns="http://www.w3.org/2000/svg" width="16" height="16" viewBox="0 0 16 16" fill="none">
<path fill-rule="evenodd" clip-rule="evenodd" d="M8.00002 13.6C11.0928 13.6 13.6 11.0928 13.6 8.00002C13.6 4.90723 11.0928 2.40002 8.00002 2.40002C4.90723 2.40002 2.40002 4.90723 2.40002 8.00002C2.40002 11.0928 4.90723 13.6 8.00002 13.6ZM9.00002 5.20002C9.00002 4.64774 8.55231 4.20002 8.00002 4.20002C7.44774 4.20002 7.00002 4.64774 7.00002 5.20002V8.00002C7.00002 8.26524 7.10538 8.51959 7.29292 8.70713L9.27282 10.687C9.66334 11.0776 10.2965 11.0776 10.687 10.687C11.0776 10.2965 11.0776 9.66334 10.687 9.27282L9.00002 7.58581V5.20002Z" fill="#7F8090"/>
</svg>