<svg xmlns="http://www.w3.org/2000/svg" width="24" height="24" viewBox="0 0 24 24" fill="none">
<path d="M21.1111 7.3335H10.8889C10.398 7.3335 10 7.73147 10 8.22238V21.1113C10 21.6022 10.398 22.0002 10.8889 22.0002H21.1111C21.602 22.0002 22 21.6022 22 21.1113V8.22238C22 7.73147 21.602 7.3335 21.1111 7.3335Z" stroke="#60616C" stroke-width="1.5" stroke-linecap="round" stroke-linejoin="round"/>
<path d="M10 19.3335H7.33333C6.97971 19.3335 6.64057 19.193 6.39052 18.943C6.14048 18.6929 6 18.3538 6 18.0002V6.00017C6 5.64655 6.14048 5.30741 6.39052 5.05736C6.64057 4.80732 6.97971 4.66684 7.33333 4.66684H16.6667C17.0203 4.66684 17.3594 4.80732 17.6095 5.05736C17.8595 5.30741 18 5.64655 18 6.00017V7.33351" stroke="#60616C" stroke-width="1.5" stroke-linecap="round" stroke-linejoin="round"/>
<path d="M6 16.6668H3.33333C2.97971 16.6668 2.64057 16.5264 2.39052 16.2763C2.14048 16.0263 2 15.6871 2 15.3335V3.3335C2 2.97988 2.14048 2.64074 2.39052 2.39069C2.64057 2.14064 2.97971 2.00017 3.33333 2.00017H12.6667C13.0203 2.00017 13.3594 2.14064 13.6095 2.39069C13.8595 2.64074 14 2.97988 14 3.3335V4.66683" stroke="#60616C" stroke-width="1.5" stroke-linecap="round" stroke-linejoin="round"/>
<path d="M16.666 11.3335H19.3327" stroke="#60616C" stroke-width="1.5" stroke-linecap="round" stroke-linejoin="round"/>
<path d="M12.666 10.6668L13.3327 11.3335L14.666 10.0002" stroke="#60616C" stroke-width="1.5" stroke-linecap="round" stroke-linejoin="round"/>
<path d="M16.666 15.3335H19.3327" stroke="#60616C" stroke-width="1.5" stroke-linecap="round" stroke-linejoin="round"/>
<path d="M12.666 14.6668L13.3327 15.3335L14.666 14.0002" stroke="#60616C" stroke-width="1.5" stroke-linecap="round" stroke-linejoin="round"/>
<path d="M16.666 19.3335H19.3327" stroke="#60616C" stroke-width="1.5" stroke-linecap="round" stroke-linejoin="round"/>
<path d="M12.666 18.6668L13.3327 19.3335L14.666 18.0002" stroke="#60616C" stroke-width="1.5" stroke-linecap="round" stroke-linejoin="round"/>
</svg>