<svg xmlns="http://www.w3.org/2000/svg" width="20" height="20" viewBox="0 0 20 20" fill="none">
<g clip-path="url(#clip0_6195_10068)">
<path d="M6.04595 18.141C13.2964 18.141 17.2633 12.1326 17.2633 6.9237C17.2633 6.75479 17.2595 6.58212 17.252 6.41321C18.0237 5.85515 18.6896 5.16392 19.2185 4.37199C18.4998 4.69174 17.7368 4.90057 16.9555 4.99134C17.7782 4.4982 18.3941 3.72351 18.6893 2.81087C17.9153 3.26954 17.0689 3.59309 16.1863 3.76766C15.5917 3.13581 14.8055 2.71745 13.9492 2.57727C13.0929 2.43708 12.2143 2.58287 11.4492 2.9921C10.6841 3.40133 10.0751 4.05121 9.71644 4.84126C9.35773 5.6313 9.26927 6.51751 9.46474 7.36288C7.8976 7.28423 6.36448 6.87713 4.96477 6.16796C3.56506 5.4588 2.33 4.46339 1.33967 3.24628C0.836325 4.1141 0.682303 5.14101 0.9089 6.11831C1.1355 7.09561 1.72571 7.94996 2.55959 8.50773C1.93357 8.48785 1.32125 8.3193 0.773245 8.016V8.0648C0.772684 8.97551 1.08753 9.85831 1.66425 10.5631C2.24098 11.268 3.04399 11.7513 3.93679 11.931C3.35688 12.0897 2.74823 12.1128 2.15795 11.9986C2.40989 12.7818 2.90005 13.4668 3.56005 13.9581C4.22004 14.4493 5.01693 14.7222 5.8395 14.7387C4.44302 15.8357 2.71796 16.4307 0.942158 16.4279C0.627234 16.4274 0.31262 16.4081 0 16.3701C1.80402 17.5274 3.90258 18.1421 6.04595 18.141Z" fill="#7F8090"/>
</g>
<defs>
<clipPath id="clip0_6195_10068">
<rect width="19.2185" height="19.2185" fill="white" transform="translate(0 0.724243)"/>
</clipPath>
</defs>
</svg>