<svg width="21" height="25" viewBox="0 0 21 25" fill="none" xmlns="http://www.w3.org/2000/svg">
<g clip-path="url(#clip0_56_1943)">
<g clip-path="url(#clip1_56_1943)">
<g clip-path="url(#clip2_56_1943)">
<mask id="mask0_56_1943" style="mask-type:luminance" maskUnits="userSpaceOnUse" x="0" y="4" width="20" height="20">
<path d="M19.6385 4.36914H0.419983V23.5876H19.6385V4.36914Z" fill="white"/>
</mask>
<g mask="url(#mask0_56_1943)">
<path d="M6.46593 21.786C13.7164 21.786 17.6833 15.7776 17.6833 10.5687C17.6833 10.3998 17.6795 10.2271 17.672 10.0582C18.4437 9.50017 19.1096 8.80894 19.6385 8.01701C18.9198 8.33676 18.1568 8.54559 17.3755 8.63636C18.1982 8.14322 18.8141 7.36853 19.1093 6.45589C18.3353 6.91456 17.4889 7.23811 16.6063 7.41268C16.0117 6.78083 15.2255 6.36247 14.3692 6.22229C13.5129 6.0821 12.6343 6.22789 11.8692 6.63712C11.1041 7.04635 10.4951 7.69623 10.1364 8.48628C9.77771 9.27632 9.68925 10.1625 9.88472 11.0079C8.31758 10.9292 6.78446 10.5221 5.38475 9.81298C3.98504 9.10382 2.74998 8.10841 1.75965 6.8913C1.25631 7.75912 1.10229 8.78603 1.32888 9.76333C1.55548 10.7406 2.14569 11.595 2.97957 12.1527C2.35355 12.1329 1.74123 11.9643 1.19323 11.661V11.7098C1.19267 12.6205 1.50751 13.5033 2.08423 14.2081C2.66096 14.913 3.46397 15.3963 4.35677 15.576C3.77686 15.7347 3.16821 15.7578 2.57793 15.6436C2.82987 16.4268 3.32003 17.1118 3.98003 17.6031C4.64002 18.0943 5.43691 18.3672 6.25948 18.3837C4.863 19.4807 3.13794 20.0757 1.36214 20.0729C1.04722 20.0724 0.732603 20.0531 0.419983 20.0151C2.224 21.1724 4.32256 21.7871 6.46593 21.786Z" fill="#38A17E"/>
</g>
</g>
</g>
</g>
<defs>
<clipPath id="clip0_56_1943">
<rect width="20" height="20" fill="white" transform="translate(0.419983 3.64502)"/>
</clipPath>
<clipPath id="clip1_56_1943">
<rect width="20" height="20" fill="white" transform="translate(0.419983 3.64502)"/>
</clipPath>
<clipPath id="clip2_56_1943">
<rect width="20" height="20" fill="white" transform="translate(0.419983 3.64502)"/>
</clipPath>
</defs>
</svg>
