<svg xmlns="http://www.w3.org/2000/svg" width="144" height="60" viewBox="0 0 144 60" fill="none">
<path d="M80.1913 35.7439H74.7585L76.988 32.8082H70.952L68.8013 35.6349C67.9972 36.7583 67.9193 37.8921 67.9193 38.6789V39.1237C67.9193 39.6378 68.2378 39.9174 68.7104 39.9174H80.1913C80.6543 39.9174 80.9668 39.662 80.9668 39.1393V36.5247C80.9668 35.9984 80.6543 35.7439 80.1913 35.7439ZM49.2643 25.3727C49.1778 24.8811 48.8446 24.6387 48.411 24.6387H46.8756C45.2779 24.6387 43.8679 25.486 43.0778 26.7661C43.0778 26.7661 41.6125 29.1091 39.9706 31.7461H50.3947L49.2643 25.3727ZM66.4341 25.4168C66.4341 24.894 66.1226 24.6387 65.6561 24.6387H62.5307C62.0677 24.6387 61.7552 24.894 61.7552 25.4168V31.3403L58.7927 26.0149C58.2006 25.0334 57.2036 24.6604 56.0404 24.6387H53.7303C53.2716 24.6387 52.9583 24.894 52.9583 25.4168V31.7496H56.8409L57.4381 32.8082H52.9583V39.1393C52.9583 39.662 53.2716 39.9217 53.7303 39.9217H56.8634C57.329 39.9217 57.6372 39.662 57.6372 39.1393L57.6354 33.1786L60.6258 38.5473C61.2117 39.5236 62.2122 39.8967 63.3676 39.9217H65.6561C66.1226 39.9217 66.4341 39.662 66.4341 39.1393V32.8082H62.5792L61.9837 31.7496H66.4341V25.4168ZM50.5799 32.8082H45.4319C45.5634 33.5282 46.5129 38.8823 46.5692 39.1938C46.6566 39.6759 46.9569 39.9217 47.3974 39.9217H50.9391C51.2636 39.9217 51.4272 39.8196 51.5796 39.6344C51.6835 39.5054 51.7267 39.3098 51.6782 39.0233L50.5799 32.8082ZM35.4657 38.9636C35.3255 39.2033 35.3255 39.4552 35.4111 39.6187C35.5098 39.81 35.7296 39.9217 35.9668 39.9217H39.6452C40.109 39.9217 40.5237 39.6716 40.7547 39.2977L44.8139 32.8082H39.3076C37.4174 35.8383 35.5132 38.8935 35.4657 38.9636ZM68.8134 28.807H73.9891L71.757 31.7461H77.7913L79.9922 28.8511C80.6717 27.9562 80.8291 27.1548 80.8291 26.4459V25.4376C80.8291 24.9208 80.5167 24.6387 80.0407 24.6387H68.8134C68.3503 24.6387 68.0405 24.894 68.0405 25.4168V28.0315C68.0405 28.5525 68.3503 28.807 68.8134 28.807Z" fill="#636166"/>
<path d="M94.5208 24.4289C95.5776 24.4289 96.7806 25.3463 96.7806 26.6134C96.7806 27.3274 96.5529 27.8788 96.2181 28.3825C96.0034 28.7035 95.8398 29.0731 95.7723 29.3406C95.6996 29.6426 95.5403 30.3739 96.4344 30.3861C97.0161 30.4007 98.4476 29.8945 99.6039 28.5001C100.494 27.3802 101.022 25.9599 101.022 24.4107C101.022 20.7903 98.1152 17.8545 94.5208 17.8545C90.9255 17.8545 88.013 20.7903 88.013 24.4107C88.013 25.9599 88.5411 27.3802 89.4317 28.5001C90.5897 29.8945 92.0203 30.4007 92.6011 30.3861C93.4952 30.3739 93.3333 29.6426 93.2641 29.3406C93.1983 29.0731 93.0339 28.7035 92.8175 28.3825C92.4834 27.8788 92.255 27.3274 92.255 26.6134C92.2576 25.3463 93.4589 24.4289 94.5208 24.4289ZM106.022 31.0551C105.755 30.8344 105.288 30.5125 104.328 30.3644C102.996 30.1654 101.807 30.4778 101.092 30.7616C100.151 31.1339 98.9919 31.9803 98.1913 33.0829C97.3466 34.2479 96.9095 36.0067 97.3285 37.8398C97.447 38.3556 97.5752 38.6465 97.7664 39.0082C98.0166 39.4998 98.676 40.1862 99.2534 40.3099C99.7095 40.4043 100.066 40.142 100.241 39.9438C101.404 38.5963 105.812 33.3781 106.29 32.7117C106.759 32.0496 106.453 31.4134 106.022 31.0551ZM87.9473 30.7616C87.2316 30.4778 86.0441 30.1654 84.7121 30.3644C83.7522 30.5125 83.2806 30.8344 83.0174 31.0551C82.5864 31.4134 82.2774 32.0496 82.7491 32.7117C83.2243 33.3781 87.6314 38.5963 88.7946 39.9438C88.9695 40.142 89.3261 40.4043 89.7831 40.3099C90.3639 40.1862 91.0207 39.4998 91.2699 39.0082C91.4639 38.6465 91.5893 38.3556 91.7113 37.8398C92.1294 36.0067 91.6854 34.2479 90.8485 33.0829C90.047 31.9803 88.8864 31.1339 87.9473 30.7616Z" fill="#636166"/>
</svg>