<svg xmlns="http://www.w3.org/2000/svg" width="14" height="14" viewBox="0 0 14 14" fill="none">
<g clip-path="url(#clip0_8160_9505)">
<rect width="14" height="14" rx="7" fill="white"/>
<path fill-rule="evenodd" clip-rule="evenodd" d="M0 0H14V14H0V0Z" fill="#E31D1C"/>
<path fill-rule="evenodd" clip-rule="evenodd" d="M0 1.16675V2.33341H14V1.16675H0ZM0 3.50008V4.66675H14V3.50008H0ZM0 7.00008V5.83341H14V7.00008H0ZM0 8.16675V9.33341H14V8.16675H0ZM0 11.6667V10.5001H14V11.6667H0ZM0 14.0001V12.8334H14V14.0001H0Z" fill="#F7FCFF"/>
<rect width="7.875" height="8.16667" fill="#2E42A5"/>
<path fill-rule="evenodd" clip-rule="evenodd" d="M-0.783866 1.07281L-1.23934 1.39212L-1.08557 0.82387L-1.49012 0.463751H-0.961722L-0.784503 0L-0.576699 0.463751H-0.126257L-0.48018 0.82387L-0.343162 1.39212L-0.783866 1.07281ZM-3.29375 1.07292L-3.74923 1.39223L-3.59545 0.823981L-4 0.463862H-3.47161L-3.29439 0.000110871L-3.08658 0.463862H-2.63614L-2.99006 0.823981L-2.85305 1.39223L-3.29375 1.07292ZM1.27054 1.39212L1.72602 1.07281L2.16672 1.39212L2.0297 0.82387L2.38363 0.463751H1.93319L1.72538 0L1.54816 0.463751H1.01977L1.42432 0.82387L1.27054 1.39212ZM4.23613 1.07281L3.78065 1.39212L3.93442 0.82387L3.52988 0.463751H4.05827L4.23549 0L4.44329 0.463751H4.89374L4.53981 0.82387L4.67683 1.39212L4.23613 1.07281ZM-3.74923 3.90201L-3.29375 3.58269L-2.85305 3.90201L-2.99006 3.33375L-2.63614 2.97364H-3.08658L-3.29439 2.50988L-3.47161 2.97364H-4L-3.59545 3.33375L-3.74923 3.90201ZM-0.783866 3.58269L-1.23934 3.90201L-1.08557 3.33375L-1.49012 2.97364H-0.961722L-0.784503 2.50988L-0.576699 2.97364H-0.126257L-0.48018 3.33375L-0.343162 3.90201L-0.783866 3.58269ZM1.27054 3.90201L1.72602 3.58269L2.16672 3.90201L2.0297 3.33375L2.38363 2.97364H1.93319L1.72538 2.50988L1.54816 2.97364H1.01977L1.42432 3.33375L1.27054 3.90201ZM4.23613 3.58269L3.78065 3.90201L3.93442 3.33375L3.52988 2.97364H4.05827L4.23549 2.50988L4.44329 2.97364H4.89374L4.53981 3.33375L4.67683 3.90201L4.23613 3.58269ZM-3.74923 6.41189L-3.29375 6.09257L-2.85305 6.41189L-2.99006 5.84364L-2.63614 5.48352H-3.08658L-3.29439 5.01977L-3.47161 5.48352H-4L-3.59545 5.84364L-3.74923 6.41189ZM-0.783866 6.09257L-1.23934 6.41189L-1.08557 5.84364L-1.49012 5.48352H-0.961722L-0.784503 5.01977L-0.576699 5.48352H-0.126257L-0.48018 5.84364L-0.343162 6.41189L-0.783866 6.09257ZM1.27054 6.41189L1.72602 6.09257L2.16672 6.41189L2.0297 5.84364L2.38363 5.48352H1.93319L1.72538 5.01977L1.54816 5.48352H1.01977L1.42432 5.84364L1.27054 6.41189ZM4.23613 6.09257L3.78065 6.41189L3.93442 5.84364L3.52988 5.48352H4.05827L4.23549 5.01977L4.44329 5.48352H4.89374L4.53981 5.84364L4.67683 6.41189L4.23613 6.09257ZM6.29053 1.39212L6.74601 1.07281L7.18672 1.39212L7.0497 0.82387L7.40362 0.463751H6.95318L6.74537 0L6.56816 0.463751H6.03976L6.44431 0.82387L6.29053 1.39212ZM6.74601 3.58269L6.29053 3.90201L6.44431 3.33375L6.03976 2.97364H6.56816L6.74537 2.50988L6.95318 2.97364H7.40362L7.0497 3.33375L7.18672 3.90201L6.74601 3.58269ZM6.29053 6.41189L6.74601 6.09257L7.18672 6.41189L7.0497 5.84364L7.40362 5.48352H6.95318L6.74537 5.01977L6.56816 5.48352H6.03976L6.44431 5.84364L6.29053 6.41189ZM-2.03881 2.32797L-2.49428 2.64729L-2.34051 2.07904L-2.74506 1.71892H-2.21666L-2.03944 1.25517L-1.83164 1.71892H-1.3812L-1.73512 2.07904L-1.5981 2.64729L-2.03881 2.32797ZM0.0156002 2.64729L0.471076 2.32797L0.91178 2.64729L0.774763 2.07904L1.12868 1.71892H0.678243L0.470439 1.25517L0.293221 1.71892H-0.235174L0.169374 2.07904L0.0156002 2.64729ZM2.98096 2.32797L2.52548 2.64729L2.67926 2.07904L2.27471 1.71892H2.8031L2.98032 1.25517L3.18813 1.71892H3.63857L3.28465 2.07904L3.42166 2.64729L2.98096 2.32797ZM-2.49428 5.15717L-2.03881 4.83786L-1.5981 5.15717L-1.73512 4.58892L-1.3812 4.2288H-1.83164L-2.03944 3.76505L-2.21666 4.2288H-2.74506L-2.34051 4.58892L-2.49428 5.15717ZM0.471076 4.83786L0.0156002 5.15717L0.169374 4.58892L-0.235174 4.2288H0.293221L0.470439 3.76505L0.678243 4.2288H1.12868L0.774763 4.58892L0.91178 5.15717L0.471076 4.83786ZM2.52548 5.15717L2.98096 4.83786L3.42166 5.15717L3.28465 4.58892L3.63857 4.2288H3.18813L2.98032 3.76505L2.8031 4.2288H2.27471L2.67926 4.58892L2.52548 5.15717ZM5.49107 2.32797L5.03559 2.64729L5.18937 2.07904L4.78482 1.71892H5.31321L5.49043 1.25517L5.69824 1.71892H6.14868L5.79475 2.07904L5.93177 2.64729L5.49107 2.32797ZM5.03559 5.15717L5.49107 4.83786L5.93177 5.15717L5.79475 4.58892L6.14868 4.2288H5.69824L5.49043 3.76505L5.31321 4.2288H4.78482L5.18937 4.58892L5.03559 5.15717Z" fill="#F7FCFF"/>
</g>
<defs>
<clipPath id="clip0_8160_9505">
<rect width="14" height="14" rx="7" fill="white"/>
</clipPath>
</defs>
</svg>