<svg xmlns="http://www.w3.org/2000/svg" width="16" height="16" viewBox="0 0 16 16" fill="none">
<path fill-rule="evenodd" clip-rule="evenodd" d="M5.5 4.5C5.5 3.11929 6.61929 2 8 2C9.38071 2 10.5 3.11929 10.5 4.5C10.5 5.88071 9.38071 7 8 7C6.61929 7 5.5 5.88071 5.5 4.5Z" fill="#60616C"/>
<path fill-rule="evenodd" clip-rule="evenodd" d="M10.5 6.5C10.5 5.39543 11.3954 4.5 12.5 4.5C13.6046 4.5 14.5 5.39543 14.5 6.5C14.5 7.60457 13.6046 8.5 12.5 8.5C11.3954 8.5 10.5 7.60457 10.5 6.5Z" fill="#60616C"/>
<path fill-rule="evenodd" clip-rule="evenodd" d="M1.5 6.5C1.5 5.39543 2.39543 4.5 3.5 4.5C4.60457 4.5 5.5 5.39543 5.5 6.5C5.5 7.60457 4.60457 8.5 3.5 8.5C2.39543 8.5 1.5 7.60457 1.5 6.5Z" fill="#60616C"/>
<path fill-rule="evenodd" clip-rule="evenodd" d="M4.20657 10.0783C5.00522 8.82961 6.40557 8 8 8C9.59463 8 10.9951 8.82981 11.7937 10.0788C12.3458 10.9423 12.5847 11.9835 12.4726 12.9986C12.4551 13.1573 12.3629 13.298 12.2245 13.3774C10.9796 14.0917 9.53672 14.5 8 14.5C6.46328 14.5 5.02039 14.0917 3.7755 13.3774C3.63706 13.298 3.54486 13.1573 3.52736 12.9986C3.41529 11.9833 3.65427 10.9419 4.20657 10.0783Z" fill="#60616C"/>
<path d="M3.38819 9.50246C3.38016 9.51479 3.37218 9.52716 3.36425 9.53956C2.72061 10.5459 2.42605 11.7445 2.51648 12.926C2.11111 12.8644 1.7178 12.7654 1.34029 12.6324L1.26365 12.6055C1.12384 12.5562 1.02615 12.4293 1.01439 12.2815L1.00795 12.2005C1.00268 12.1343 1 12.0674 1 12C1 10.6568 2.05936 9.56094 3.38819 9.50246Z" fill="#60616C"/>
<path d="M13.4838 12.926C13.5742 11.7447 13.2797 10.5464 12.6363 9.54012C12.6283 9.52753 12.6202 9.51498 12.6121 9.50247C13.9408 9.56108 15 10.6568 15 12C15 12.0674 14.9973 12.1343 14.9921 12.2005L14.9856 12.2815C14.9738 12.4293 14.8762 12.5562 14.7364 12.6055L14.6597 12.6324C14.2823 12.7654 13.889 12.8644 13.4838 12.926Z" fill="#60616C"/>
</svg>