<svg xmlns="http://www.w3.org/2000/svg" width="20" height="21" viewBox="0 0 20 21" fill="none">
<path fill-rule="evenodd" clip-rule="evenodd" d="M6.875 6.125C6.875 4.39911 8.27411 3 10 3C11.7259 3 13.125 4.39911 13.125 6.125C13.125 7.85089 11.7259 9.25 10 9.25C8.27411 9.25 6.875 7.85089 6.875 6.125Z" fill="#6B7280"/>
<path fill-rule="evenodd" clip-rule="evenodd" d="M13.125 8.625C13.125 7.24429 14.2443 6.125 15.625 6.125C17.0057 6.125 18.125 7.24429 18.125 8.625C18.125 10.0057 17.0057 11.125 15.625 11.125C14.2443 11.125 13.125 10.0057 13.125 8.625Z" fill="#6B7280"/>
<path fill-rule="evenodd" clip-rule="evenodd" d="M1.875 8.625C1.875 7.24429 2.99429 6.125 4.375 6.125C5.75571 6.125 6.875 7.24429 6.875 8.625C6.875 10.0057 5.75571 11.125 4.375 11.125C2.99429 11.125 1.875 10.0057 1.875 8.625Z" fill="#6B7280"/>
<path fill-rule="evenodd" clip-rule="evenodd" d="M5.25822 13.0979C6.25653 11.537 8.00696 10.5 10 10.5C11.9933 10.5 13.7439 11.5373 14.7422 13.0985C15.4323 14.1779 15.7309 15.4793 15.5908 16.7483C15.5689 16.9466 15.4537 17.1225 15.2806 17.2218C13.7245 18.1147 11.9209 18.625 10 18.625C8.0791 18.625 6.27549 18.1147 4.71937 17.2218C4.54633 17.1225 4.43108 16.9466 4.40919 16.7483C4.26911 15.4791 4.56784 14.1774 5.25822 13.0979Z" fill="#6B7280"/>
<path d="M4.23524 12.3781C4.2252 12.3935 4.21523 12.4089 4.20531 12.4244C3.40076 13.6824 3.03257 15.1806 3.14559 16.6575C2.63889 16.5805 2.14725 16.4567 1.67536 16.2906L1.57956 16.2568C1.4048 16.1953 1.28269 16.0366 1.26799 15.8519L1.25994 15.7506C1.25335 15.6678 1.25 15.5842 1.25 15.5C1.25 13.8209 2.5742 12.4512 4.23524 12.3781Z" fill="#6B7280"/>
<path d="M16.8547 16.6575C16.9677 15.1808 16.5997 13.683 15.7954 12.4251C15.7854 12.4094 15.7753 12.3937 15.7651 12.3781C17.426 12.4513 18.75 13.821 18.75 15.5C18.75 15.5842 18.7467 15.6678 18.7401 15.7506L18.732 15.8519C18.7173 16.0366 18.5952 16.1953 18.4204 16.2568L18.3246 16.2906C17.8528 16.4567 17.3613 16.5805 16.8547 16.6575Z" fill="#6B7280"/>
</svg>