<svg xmlns="http://www.w3.org/2000/svg" width="16" height="17" viewBox="0 0 16 17" fill="none">
<path fill-rule="evenodd" clip-rule="evenodd" d="M4.99924 4.5C4.99924 2.84315 6.34239 1.5 7.99924 1.5C9.6561 1.5 10.9992 2.84315 10.9992 4.5C10.9992 6.15685 9.6561 7.5 7.99924 7.5C6.34239 7.5 4.99924 6.15685 4.99924 4.5Z" fill="white"/>
<path fill-rule="evenodd" clip-rule="evenodd" d="M2.50007 13.9036C2.55163 10.9104 4.9939 8.5 7.99924 8.5C11.0047 8.5 13.447 10.9105 13.4984 13.9038C13.5018 14.1023 13.3875 14.284 13.207 14.3668C11.6211 15.0945 9.85693 15.5 7.99946 15.5C6.14182 15.5 4.37753 15.0945 2.79146 14.3666C2.61101 14.2838 2.49666 14.1021 2.50007 13.9036Z" fill="white"/>
</svg>