<svg xmlns="http://www.w3.org/2000/svg" width="17" height="16" viewBox="0 0 17 16" fill="none">
<path fill-rule="evenodd" clip-rule="evenodd" d="M6.03684 1.27077C6.71308 0.493072 7.71105 0 8.82422 0C9.93734 0 10.9353 0.493023 11.6115 1.27066C12.6397 1.19882 13.6941 1.55582 14.4813 2.34303C15.2686 3.13024 15.6256 4.18469 15.5537 5.21287C16.3313 5.88911 16.8242 6.88696 16.8242 8C16.8242 9.11324 16.3311 10.1113 15.5533 10.7875C15.625 11.8155 15.268 12.8698 14.4809 13.6568C13.6938 14.4439 12.6396 14.8009 11.6116 14.7292C10.9353 15.5069 9.93738 16 8.82422 16C7.71111 16 6.71321 15.507 6.03697 14.7294C5.00877 14.8012 3.95431 14.4442 3.16709 13.657C2.37988 12.8698 2.02287 11.8153 2.09471 10.7871C1.31717 10.1109 0.824219 9.11304 0.824219 8C0.824219 6.88691 1.31722 5.88901 2.09483 5.21277C2.02307 4.18466 2.38008 3.13031 3.16723 2.34317C3.95438 1.55602 5.00873 1.19901 6.03684 1.27077ZM11.7865 6.51153C11.9841 6.23497 11.92 5.85063 11.6434 5.65309C11.3669 5.45554 10.9825 5.5196 10.785 5.79616L8.13031 9.51273L6.79782 8.18024C6.5575 7.93992 6.16786 7.93992 5.92754 8.18024C5.68722 8.42056 5.68722 8.81021 5.92754 9.05053L7.77369 10.8967C7.9016 11.0246 8.07931 11.0897 8.25959 11.0748C8.43987 11.0599 8.60445 10.9664 8.70959 10.8192L11.7865 6.51153Z" fill="#38A17E"/>
</svg>