<svg xmlns="http://www.w3.org/2000/svg" width="16" height="17" viewBox="0 0 16 17" fill="none">
<path fill-rule="evenodd" clip-rule="evenodd" d="M5.76971 2.95021C6.3107 2.32805 7.10907 1.93359 7.99961 1.93359C8.8901 1.93359 9.68844 2.32801 10.2294 2.95012C11.052 2.89265 11.8955 3.17825 12.5253 3.80802C13.1551 4.43779 13.4407 5.28134 13.3832 6.10389C14.0052 6.64488 14.3996 7.44316 14.3996 8.33359C14.3996 9.22419 14.0051 10.0226 13.3829 10.5636C13.4402 11.386 13.1546 12.2294 12.5249 12.8591C11.8953 13.4887 11.0519 13.7743 10.2295 13.717C9.6885 14.3391 8.89014 14.7336 7.99961 14.7336C7.10913 14.7336 6.3108 14.3392 5.76981 13.7171C4.94725 13.7746 4.10368 13.489 3.47391 12.8592C2.84413 12.2294 2.55853 11.3859 2.616 10.5633C1.99397 10.0223 1.59961 9.22403 1.59961 8.33359C1.59961 7.44312 1.99401 6.6448 2.6161 6.10381C2.55869 5.28132 2.8443 4.43785 3.47401 3.80813C4.10373 3.17841 4.94721 2.8928 5.76971 2.95021ZM10.3694 7.14282C10.5275 6.92157 10.4762 6.6141 10.255 6.45606C10.0337 6.29803 9.72627 6.34927 9.56823 6.57052L7.44448 9.54378L6.37849 8.47779C6.18623 8.28553 5.87452 8.28553 5.68226 8.47779C5.49001 8.67005 5.49001 8.98176 5.68226 9.17402L7.15919 10.6509C7.26152 10.7533 7.40369 10.8054 7.54791 10.7935C7.69213 10.7815 7.82379 10.7067 7.90791 10.589L10.3694 7.14282Z" fill="#6366F1"/>
</svg>