<svg xmlns="http://www.w3.org/2000/svg" width="20" height="20" viewBox="0 0 20 20" fill="none">
<g clip-path="url(#clip0_6195_10069)">
<path d="M19.7771 6.48986C19.7771 6.48986 19.5894 5.16484 19.0113 4.58303C18.2794 3.81729 17.4611 3.81353 17.0857 3.76849C14.3981 3.5733 10.363 3.5733 10.363 3.5733H10.3555C10.3555 3.5733 6.32037 3.5733 3.63278 3.76849C3.25742 3.81353 2.43913 3.81729 1.70717 4.58303C1.12912 5.16484 0.945188 6.48986 0.945188 6.48986C0.945188 6.48986 0.75 8.04761 0.75 9.60161V11.058C0.75 12.612 0.941434 14.1698 0.941434 14.1698C0.941434 14.1698 1.12912 15.4948 1.70342 16.0766C2.43537 16.8423 3.3963 16.8161 3.82421 16.8986C5.36319 17.045 10.3593 17.0901 10.3593 17.0901C10.3593 17.0901 14.3981 17.0826 17.0857 16.8911C17.4611 16.8461 18.2794 16.8423 19.0113 16.0766C19.5894 15.4948 19.7771 14.1698 19.7771 14.1698C19.7771 14.1698 19.9685 12.6158 19.9685 11.058V9.60161C19.9685 8.04761 19.7771 6.48986 19.7771 6.48986ZM8.37359 12.826V7.42451L13.5648 10.1346L8.37359 12.826Z" fill="#7F8090"/>
</g>
<defs>
<clipPath id="clip0_6195_10069">
<rect width="19.2185" height="19.2185" fill="white" transform="translate(0.75 0.724243)"/>
</clipPath>
</defs>
</svg>