<svg width="21" height="21" viewBox="0 0 21 21" fill="none" xmlns="http://www.w3.org/2000/svg">
<g clip-path="url(#clip0_56_1955)">
<g clip-path="url(#clip1_56_1955)">
<g clip-path="url(#clip2_56_1955)">
<mask id="mask0_56_1955" style="mask-type:luminance" maskUnits="userSpaceOnUse" x="1" y="1" width="20" height="20">
<path d="M20.3885 1.36914H1.16998V20.5876H20.3885V1.36914Z" fill="white"/>
</mask>
<g mask="url(#mask0_56_1955)">
<path d="M20.1971 7.13482C20.1971 7.13482 20.0094 5.8098 19.4313 5.22799C18.6994 4.46225 17.8811 4.45849 17.5057 4.41345C14.8181 4.21826 10.783 4.21826 10.783 4.21826H10.7755C10.7755 4.21826 6.74035 4.21826 4.05276 4.41345C3.6774 4.45849 2.85911 4.46225 2.12715 5.22799C1.5491 5.8098 1.36517 7.13482 1.36517 7.13482C1.36517 7.13482 1.16998 8.69257 1.16998 10.2466V11.703C1.16998 13.257 1.36142 14.8148 1.36142 14.8148C1.36142 14.8148 1.5491 16.1398 2.1234 16.7216C2.85535 17.4873 3.81628 17.4611 4.24419 17.5436C5.78317 17.69 10.7793 17.7351 10.7793 17.7351C10.7793 17.7351 14.8181 17.7276 17.5057 17.5361C17.8811 17.4911 18.6994 17.4873 19.4313 16.7216C20.0094 16.1398 20.1971 14.8148 20.1971 14.8148C20.1971 14.8148 20.3885 13.2608 20.3885 11.703V10.2466C20.3885 8.69257 20.1971 7.13482 20.1971 7.13482ZM8.79357 13.471V8.06947L13.9848 10.7796L8.79357 13.471Z" fill="#38A17E"/>
</g>
</g>
</g>
</g>
<defs>
<clipPath id="clip0_56_1955">
<rect width="20" height="20" fill="white" transform="translate(0.419983 0.64502)"/>
</clipPath>
<clipPath id="clip1_56_1955">
<rect width="20" height="20" fill="white" transform="translate(0.419983 0.64502)"/>
</clipPath>
<clipPath id="clip2_56_1955">
<rect width="20" height="20" fill="white" transform="translate(0.419983 0.64502)"/>
</clipPath>
</defs>
</svg>
