<svg width="25" height="25" viewBox="0 0 25 25" fill="none" xmlns="http://www.w3.org/2000/svg">
<path d="M22.1933 8.14344C22.0794 7.72084 21.8568 7.33544 21.5477 7.02561C21.2386 6.71577 20.8537 6.4923 20.4313 6.37744C18.8653 5.94744 12.6003 5.94044 12.6003 5.94044C12.6003 5.94044 6.33631 5.93344 4.76931 6.34444C4.34723 6.46458 3.96313 6.69121 3.65388 7.00257C3.34462 7.31393 3.1206 7.69956 3.00331 8.12244C2.59031 9.68844 2.58631 12.9364 2.58631 12.9364C2.58631 12.9364 2.58231 16.2004 2.99231 17.7504C3.22231 18.6074 3.89731 19.2844 4.75531 19.5154C6.33731 19.9454 12.5853 19.9524 12.5853 19.9524C12.5853 19.9524 18.8503 19.9594 20.4163 19.5494C20.8388 19.4347 21.2241 19.2118 21.534 18.9026C21.8439 18.5934 22.0677 18.2086 22.1833 17.7864C22.5973 16.2214 22.6003 12.9744 22.6003 12.9744C22.6003 12.9744 22.6203 9.70944 22.1933 8.14344ZM10.5963 15.9454L10.6013 9.94544L15.8083 12.9504L10.5963 15.9454Z" fill="#bdfe00"/>
</svg>
