<svg width="60" height="22" viewBox="0 0 60 22" fill="none" xmlns="http://www.w3.org/2000/svg">
<g clip-path="url(#clip0_56_1174)">
<g clip-path="url(#clip1_56_1174)">
<mask id="mask0_56_1174" style="mask-type:luminance" maskUnits="userSpaceOnUse" x="1" y="0" width="59" height="21">
<path d="M59.1928 0.81665H1.65845V20.6555H59.1928V0.81665Z" fill="white"/>
</mask>
<g mask="url(#mask0_56_1174)">
<path d="M59.1911 5.0533V18.6996L57.3069 20.5381V7.1933L59.1911 5.0533Z" fill="#7D7A80"/>
<path d="M57.3376 7.19312H44.8601V20.5542H57.3376V7.19312Z" fill="#636166"/>
<path d="M46.815 5.06272L44.8606 7.19378H57.3381L59.192 5.05371L46.815 5.06272Z" fill="#7D7A80"/>
<path d="M31.3611 5.64756L43.6347 3.94141L42.6078 6.88436L30.9802 8.72837L31.0297 6.62474L31.3611 5.64756Z" fill="#7D7A80"/>
<path d="M42.6057 6.88403L44.306 18.8541L32.2038 20.5546L30.5696 8.98238L31.2762 8.43019L42.6057 6.88403Z" fill="#636166"/>
<path d="M43.6331 3.94141L43.6426 4.01368L45.2343 16.2705L44.3065 18.8543L42.6062 6.88421" fill="#7D7A80"/>
<mask id="mask1_56_1174" style="mask-type:luminance" maskUnits="userSpaceOnUse" x="16" y="4" width="16" height="17">
<path d="M20.9935 4.62669L31.8594 9.52951L26.9565 20.6596L16.0906 15.7571L20.9935 4.62669Z" fill="white"/>
</mask>
<g mask="url(#mask1_56_1174)">
<path d="M1.65454 0.816406H59.1879V20.6552H1.65454V0.816406Z" fill="#636166"/>
</g>
<path d="M19.8635 0.816895L20.9914 4.62676L31.8572 9.52958L30.9437 5.88912L19.8635 0.816895Z" fill="#7D7A80"/>
<path d="M19.8628 0.81665L15.4895 11.196L16.0878 15.7572L20.9907 4.62651L19.8628 0.81665Z" fill="#7D7A80"/>
<path d="M13.802 6.86719L15.5929 18.6461L3.58472 20.529L1.65601 8.72752L13.802 6.86719Z" fill="#636166"/>
<path d="M1.65601 8.72633L2.49929 4.52086L14.6238 2.57739L13.802 6.86663L1.65601 8.72633Z" fill="#7D7A80"/>
<path d="M14.6267 2.57715L16.4044 14.4697L15.5959 18.645L13.8049 6.86639L14.6267 2.57715Z" fill="#7D7A80"/>
<path d="M40.5473 9.17775C40.4927 8.80599 40.3657 8.52236 40.16 8.33656C39.9964 8.18814 39.7906 8.11315 39.5561 8.11354C39.4963 8.11354 39.4346 8.11836 39.3707 8.12768C39.0565 8.17283 38.8159 8.31838 38.6684 8.55865C38.5611 8.73225 38.5091 8.94167 38.5091 9.18256C38.5091 9.2748 38.5168 9.37202 38.5318 9.47397L38.9733 12.5886L35.4935 13.1007L35.0521 9.98544C34.9987 9.62332 34.8735 9.34257 34.6705 9.15172C34.5066 8.997 34.3023 8.91789 34.0718 8.91844C34.0174 8.91844 33.9615 8.92279 33.9045 8.93118C33.577 8.97835 33.3275 9.12118 33.1761 9.35787C33.0662 9.52837 33.0132 9.7388 33.0132 9.9835C33.0132 10.0774 33.0212 10.1768 33.0363 10.2815L34.227 18.3818C34.2816 18.7542 34.4119 19.0373 34.626 19.2202C34.793 19.3631 35.0023 19.435 35.2422 19.4345C35.3077 19.4345 35.3758 19.4294 35.4461 19.419C35.7457 19.3756 35.9771 19.2307 36.1167 18.9907C36.2167 18.8201 36.2653 18.6152 36.2653 18.3807C36.2653 18.2868 36.2576 18.1884 36.2424 18.0854L35.7559 14.8851L39.2355 14.3737L39.7223 17.5739C39.7759 17.9415 39.9049 18.2229 40.116 18.4082C40.2837 18.5557 40.491 18.6299 40.726 18.6295C40.7864 18.6295 40.8482 18.6249 40.9121 18.6155C41.2251 18.57 41.4648 18.4266 41.608 18.1883C41.7111 18.0183 41.7608 17.8121 41.7608 17.5745C41.7608 17.4805 41.7533 17.3815 41.7381 17.2776L40.5473 9.17775ZM26.3952 13.6582C25.9858 14.6225 25.4453 15.2841 24.7765 15.6507C24.4181 15.847 24.0509 15.9442 23.671 15.9443C23.3409 15.9443 23.0006 15.8706 22.6492 15.7218C21.8888 15.3976 21.4151 14.8766 21.21 14.1417C21.1414 13.8952 21.1069 13.636 21.1069 13.3636C21.1069 12.8243 21.2423 12.2325 21.5154 11.5887C21.9341 10.6015 22.4806 9.92802 23.1499 9.55922C23.5073 9.36223 23.8748 9.26439 24.256 9.26439C24.5897 9.26439 24.9346 9.33907 25.2918 9.49068C26.0475 9.81215 26.5164 10.3343 26.7178 11.0726C26.7832 11.3139 26.8161 11.568 26.8161 11.8354C26.8161 12.3862 26.677 12.994 26.3952 13.6582ZM27.5855 8.80965C27.1586 8.35941 26.64 8.00529 26.0319 7.74738C25.4283 7.49094 24.818 7.36304 24.2029 7.36304L24.1745 7.36319C23.55 7.36723 22.9328 7.50625 22.3244 7.77916C21.6876 8.05634 21.1326 8.44395 20.6618 8.94206C20.1908 9.43986 19.8074 10.0387 19.5113 10.7362C19.2193 11.4256 19.0572 12.1153 19.0271 12.8051C19.0236 12.8831 19.022 12.9612 19.022 13.039C19.022 13.6477 19.1263 14.2442 19.3349 14.8269C19.5562 15.442 19.8825 15.9746 20.3128 16.4234C20.7429 16.8722 21.272 17.2295 21.8981 17.4944C22.4969 17.7488 23.105 17.8759 23.7209 17.8756H23.7367C24.3578 17.8727 24.9739 17.7396 25.583 17.478L25.5839 17.4775C26.2246 17.1916 26.7834 16.7986 27.2599 16.3011C27.7362 15.8031 28.1212 15.206 28.4156 14.5125C28.7099 13.819 28.8702 13.1286 28.8965 12.4418C28.899 12.3756 28.9003 12.3095 28.9003 12.2436C28.9003 11.6261 28.7912 11.021 28.5728 10.429C28.3417 9.80003 28.0122 9.25973 27.5855 8.80965ZM12.5125 16.77C12.4179 16.657 12.2904 16.5734 12.1352 16.5191C11.9755 16.4634 11.7825 16.4366 11.5552 16.4366C11.3411 16.4366 11.0963 16.4605 10.8201 16.5078L7.65067 17.0495C7.68416 16.8053 7.80546 16.4842 8.01931 16.0931C8.25819 15.6548 8.61028 15.1284 9.07544 14.5156C9.23506 14.3023 9.35729 14.139 9.4416 14.0265C9.50214 13.9515 9.58645 13.8412 9.69571 13.6955C10.4207 12.7443 10.8695 11.9699 11.0415 11.362C11.14 11.0174 11.1999 10.6701 11.2216 10.3204C11.2275 10.2246 11.2302 10.1296 11.2302 10.0352C11.2302 9.78465 11.2097 9.53785 11.1682 9.29501C11.1304 9.0737 11.0759 8.88961 11.0029 8.74188C10.9299 8.59447 10.8371 8.48234 10.7227 8.41163C10.5936 8.33306 10.412 8.29973 10.1745 8.29934C9.97833 8.29934 9.74311 8.32312 9.46779 8.37005L5.80503 8.99677C5.36147 9.07276 5.03393 9.20331 4.82498 9.40007C4.65892 9.55587 4.57313 9.75768 4.57398 9.98933C4.57398 10.0498 4.5795 10.1123 4.59069 10.1771C4.64221 10.4883 4.80438 10.7165 5.06587 10.8326C5.2202 10.9022 5.4067 10.9355 5.62436 10.9355C5.77262 10.9355 5.9355 10.92 6.11345 10.8897L9.1791 10.3727C9.18431 10.4269 9.18789 10.481 9.18789 10.5346C9.18789 10.7262 9.1547 10.9132 9.08826 11.0974C8.99727 11.3511 8.7699 11.7138 8.40754 12.1749C8.30489 12.3008 8.14761 12.497 7.9357 12.7627C7.10897 13.7642 6.51683 14.6181 6.15852 15.3283C6.15852 15.3286 6.15875 15.3279 6.15852 15.3283C6.15852 15.3283 6.15829 15.3293 6.15821 15.3293C5.90387 15.8181 5.72732 16.2997 5.6305 16.7737C5.57408 17.0502 5.54556 17.3156 5.54556 17.5704C5.54556 17.7527 5.56017 17.9293 5.58947 18.1002C5.63143 18.3453 5.69196 18.5476 5.77348 18.7078C5.855 18.8674 5.95897 18.9867 6.08734 19.0572C6.20686 19.122 6.38248 19.1478 6.62423 19.1485C6.93109 19.1485 7.34419 19.1032 7.86708 19.014L11.1905 18.4457C11.779 18.3445 12.1883 18.2041 12.4262 18.0088C12.6163 17.8527 12.7147 17.6384 12.7137 17.3859C12.7137 17.322 12.7078 17.256 12.6959 17.1874C12.668 17.0235 12.6072 16.883 12.5125 16.77ZM9.69571 13.6955C9.69547 13.6956 9.69578 13.6954 9.69571 13.6955V13.6955ZM52.8671 16.4027C52.3891 16.9805 51.7453 17.2672 50.9143 17.2682C50.0776 17.2672 49.4311 16.9814 48.9504 16.4066C48.4711 15.8313 48.2285 15.0404 48.2282 14.0253C48.2285 12.9907 48.4702 12.188 48.9469 11.6082C49.4248 11.0287 50.0732 10.7409 50.9143 10.7398C51.7453 10.7409 52.3889 11.0284 52.8671 11.6082C53.3442 12.188 53.5863 12.9907 53.5863 14.0253C53.5863 15.0357 53.3447 15.8257 52.8671 16.4027ZM55.4316 11.9998C55.1846 11.3794 54.8191 10.8231 54.3357 10.3323C53.8731 9.86057 53.353 9.50451 52.7789 9.26556C52.204 9.02645 51.5826 8.90709 50.9152 8.90725C50.2432 8.90709 49.6157 9.02637 49.0365 9.2654C48.4575 9.50443 47.9378 9.86072 47.4795 10.3326C46.9969 10.8185 46.6328 11.3728 46.3911 11.993C46.1495 12.6138 46.0284 13.2908 46.0284 14.0232C46.0284 14.7462 46.1498 15.421 46.3949 16.0457C46.6389 16.6707 47.0011 17.2317 47.4795 17.7271C47.928 18.1904 48.4422 18.5409 49.0187 18.7774C49.5956 19.0136 50.2285 19.1319 50.9152 19.1319C51.5773 19.1319 52.198 19.0136 52.7745 18.7774C53.3514 18.5411 53.8725 18.1908 54.3354 17.7277C54.8191 17.2319 55.1846 16.6725 55.4316 16.0495C55.6787 15.4272 55.8022 14.751 55.8022 14.0232C55.8022 13.2954 55.6787 12.6204 55.4316 11.9998Z" fill="#171618"/>
</g>
</g>
</g>
<defs>
<clipPath id="clip0_56_1174">
<rect width="59" height="21" fill="white" transform="translate(0.76001 0.619873)"/>
</clipPath>
<clipPath id="clip1_56_1174">
<rect width="59" height="21" fill="white" transform="translate(0.76001 0.619873)"/>
</clipPath>
</defs>
</svg>
